<?xml version="1.0" standalone="no"?>
<!DOCTYPE svg PUBLIC "-//W3C//DTD SVG 1.1//EN" "http://www.w3.org/Graphics/SVG/1.1/DTD/svg11.dtd" >
<svg xmlns="http://www.w3.org/2000/svg" xmlns:xlink="http://www.w3.org/1999/xlink" version="1.1">
<metadata>
Created by FontForge 20170731 at Fri Sep  7 16:55:03 2018
 By Aleksey,,,
Copyright 2018 The Mali Project Authors (https://github.com/cadsondemak/Mali)
</metadata>
<defs>
<font id="Mali-SemiBold" horiz-adv-x="0" >
  <font-face 
    font-family="Mali SemiBold"
    font-weight="600"
    font-stretch="normal"
    units-per-em="1000"
    panose-1="0 0 7 0 0 0 0 0 0 0"
    ascent="800"
    descent="-200"
    x-height="509"
    cap-height="710"
    bbox="-783 -571 1507 1485"
    underline-thickness="50"
    underline-position="-150"
    unicode-range="U+000D-FB02"
  />
<missing-glyph horiz-adv-x="522" 
d="M281 11h-61l-137 -1q-12 0 -16 4.5t-4 17.5v327q0 54 1 108.5t2 96.5l2 125q0 15 9 24t26 9l95 -1q20 -1 62 -1l95 1q23 1 63 1q13 0 20 -7.5t7 -21.5l-5 -329v-122v-208q0 -13 -4 -18.5t-17 -5.5q-107 0 -138 1zM384 296v68l3 299h-131h-34q-21 1 -91 1q-8 0 -8 -9
q0 -5 -1.5 -102t-1.5 -230q0 -230 1 -255l122 1q47 -1 95 -1q16 -1 47 -1z" />
    <glyph glyph-name="fi" unicode="fi" horiz-adv-x="742" 
d="M387.5 699q40.5 -41 40.5 -114q0 -33 -14.5 -48.5t-45.5 -15.5q-30 0 -44.5 13t-16.5 39q0 3 -0.5 24.5t-9.5 33t-27 11.5q-17 0 -26 -11t-12.5 -35t-4.5 -70v-106h62q42 0 42 -47q0 -44 -43 -44l-60 -1l3 -165q2 -80 2 -112q0 -24 -17 -37.5t-43 -13.5q-27 0 -43 13.5
t-17 35.5l-5 276q-11 -1 -35 -1q-29 0 -41 12t-12 36q0 22 10 34.5t38 12.5q24 0 38 1l-1 111q0 99 43 154t125 55q74 0 114.5 -41zM525 559.5q-23 22.5 -23 57.5t23 57.5t60 22.5q35 0 58 -22.5t23 -56.5q0 -35 -23 -58t-59 -23t-59 22.5zM524.5 19.5
q-17.5 13.5 -16.5 36.5l8 388q1 24 18 37t44 13q28 0 45.5 -13.5t16.5 -38.5l-8 -386q-1 -23 -18.5 -36.5t-44.5 -13.5t-44.5 13.5z" />
    <glyph glyph-name="fl" unicode="fl" horiz-adv-x="679" 
d="M387.5 699q40.5 -41 40.5 -114q0 -33 -14.5 -48.5t-45.5 -15.5q-30 0 -44.5 13t-16.5 39q0 3 -0.5 24.5t-9.5 33t-27 11.5q-17 0 -26 -11t-12.5 -35t-4.5 -70v-106h62q42 0 42 -47q0 -44 -43 -44l-60 -1l3 -165q2 -80 2 -112q0 -24 -17 -37.5t-43 -13.5q-27 0 -43 13.5
t-17 35.5l-5 276q-11 -1 -35 -1q-29 0 -41 12t-12 36q0 22 10 34.5t38 12.5q24 0 38 1l-1 111q0 99 43 154t125 55q74 0 114.5 -41zM502.5 23.5q-16.5 14.5 -16.5 37.5l-6 678q0 24 17.5 38.5t45.5 14.5q27 0 43.5 -14t16.5 -38l5 -679q0 -24 -18 -38t-44 -14
q-27 0 -43.5 14.5z" />
    <glyph glyph-name="uni0E240E45" unicode="&#xe24;&#xe45;" horiz-adv-x="975" 
d="M851 523.5q40 -69.5 40 -174.5l-1 -249l-1 -371q0 -20 -17.5 -32t-43.5 -12q-27 0 -44.5 12.5t-17.5 31.5l1 378l1 150q1 38 1 111q0 72 -19 101t-58 29q-44 0 -69.5 -29t-25.5 -87l1 -277v-372q0 -22 -18.5 -35t-45.5 -13q-20 0 -38 13t-18 39q0 61 2 185l1 182l-1 163
q-1 41 -1 116q0 54 -44 84t-116 30q-42 0 -76 -10.5t-53 -26t-19 -30.5l77 -23q15 -4 23.5 -19t8.5 -40q0 -11 -1 -21l-2 -20l-5 -74q10 2 15 2q55 0 87.5 -34.5t32.5 -88.5q0 -53 -36.5 -87t-97.5 -34q-59 0 -95 35t-36 88q0 24 9 114q8 98 8 113q0 7 -12 13.5t-35 13.5
q-34 12 -52.5 23t-18.5 28q0 39 39 80t103.5 67.5t136.5 26.5q80 0 135.5 -27.5t77.5 -70.5q18 43 58 70.5t101 27.5q119 0 159 -69.5zM236.5 145q-13.5 -15 -13.5 -35q0 -24 15.5 -37t34.5 -13q21 0 36.5 13.5t15.5 37.5q0 23 -14 36t-37 13q-24 0 -37.5 -15z" />
    <glyph glyph-name="uni0E260E45" unicode="&#xe26;&#xe45;" horiz-adv-x="969" 
d="M839 538q46 -61 46 -195l-1 -290l-1 -323q0 -21 -18 -33.5t-44 -12.5q-25 0 -43.5 13t-18.5 32l2 146q2 116 2 176l-1 292q0 88 -18 124t-62 36q-43 0 -67.5 -28.5t-24.5 -82.5v-343l-1 -319q0 -20 -16.5 -33t-41.5 -13t-43.5 13.5t-18.5 32.5l2 320v339q0 53 -31.5 84
t-91.5 31q-42 0 -80 -13.5t-61.5 -32.5t-21.5 -32l77 -25q28 -9 37.5 -41t9.5 -95q0 -33 -3 -85.5t-8 -78.5q-9 -51 -41 -79.5t-87 -28.5q-60 0 -94.5 34t-34.5 87q0 54 36.5 87t90.5 33q11 0 22 -3q1 19 1 51q0 30 -3.5 44.5t-16.5 18.5l-24 6q-42 10 -64 21t-22 33
q0 41 37 86.5t101 76.5t139 31q70 0 118.5 -26t71.5 -63q19 37 59 63t97 26q109 0 155 -61zM206 74.5q14 13.5 14 35.5t-13.5 36.5t-36.5 14.5t-37 -14.5t-14 -36.5q0 -21 15 -34.5t35 -14.5q23 0 37 13.5z" />
    <glyph glyph-name=".notdef" horiz-adv-x="522" 
d="M281 11h-61l-137 -1q-12 0 -16 4.5t-4 17.5v327q0 54 1 108.5t2 96.5l2 125q0 15 9 24t26 9l95 -1q20 -1 62 -1l95 1q23 1 63 1q13 0 20 -7.5t7 -21.5l-5 -329v-122v-208q0 -13 -4 -18.5t-17 -5.5q-107 0 -138 1zM384 296v68l3 299h-131h-34q-21 1 -91 1q-8 0 -8 -9
q0 -5 -1.5 -102t-1.5 -230q0 -230 1 -255l122 1q47 -1 95 -1q16 -1 47 -1z" />
    <glyph glyph-name=".null" 
 />
    <glyph glyph-name="nonmarkingreturn" unicode="&#xd;" horiz-adv-x="347" 
 />
    <glyph glyph-name="NULL" 
 />
    <glyph glyph-name="NULL" 
 />
    <glyph glyph-name="space" unicode=" " horiz-adv-x="347" 
 />
    <glyph glyph-name="exclam" unicode="!" horiz-adv-x="273" 
d="M109.5 210q-11.5 13 -11.5 36l-6 423q-1 22 12 36t33 14t31.5 -13.5t11.5 -36.5l5 -418q0 -23 -12.5 -38.5t-31.5 -15.5q-20 0 -31.5 13zM80.5 24q-23.5 24 -23.5 56q0 31 23.5 54t55.5 23q31 0 55.5 -23.5t24.5 -53.5q0 -31 -24 -55.5t-56 -24.5t-55.5 24z" />
    <glyph glyph-name="quotedbl" unicode="&#x22;" horiz-adv-x="410" 
d="M92 482q-12 9 -12 25q0 37 1 62l1 117q0 13 12 21t33 8t34 -8t13 -21l-1 -181q0 -15 -13 -23.5t-35 -8.5q-21 0 -33 9zM249 482q-12 9 -12 25q0 37 1 62l1 117q0 13 11.5 21t32.5 8q22 0 34.5 -8t12.5 -21l-1 -181q0 -15 -12.5 -23.5t-34.5 -8.5q-21 0 -33 9z" />
    <glyph glyph-name="numbersign" unicode="#" horiz-adv-x="622" 
d="M486 362l-23 -148h36q20 0 32 -11.5t12 -30.5q0 -17 -12.5 -29.5t-31.5 -12.5h-49l-15 -96q-3 -18 -14.5 -27.5t-30.5 -9.5q-18 0 -30 12t-9 27l15 94h-146l-14 -96q-2 -18 -13.5 -28t-28.5 -10q-21 0 -32.5 14.5t-8.5 36.5l12 83h-23q-20 0 -32.5 11t-12.5 30
q0 18 12.5 30t31.5 12h37l22 152h-25q-21 0 -33 11t-12 30t12.5 31t32.5 12h38l20 134q3 20 13.5 31.5t28.5 11.5q21 0 32 -12t11 -30l-1 -10l-19 -126l147 -2l23 146q4 17 15.5 26.5t26.5 9.5q17 0 29 -11.5t12 -29.5q0 -6 -1 -9l-21 -133h11q20 0 32.5 -11.5t12.5 -30.5
t-12 -30t-33 -11h-24zM389 275l13 88l-146 1l-23 -151l146 1q6 40 10 61z" />
    <glyph glyph-name="dollar" unicode="$" horiz-adv-x="598" 
d="M485 61.5q-54 -51.5 -153 -58.5v-84q0 -24 -29 -24q-13 0 -21.5 5.5t-8.5 14.5l1 88q-65 6 -113.5 38t-74.5 80.5t-26 103.5q0 31 14 45.5t42 14.5q45 0 54 -55q6 -47 31.5 -81.5t73.5 -45.5l2 205q-8 2 -69.5 19.5t-104 64t-42.5 112.5q0 56 28 99.5t77 70t109 31.5v81
q0 9 8 16t21 7t22 -6.5t9 -14.5v-84q58 -7 104.5 -35.5t72 -71t25.5 -88.5q0 -26 -3 -39t-14 -19.5t-35 -6.5q-32 0 -44.5 11.5t-13.5 42.5q0 38 -23 71.5t-69 40.5v-197v-22q54 -15 96.5 -34t75 -58.5t32.5 -103.5q0 -82 -54 -133.5zM201.5 445q25.5 -22 75.5 -38l-1 202
q-50 -7 -75 -34t-25 -73q0 -35 25.5 -57zM401.5 132q22.5 25 22.5 59q0 37 -23 59.5t-66 38.5q0 -94 -2 -188q46 6 68.5 31z" />
    <glyph glyph-name="percent" unicode="%" horiz-adv-x="932" 
d="M288 10.5q-18 13.5 -18 32.5q0 9 8 25l259 633q6 15 21.5 23.5t35.5 8.5q25 0 43 -12.5t18 -31.5q0 -8 -8 -29l-255 -628q-7 -16 -23 -25.5t-37 -9.5q-26 0 -44 13.5zM177 433q-36 19 -56.5 52.5t-20.5 73.5t20.5 72t56.5 50.5t80 18.5q45 0 80.5 -19t55 -52t19.5 -73
t-20 -72.5t-55.5 -51t-79.5 -18.5t-80 19zM296 515.5q15 15.5 15 39.5q0 26 -16 42.5t-38 16.5t-38.5 -16t-16.5 -42q0 -25 16.5 -40.5t40.5 -15.5q22 0 37 15.5zM596.5 70q-36.5 19 -57 52t-20.5 73t20.5 72.5t56.5 51t80 18.5q45 0 80.5 -19.5t55.5 -52.5t20 -72
q0 -40 -20.5 -72.5t-56 -51t-78.5 -18.5q-44 0 -80.5 19zM716.5 153q13.5 16 13.5 40t-14 41.5t-40 17.5t-40 -16.5t-14 -42.5q0 -25 13.5 -40.5t40.5 -15.5t40.5 16z" />
    <glyph glyph-name="ampersand" unicode="&#x26;" horiz-adv-x="740" 
d="M681 68q0 -20 -15 -37t-36 -17q-16 0 -38 8q-53 23 -92 47q-40 -27 -88 -42t-98 -15q-70 0 -123 28.5t-81 75t-28 98.5q0 48 23.5 96t61.5 84q-36 23 -56 59t-20 78q0 47 25 84t67.5 57.5t93.5 20.5q52 0 94.5 -21t67 -60t24.5 -91q0 -59 -32.5 -91t-91.5 -50
q76 -135 139 -185q20 32 20 66q0 15 -4 33t-8 28q-1 4 -4 11t-3 13q0 15 18 27t39 12q33 0 52 -26q10 -15 17 -43.5t7 -55.5q0 -63 -38 -118q7 -3 37 -16l37 -17q33 -16 33 -41zM225.5 587q-23.5 -21 -23.5 -61q0 -30 17.5 -51.5t56.5 -24.5q36 6 57 21t21 54q0 41 -23 62
t-52 21q-30 0 -53.5 -21zM413 130l-4 3q-48 38 -87.5 93t-63.5 126q-34 -22 -50 -59.5t-16 -73.5q0 -52 33 -86.5t87 -34.5q53 0 101 32z" />
    <glyph glyph-name="quotesingle" unicode="'" horiz-adv-x="252" 
d="M92 482q-12 9 -12 25q0 37 1 62l1 117q0 13 11.5 21t32.5 8q22 0 34.5 -8t12.5 -21l-1 -181q0 -15 -12.5 -23.5t-34.5 -8.5q-21 0 -33 9z" />
    <glyph glyph-name="parenleft" unicode="(" horiz-adv-x="365" 
d="M241.5 -124q-6.5 2 -14.5 9q-84 71 -130.5 182t-46.5 238q0 91 22.5 177t64.5 152.5t98 101.5q12 9 28 9q20 0 36 -13t16 -31q0 -17 -8 -26.5t-17 -16t-13 -9.5q-63 -48 -95.5 -139.5t-32.5 -204.5q0 -92 21.5 -157.5t49.5 -104.5t67 -80q23 -23 23 -46q0 -16 -16 -29.5
t-32 -13.5q-14 0 -20.5 2z" />
    <glyph glyph-name="parenright" unicode=")" horiz-adv-x="365" 
d="M66 -113q-16 13 -16 31q0 17 9.5 28t18 16.5t10.5 7.5q62 51 94.5 142t32.5 202q0 92 -21 158t-49.5 105.5t-67.5 78.5q-23 25 -23 46q0 16 16 29.5t32 13.5q14 0 21 -2t15 -9q84 -73 130.5 -183t46.5 -237q0 -136 -50.5 -255.5t-134.5 -175.5q-14 -9 -28 -9
q-20 0 -36 13z" />
    <glyph glyph-name="asterisk" unicode="*" horiz-adv-x="504" 
d="M427 435q3 -6 3 -17q0 -14 -10 -25.5t-22 -11.5q-11 0 -28 7l-75 40l1 -83q0 -14 -11.5 -22.5t-29.5 -8.5t-28.5 8.5t-10.5 22.5q0 46 -1 84l-70 -35q-16 -9 -27 -9q-13 0 -23 10.5t-10 25.5q0 18 15 24l110 52l-125 56q-15 7 -15 27q0 12 9.5 23t19.5 11q12 0 28 -8
l87 -44l-1 94q0 34 40 34q21 0 30.5 -8t9.5 -26l1 -96l75 41q2 1 12 5.5t19 4.5q13 0 23.5 -11t10.5 -24q0 -9 -6 -16.5t-16 -11.5l-113 -51l115 -51q10 -5 13 -11z" />
    <glyph glyph-name="plus" unicode="+" horiz-adv-x="553" 
d="M498 341.5q11 -11.5 11 -35.5q0 -43 -53 -43q-83 0 -135 1v-126q0 -50 -46 -50q-26 0 -35.5 12.5t-9.5 39.5v124l-137 2q-25 0 -36.5 11t-11.5 33q0 46 48 46q84 0 136 -1v118q0 47 47 47q25 0 35 -12t10 -35v-119q54 -1 138 -1q28 0 39 -11.5z" />
    <glyph glyph-name="comma" unicode="," horiz-adv-x="305" 
d="M219.5 144.5q27.5 -32.5 27.5 -89.5q0 -49 -19.5 -91t-54 -67t-76.5 -25q-40 0 -40 31q0 15 9 23t23 8q34 0 60 24t38 57q-19 -12 -47 -12q-35 0 -60.5 26t-25.5 61q0 36 26 61.5t64 25.5q48 0 75.5 -32.5zM166.5 66q9.5 9 9.5 24q0 14 -9.5 23t-24.5 9q-13 0 -22.5 -9
t-9.5 -23q0 -16 8.5 -24.5t23.5 -8.5t24.5 9z" />
    <glyph glyph-name="hyphen" unicode="-" horiz-adv-x="422" 
d="M51.5 335q-11.5 15 -11.5 37t12.5 35.5t32.5 13.5l108 -1q74 0 134 4q26 2 40.5 -12t14.5 -39q0 -21 -15 -35t-38 -16q-36 -2 -134 -2h-113q-19 0 -30.5 15z" />
    <glyph glyph-name="period" unicode="." horiz-adv-x="304" 
d="M97 22.5q-21 21.5 -21 53.5q0 34 22.5 56.5t54.5 22.5q29 0 52 -24t23 -55q0 -30 -23.5 -52.5t-54.5 -22.5q-32 0 -53 21.5z" />
    <glyph glyph-name="slash" unicode="/" horiz-adv-x="564" 
d="M117.5 3q-13.5 7 -22.5 23q-5 10 -5 19q0 14 6 30l271 799q8 28 46 28q18 0 34.5 -9.5t22.5 -23.5q4 -11 4 -21q0 -6 -5 -24l-270 -793q-6 -16 -17 -25.5t-25 -9.5q-26 0 -39.5 7z" />
    <glyph glyph-name="zero" unicode="0" horiz-adv-x="634" 
d="M165 54q-64 40 -99 109t-35 154q0 94 34.5 172t99.5 124t151 46q88 0 153 -45.5t99.5 -123.5t34.5 -173q0 -85 -36 -154.5t-101.5 -109t-151.5 -39.5q-85 0 -149 40zM434 167.5q45 57.5 45 149.5q0 67 -20.5 123.5t-57 89.5t-83.5 33t-84.5 -33t-58 -89.5t-20.5 -123.5
q0 -59 19.5 -106.5t55 -74t82.5 -26.5q77 0 122 57.5z" />
    <glyph glyph-name="one" unicode="1" horiz-adv-x="444" 
d="M341 52q0 -22 -17 -35.5t-45 -13.5q-27 0 -41 13t-14 36v446q-34 -42 -57 -67q-4 -5 -14 -8.5t-20 -3.5q-26 0 -40.5 13t-14.5 34q0 7 5 18t13 21q53 63 111 140q8 12 25 19.5t36 7.5q31 0 51.5 -16t20.5 -43z" />
    <glyph glyph-name="two" unicode="2" horiz-adv-x="558" 
d="M494 92.5q18 -13.5 18 -34.5q0 -22 -18 -36t-44 -14q-11 0 -55 2q-93 3 -120 3q-103 0 -174 -4q-26 0 -42.5 13.5t-12.5 34.5q12 71 67 136.5t161 138.5q105 76 105 163q0 49 -29.5 79.5t-77.5 30.5q-43 0 -71 -33t-30 -80q-1 -24 -15 -34t-45 -10q-57 0 -57 55
q0 54 29.5 99.5t81 72.5t115.5 27t115 -27t79.5 -74.5t28.5 -106.5q0 -133 -159 -242q-114 -77 -153 -144q30 1 84 1q49 0 175 -3q26 0 44 -13.5z" />
    <glyph glyph-name="three" unicode="3" horiz-adv-x="595" 
d="M537.5 295q25.5 -40 25.5 -98q0 -51 -30.5 -95.5t-85 -71.5t-123.5 -27q-140 0 -215.5 63t-75.5 189q0 28 16.5 43t45.5 15q58 0 58 -51q0 -80 41 -120.5t122 -40.5q53 0 91.5 25.5t38.5 69.5q0 111 -129 111q-25 0 -37 12.5t-12 33.5q0 25 11 38t37 13q58 0 84 22.5
t26 68.5q0 37 -26 64t-67 27q-45 0 -76 -28.5t-31 -70.5q0 -7 1 -16.5t3 -16.5q3 -19 -12 -34t-46 -15q-19 0 -34.5 7.5t-21.5 22.5q-7 16 -9 28t-2 30q0 53 30.5 96.5t82 68.5t113.5 25q59 0 109 -25t80 -68t30 -95q0 -48 -21.5 -83.5t-58.5 -54.5q42 -22 67.5 -62z" />
    <glyph glyph-name="four" unicode="4" horiz-adv-x="618" 
d="M584.5 281.5q13.5 -13.5 13.5 -38.5q0 -21 -9.5 -33.5t-36.5 -17.5q-25 -4 -82 -8l-6 -136q-1 -21 -17.5 -35t-44.5 -14q-29 0 -43 15t-13 39l5 128h-122q-91 0 -161 17q-45 12 -45 47q0 15 9 33q68 133 130.5 230t132.5 168q13 13 37 13t38.5 -14.5t14.5 -35.5t-25 -49
q-62 -67 -115.5 -149.5t-77.5 -140.5q-3 -6 -3 -9q0 -7 17 -10q34 -5 125 -5q33 0 49 1l8 197q1 22 15 35.5t42 13.5q30 0 46 -15.5t15 -39.5l-7 -184q25 2 77 8q20 3 33.5 -10.5z" />
    <glyph glyph-name="five" unicode="5" horiz-adv-x="584" 
d="M105.5 60.5q-64.5 60.5 -64.5 168.5q0 25 16.5 39t44.5 14q62 0 63 -48q1 -69 29 -101.5t91 -32.5q67 0 100 31t33 100q0 74 -33 112.5t-98 38.5q-27 0 -54 -4t-70 -16q-12 -3 -24 -3q-24 0 -40 13t-15 35q7 183 8 279q78 -3 216 -3q37 0 93 2l66 1q45 0 45 -48
q0 -23 -13 -36.5t-38 -13.5q-38 0 -60 -1l-93 -1l-97 1q-1 -25 -4 -106v-2q0 -13 11 -13q3 0 11 2q27 6 47.5 9t51.5 3q57 0 106.5 -31t79 -88t29.5 -131q0 -107 -69 -168.5t-189 -61.5q-115 0 -179.5 60.5z" />
    <glyph glyph-name="six" unicode="6" horiz-adv-x="605" 
d="M441 394.5q56 -29.5 86 -80t30 -112.5q0 -60 -31 -105t-88 -69.5t-131 -24.5q-134 0 -203.5 77.5t-69.5 227.5q0 111 35.5 195t101.5 129.5t155 45.5q137 0 217 -141q10 -16 10 -30q0 -20 -19 -34.5t-37 -14.5q-16 0 -25.5 7t-17 16t-10.5 13q-24 31 -39 47t-38 28
t-54 12q-66 0 -112.5 -58.5t-55.5 -170.5q28 32 73 52t93 20q74 0 130 -29.5zM404 128.5q32 28.5 32 76.5q0 52 -33 87t-91 35q-60 0 -97 -28.5t-37 -83.5t34 -85t99 -30q61 0 93 28.5z" />
    <glyph glyph-name="seven" unicode="7" horiz-adv-x="557" 
d="M507 373.5q15 -13.5 15 -35.5t-13.5 -36t-39.5 -14h-56q-29 -90 -95 -256q-6 -14 -23.5 -23t-37.5 -9q-27 0 -44.5 13t-17.5 33q0 8 5 20q26 59 82 220h-41q-54 0 -54 48q0 22 14 35.5t40 13.5h74q30 90 30 141q0 27 -8 41.5t-28 20.5t-58 6q-77 0 -177 -25q-5 -1 -14 -1
q-21 0 -34.5 13t-13.5 34q0 34 45 51q98 28 193 28q104 0 160 -40.5t56 -120.5q0 -51 -24 -145q7 1 22 1q28 0 43 -13.5z" />
    <glyph glyph-name="eight" unicode="8" horiz-adv-x="615" 
d="M583 226q0 -67 -34.5 -117.5t-96 -77.5t-141.5 -27q-81 0 -144.5 28t-99.5 79.5t-36 119.5q0 67 49 119.5t125 72.5q-34 14 -55.5 41.5t-21.5 64.5q0 47 24.5 83t66.5 55.5t92 19.5q78 0 128.5 -43.5t50.5 -113.5q0 -38 -18 -65.5t-48 -41.5q159 -46 159 -197zM265.5 573
q-19.5 -18 -19.5 -50q0 -31 19.5 -49t47.5 -18q29 0 46.5 19t17.5 49q0 31 -18 49t-46 18t-47.5 -18zM424 134q40 37 40 92q0 58 -43.5 95t-109.5 37q-47 0 -83.5 -18t-57 -47t-20.5 -61q0 -63 42.5 -99t120.5 -36q71 0 111 37z" />
    <glyph glyph-name="nine" unicode="9" horiz-adv-x="598" 
d="M444 648.5q63 -37.5 96.5 -107t33.5 -161.5q0 -115 -32.5 -200t-95.5 -131t-150 -46q-119 0 -191 52t-72 142q0 23 16 37.5t43 14.5q24 0 40.5 -13.5t16.5 -38.5q0 -48 39 -74t105 -26q72 0 118.5 59.5t57.5 175.5q-25 -38 -70 -62t-100 -24q-118 0 -184 57.5t-66 165.5
q0 61 32 110.5t88.5 78t126.5 28.5q85 0 148 -37.5zM393.5 371q38.5 35 38.5 91q0 55 -38.5 91.5t-97.5 36.5q-57 0 -92 -36t-35 -88q0 -64 31.5 -97t98.5 -33q56 0 94.5 35z" />
    <glyph glyph-name="colon" unicode=":" horiz-adv-x="315" 
d="M92.5 317q-23.5 24 -23.5 63q0 37 24.5 60t62.5 23t62 -23t24 -60q0 -39 -23.5 -63t-63.5 -24q-39 0 -62.5 24zM177.5 355q8.5 9 8.5 23q0 13 -10 21.5t-21 8.5t-20 -8.5t-9 -21.5q0 -15 9 -23.5t21 -8.5q13 0 21.5 9zM97.5 37q-24.5 25 -24.5 62q0 36 24 60.5t62 24.5
q37 0 62 -24.5t25 -60.5q0 -39 -24 -63t-63 -24q-37 0 -61.5 25zM181.5 74.5q7.5 8.5 7.5 21.5q0 11 -8.5 18.5t-20.5 7.5q-13 0 -21 -8t-8 -18q0 -13 8.5 -21.5t20.5 -8.5q14 0 21.5 8.5z" />
    <glyph glyph-name="semicolon" unicode=";" horiz-adv-x="353" 
d="M111.5 317q-23.5 24 -23.5 63q0 37 24.5 60t62.5 23t62.5 -23t24.5 -60q0 -39 -24 -63t-64 -24q-39 0 -62.5 24zM155 399.5q-9 -8.5 -9 -21.5q0 -15 8.5 -23.5t20.5 -8.5q13 0 21.5 9t8.5 23q0 13 -9.5 21.5t-20.5 8.5t-20 -8.5zM245.5 144.5q27.5 -32.5 27.5 -89.5
q0 -49 -19.5 -91t-54 -67t-76.5 -25q-40 0 -40 31q0 15 9 23t23 8q34 0 60 24t38 57q-19 -12 -47 -12q-35 0 -60.5 26t-25.5 61q0 36 26 61.5t64 25.5q48 0 75.5 -32.5zM192.5 66q9.5 9 9.5 24q0 14 -9.5 23t-24.5 9q-13 0 -22.5 -9t-9.5 -23q0 -16 8.5 -24.5t23.5 -8.5
t24.5 9z" />
    <glyph glyph-name="less" unicode="&#x3c;" horiz-adv-x="553" 
d="M396 113.5q-34 11.5 -156 59.5q-101 40 -147 71.5t-46 66.5q0 36 50.5 70.5t149.5 72.5q52 20 125 42t92 22q20 0 31.5 -13.5t11.5 -32.5q0 -18 -12 -29.5t-37 -19.5q-7 -2 -56.5 -15t-119.5 -38q-51 -18 -88 -35t-37 -26t86 -38l34 -12q129 -50 177 -65q21 -8 31 -19
t10 -29q0 -19 -14.5 -31.5t-35.5 -12.5q-15 0 -49 11.5z" />
    <glyph glyph-name="equal" unicode="=" horiz-adv-x="553" 
d="M60.5 358.5q-17.5 12.5 -17.5 32.5q0 22 20 35t53 13l324 3q28 0 48 -13.5t20 -34.5t-19.5 -33t-50.5 -12l-333 -3q-27 0 -44.5 12.5zM60.5 189q-17.5 13 -17.5 34q0 22 19 34t52 14l330 10q28 1 47 -12.5t19 -34.5t-18 -33.5t-49 -13.5l-338 -10q-27 -1 -44.5 12z" />
    <glyph glyph-name="greater" unicode="&#x3e;" horiz-adv-x="553" 
d="M76 112.5q-13 10.5 -13 29.5q0 37 36 52q82 32 178 67q101 37 101 50q0 7 -24.5 19.5t-79.5 34.5q-71 29 -123 43t-56 15q-25 7 -37 18.5t-12 30.5q0 20 13 31t33 11q22 0 94.5 -21t120.5 -39q102 -40 152 -73.5t50 -69.5q0 -35 -45.5 -65.5t-148.5 -72.5
q-97 -38 -143.5 -54.5t-61.5 -16.5q-21 0 -34 10.5z" />
    <glyph glyph-name="question" unicode="?" horiz-adv-x="542" 
d="M241.5 201q-11.5 13 -11.5 36q0 40 13.5 71t32 52.5t49.5 50.5q35 31 52.5 55t17.5 55q0 56 -33.5 91.5t-87.5 35.5q-66 0 -96.5 -27.5t-30.5 -81.5q0 -24 14 -41t35 -17q22 0 34.5 -12t12.5 -34q0 -18 -13.5 -29.5t-33.5 -11.5q-37 0 -68 19.5t-49.5 53t-18.5 72.5
q0 88 57 140t155 52q62 0 109.5 -28t74 -76t26.5 -106q0 -40 -13.5 -71t-32.5 -53t-49 -50q-36 -33 -53 -56.5t-17 -53.5q0 -22 -12.5 -35.5t-32.5 -13.5q-19 0 -30.5 13zM226 25q-20 20 -20 48q0 26 20 45.5t48 19.5q27 0 46.5 -19.5t19.5 -45.5q0 -28 -19 -48t-47 -20
t-48 20z" />
    <glyph glyph-name="at" unicode="@" horiz-adv-x="897" 
d="M614 282l-5 -29q-10 -61 -10 -93q0 -17 8 -29t26 -12q37 0 59 49t22 115q0 71 -28.5 126t-84.5 86.5t-135 31.5q-85 0 -149 -36t-99 -100.5t-35 -148.5q0 -80 32.5 -140.5t98 -94.5t159.5 -34q30 0 51.5 3.5t73.5 15.5q3 1 9 1q17 0 28.5 -12t11.5 -28q0 -13 -9 -22
t-30 -16q-29 -11 -68 -17t-79 -6q-114 0 -200 46.5t-132.5 127t-46.5 178.5q0 103 50 186t136 130.5t191 47.5q99 0 180.5 -43t128.5 -117.5t47 -164.5q0 -64 -23.5 -121t-64.5 -91t-92 -34q-35 0 -60.5 16.5t-36.5 42.5q-40 -38 -108 -38q-82 0 -123.5 54.5t-41.5 133.5
q0 56 21.5 99t60 66.5t87.5 23.5q66 0 105 -44v1q2 17 15.5 27t35.5 10q21 0 33.5 -10t12.5 -28q0 -4 -2 -16q-13 -51 -20 -93zM494.5 339.5q-24.5 21.5 -53.5 21.5q-32 0 -56 -30.5t-24 -83.5q0 -49 22 -80t59 -31q25 0 43.5 15t21.5 41q1 4 8 72l3 29q1 25 -23.5 46.5z
" />
    <glyph glyph-name="A" unicode="A" horiz-adv-x="695" 
d="M626 57q3 -9 3 -16q0 -25 -20.5 -38.5t-48.5 -13.5q-22 0 -38 9t-21 27l-38 138l-231 1q-7 -24 -13.5 -45.5t-11.5 -39.5l-15 -51q-6 -19 -21.5 -28.5t-36.5 -9.5q-28 0 -48.5 14t-20.5 37q0 5 2 17l142 426l35 107q21 65 46 93t65 28q39 0 62 -25t43 -87
q43 -130 101 -327h28q21 0 33 -14t12 -41q0 -56 -35 -56h-5zM432 275q-30 112 -52 186q-2 7 -4 12t-3 10q-8 28 -13 41t-10 13t-10 -13t-10 -32q-5 -20 -7 -26l-57 -190z" />
    <glyph glyph-name="B" unicode="B" horiz-adv-x="656" 
d="M64 97q10 17 32 16h11q11 116 11 270l-1 183q-6 -2 -7 -2q-14 -3 -24.5 9t-10.5 30q0 24 14.5 39.5t47.5 29.5q43 18 91.5 27t94.5 9q81 0 145 -23.5t100 -67.5t36 -105q0 -56 -40.5 -102.5t-115.5 -60.5q74 -17 110.5 -59.5t36.5 -96.5q0 -63 -34.5 -107t-93 -66.5
t-130.5 -22.5q-36 0 -82 2l-39 2q-15 -31 -60 -31q-42 0 -55 34l-8 1q-20 0 -29.5 15t-9.5 38q0 22 10 39zM318 102q156 0 156 98q0 99 -147 103q-34 1 -49.5 10t-15.5 39q0 28 16.5 39t46.5 11q66 2 112 21t46 81q0 49 -42 75.5t-121 26.5q-41 0 -82 -11q2 -82 2 -211
q0 -72 -3 -129.5t-11 -149.5q45 -3 92 -3z" />
    <glyph glyph-name="C" unicode="C" horiz-adv-x="733" 
d="M684 293.5q17 -15.5 17 -43.5q0 -71 -39 -129t-109 -91.5t-158 -33.5q-99 0 -177.5 40t-123 116.5t-44.5 180.5q0 107 43 194t116 137t160 50q117 0 181 -64v18q0 18 16 30.5t42 12.5q28 0 44 -14t16 -41l-1 -102q-1 -36 -15 -54.5t-45 -18.5q-34 0 -50 22
q-35 49 -70 74.5t-92 25.5t-108.5 -36t-83 -98t-31.5 -136q0 -69 31 -120.5t82.5 -78.5t111.5 -27q46 0 87 17t66.5 49.5t25.5 77.5q0 26 16 42t45 16q30 0 47 -15.5z" />
    <glyph glyph-name="D" unicode="D" horiz-adv-x="707" 
d="M547 596.5q109 -83.5 109 -234.5q0 -107 -54.5 -187.5t-156 -124.5t-236.5 -44h-67q-36 0 -52.5 12.5t-16.5 42.5q0 53 48 53h18l-13 479h-6q-22 0 -35 12.5t-13 39.5q0 30 14.5 43.5t37.5 13.5h12q14 17 49 17q38 0 52 -22q201 -17 310 -100.5zM400.5 154
q61.5 31 97.5 84.5t36 123.5q0 193 -285 225l12 -471q78 7 139.5 38z" />
    <glyph glyph-name="E" unicode="E" horiz-adv-x="618" 
d="M518 128q26 0 40 -15t14 -41q0 -23 -11 -35.5t-35 -17.5q-42 -9 -163 -9h-31q-59 0 -109 2.5t-121 11.5q-38 4 -38 51q0 22 9 37.5t26 16.5h12q13 83 13 185h-9q-43 0 -43 55q0 24 10 39.5t31 15.5h11v105v61q-32 11 -32 49q0 28 15 40.5t45 15.5q53 5 176 5
q129 0 197 -8q25 -3 39 -15t14 -38q0 -25 -13 -40.5t-35 -14.5q-94 8 -169 8q-69 0 -117 -3l3 -110l1 -57h37q76 -2 104 -2l77 -2q35 0 35 -53q0 -26 -10 -40.5t-29 -14.5q-31 0 -52 1l-126 1h-36q-3 -107 -14 -190q59 -4 115 -4q83 0 158 9z" />
    <glyph glyph-name="F" unicode="F" horiz-adv-x="614" 
d="M565.5 671.5q11.5 -13.5 11.5 -35.5q0 -25 -14 -40.5t-38 -12.5q-106 12 -189 12l-83 -1q6 -101 7 -185q18 1 58 1q55 0 92.5 -2t67.5 -8q46 -10 46 -54q0 -24 -12.5 -39.5t-40.5 -12.5q-84 7 -150 7q-42 0 -61 -1q-1 -134 -9 -247q-2 -23 -17.5 -36.5t-44.5 -13.5
t-46 14.5t-15 36.5q9 110 10 236q-7 -1 -16.5 -2.5t-16.5 -1.5q-18 0 -29.5 15.5t-11.5 39.5q0 26 14 38.5t39 16.5l21 3q-1 103 -8 190h-15q-28 0 -41 12t-13 42q0 27 11 39t33 14l16 2l-1 8q-2 22 15 35.5t48 13.5q55 0 61 -49v-4q31 1 95 1q58 0 111 -3.5t78 -8.5
q26 -6 37.5 -19.5z" />
    <glyph glyph-name="G" unicode="G" horiz-adv-x="760" 
d="M712.5 362q16.5 -14 16.5 -39t-16 -41t-44 -15h-6q-9 -128 -77 -197.5t-190 -69.5q-100 0 -179.5 46t-123.5 125.5t-44 176.5q0 96 43 174.5t118 123.5t166 45q73 0 123 -27.5t75 -63.5v23q0 18 15 31t41 13q27 0 41.5 -12t15.5 -31q2 -78 -13 -109q-8 -15 -23.5 -22
t-33.5 -7q-17 0 -30 6.5t-34 25.5q-33 29 -64.5 45.5t-84.5 16.5q-68 0 -121 -30t-82.5 -83t-29.5 -120t30 -121.5t80.5 -85t111.5 -30.5q137 0 152 158l-115 2q-30 1 -43.5 15.5t-13.5 38.5q0 27 16 42.5t44 14.5l231 -5q32 0 48.5 -14z" />
    <glyph glyph-name="H" unicode="H" horiz-adv-x="774" 
d="M696.5 360q14.5 -14 14.5 -42q0 -29 -14.5 -42t-34.5 -13h-11l6 -206q1 -27 -15.5 -43t-44.5 -16q-29 0 -45.5 15t-17.5 41l-6 211l-280 4l-19 -232q-3 -44 -60 -44q-31 0 -47.5 13.5t-15.5 39.5l18 225h-10q-22 0 -35 15t-13 41t14 40t37 14h16l23 289q2 25 19.5 39
t45.5 14q30 0 45 -17.5t13 -44.5l-23 -282l269 -3l-9 289q-1 25 15.5 41.5t45.5 16.5q28 0 45 -16t17 -39l9 -294h15q19 0 33.5 -14z" />
    <glyph glyph-name="I" unicode="I" horiz-adv-x="486" 
d="M449 59q0 -56 -55 -56l-301 4q-27 1 -39 17t-12 38q0 28 15 42t36 14l93 -1q14 227 16 482l-83 -6q-24 -3 -35 -3q-22 0 -34.5 15t-12.5 41q0 27 13 39.5t36 15.5q19 3 79 6t119 3q54 0 116 -6q24 -2 36.5 -16t12.5 -38q0 -25 -13 -40t-41 -14q-26 2 -71 3
q-2 -291 -15 -484l86 -1q54 -1 54 -55z" />
    <glyph glyph-name="J" unicode="J" horiz-adv-x="622" 
d="M579 648q0 -24 -13 -39t-40 -15h-36q-1 -42 -1 -116l1 -211q0 -126 -61 -197t-170 -71q-105 0 -165 66.5t-60 192.5q0 63 63 63q30 0 45 -16t15 -44q2 -72 25 -111.5t74 -39.5q48 0 78 39t30 119q0 202 4 326h-50q-29 0 -42 12.5t-13 40.5q0 25 11 38.5t28 14.5
q66 3 122 3q63 0 103 -2q52 -3 52 -53z" />
    <glyph glyph-name="K" unicode="K" horiz-adv-x="641" 
d="M527 555.5q-37 -24.5 -73 -47.5l-46 -30q-42 -28 -136 -87l-31 -20q38 -31 100 -85l54 -46q23 -20 37 -30q74 -62 134 -108q24 -20 24 -45t-17.5 -42.5t-43.5 -17.5q-20 0 -37 12q-68 56 -164 139q-65 56 -130 117l-1 -55q-3 -79 -3 -150q0 -28 -16.5 -44.5t-44.5 -16.5
q-32 0 -46.5 13.5t-14.5 45.5q0 44 2 136q3 77 3 168q0 60 -2 152l-1 132q0 24 17.5 39t45.5 15t44.5 -16t16.5 -41l1 -177l136 96l48 34q71 51 125 91q17 12 39 12q28 0 44.5 -16t16.5 -42q0 -25 -19 -41q-25 -20 -62 -44.5z" />
    <glyph glyph-name="L" unicode="L" horiz-adv-x="562" 
d="M133 18q-44 20 -58.5 67.5t-14.5 146.5q0 113 10.5 210t30.5 217q3 20 20 32.5t45 12.5t42.5 -14t14.5 -37q0 -11 -1 -16q-23 -140 -33.5 -225t-10.5 -183q0 -54 5.5 -79.5t22 -35.5t52.5 -10q74 0 215 27q4 1 13 1q23 0 35.5 -16t12.5 -39q0 -44 -65 -57
q-55 -11 -99 -16.5t-98 -5.5q-95 0 -139 20z" />
    <glyph glyph-name="M" unicode="M" horiz-adv-x="805" 
d="M730 193q2 -90 2 -140q0 -28 -16 -44t-45 -16t-45.5 16t-16.5 41q-1 95 -1 276q0 119 -7.5 179t-20.5 60q-19 0 -67 -129q-19 -52 -43 -155q-11 -45 -67 -45q-29 0 -45.5 10.5t-23.5 31.5l-11 41q-24 88 -35 118q-16 42 -37 85t-29 43q-21 0 -25 -234q-1 -34 -1 -94
l1 -189q0 -23 -17 -36.5t-47 -13.5t-45 15.5t-15 50.5q0 48 2 136l1 133q0 201 30.5 290.5t98.5 89.5q55 0 93.5 -49t59.5 -110.5t43 -150.5q32 128 79 219t124 91q48 0 75 -44t37.5 -127t11.5 -212q0 -49 2 -137z" />
    <glyph glyph-name="N" unicode="N" horiz-adv-x="752" 
d="M679 649q0 -98 -1 -144l-1 -156q0 -142 -8 -213t-28 -98t-60 -27q-34 0 -65.5 26t-71.5 81.5t-111 169.5l-12 19q-81 133 -125 199q2 -94 2 -174l1 -271q0 -22 -17.5 -37t-44.5 -15t-44.5 14.5t-17.5 37.5v275l-1 123q-1 36 -1 101q0 57 6 88t21.5 45t44.5 14
q34 0 63.5 -25t66 -78t116.5 -181l85 -135q51 -82 75 -116q3 117 3 178l1 311q0 24 15.5 38.5t46.5 14.5q62 0 62 -65z" />
    <glyph glyph-name="O" unicode="O" horiz-adv-x="805" 
d="M217 46.5q-78 39.5 -122 116t-44 182.5q0 105 43 187.5t120.5 129t177.5 46.5q102 0 184.5 -48t130 -132t47.5 -187t-47 -178.5t-128 -115.5t-183 -40q-101 0 -179 39.5zM516.5 142.5q52.5 25.5 84 77t31.5 126.5q0 73 -29.5 130.5t-83 89.5t-122.5 32
q-68 0 -118.5 -31.5t-78 -88t-27.5 -128.5q0 -78 31 -130.5t83 -77.5t114 -25q63 0 115.5 25.5z" />
    <glyph glyph-name="P" unicode="P" horiz-adv-x="659" 
d="M477.5 670.5q66.5 -29.5 105.5 -82.5t39 -121q0 -64 -34.5 -114t-94.5 -78t-135 -28q-37 0 -71 6.5t-57 15.5l-3 -221q0 -25 -17 -40.5t-46 -15.5t-45.5 15.5t-16.5 41.5t2 94q2 90 2 159q0 128 -5 226l-3 -2q-10 -5 -17 -5q-16 0 -26.5 17t-10.5 40q0 17 10.5 27.5
t32.5 24.5l11 6v14q0 30 15.5 44.5t48.5 14.5t46.5 -7t13.5 -16v-1q57 15 110 15q79 0 145.5 -29.5zM442 383q41 35 41 88q0 54 -44 87.5t-110 33.5q-43 0 -105 -18q2 -50 2 -61q0 -39 2 -99q2 -30 2 -43q20 -10 50 -16.5t57 -6.5q64 0 105 35z" />
    <glyph glyph-name="Q" unicode="Q" horiz-adv-x="796" 
d="M715 117q19 -19 19 -41q0 -26 -19 -45.5t-45 -19.5q-23 0 -44 18l-40 40q-89 -57 -204 -57q-98 0 -173 43t-116.5 119.5t-41.5 174.5q0 105 46 188t124.5 129t171.5 46q94 0 174.5 -46.5t128.5 -127.5t48 -179q0 -117 -67 -206zM500 153l-52 51q-17 17 -17 34
q0 23 23 45.5t47 22.5q14 0 27 -10l60 -58q33 55 33 125q0 66 -29.5 121t-81 86.5t-114.5 31.5q-61 0 -111.5 -30.5t-80.5 -87t-30 -129.5q0 -71 27.5 -123.5t75 -81t106.5 -28.5q61 0 117 31z" />
    <glyph glyph-name="R" unicode="R" horiz-adv-x="675" 
d="M610 71q0 -25 -15.5 -43t-40.5 -18q-13 0 -27 4.5t-22 10.5l-282 176q-1 -53 -1 -152q0 -25 -15.5 -40t-43.5 -15q-31 0 -47 17t-16 46q0 153 -2 320q0 59 -2 137l-6 -2q-6 -2 -9 -2q-37 0 -37 62q0 20 13.5 34t37.5 27v15q0 55 70 55q46 0 48 -20v-4q74 22 121 22
q88 0 153 -27.5t100 -76.5t35 -113q0 -67 -38.5 -114.5t-104.5 -71.5t-148 -24h-18l266 -157q31 -17 31 -46zM219 566q4 -108 4 -189q36 -7 98 -7q77 0 120.5 29.5t43.5 81.5q0 49 -40 79t-108 30q-55 0 -118 -24z" />
    <glyph glyph-name="S" unicode="S" horiz-adv-x="605" 
d="M181.5 31q-57.5 31 -88.5 81.5t-31 109.5q0 31 16 45.5t43 14.5q62 0 64 -51q2 -58 39.5 -89.5t88.5 -31.5q45 0 78 20.5t33 60.5q0 30 -20 50t-49 32t-75 25q-60 17 -102.5 35t-80 59.5t-37.5 107.5q0 60 32 107.5t87 74t120 26.5q68 0 123.5 -28.5t87 -75.5t31.5 -100
q0 -31 -15.5 -44t-45.5 -13q-28 0 -41 13t-19 41q-6 40 -37.5 69t-83.5 29q-50 0 -83.5 -28t-33.5 -73q0 -27 17 -43t42 -25.5t91 -29.5q53 -16 98 -37.5t80.5 -63.5t35.5 -106q0 -57 -31 -101t-84.5 -68t-117.5 -24q-74 0 -131.5 31z" />
    <glyph glyph-name="T" unicode="T" horiz-adv-x="580" 
d="M533.5 675.5q14.5 -12.5 14.5 -40.5q0 -29 -16.5 -43t-46.5 -12q-83 5 -132 6q-8 -103 -13 -248q-4 -164 -4 -290q0 -32 -12.5 -45t-47.5 -13q-36 0 -52 14t-16 48q0 121 8 286l8 145q1 41 5 102q-41 -1 -109 -6l-24 -2l-10 -1q-25 0 -39.5 16t-14.5 42q0 45 49 52
q78 11 222 11q130 0 191 -6q25 -3 39.5 -15.5z" />
    <glyph glyph-name="U" unicode="U" horiz-adv-x="692" 
d="M618 366q2 -158 2 -306q0 -33 -15.5 -48t-46.5 -15t-46 14t-15 46v39q-28 -42 -78 -68.5t-115 -26.5q-75 0 -127.5 34t-79 93t-26.5 134q0 133 3 263l3 125q1 24 16.5 38.5t45.5 14.5q60 0 60 -53q0 -76 -2 -192t-2 -196q0 -71 35 -110.5t92 -39.5q43 0 83.5 29t65 76.5
t24.5 101.5l-1 336q0 54 57 54q30 0 46.5 -14t16.5 -41q0 -104 3 -227q0 -39 1 -61z" />
    <glyph glyph-name="V" unicode="V" horiz-adv-x="656" 
d="M273.5 14q-27.5 15 -40.5 41q-14 26 -43.5 112t-63.5 200q-3 13 -30 104q-25 92 -50 172q-3 9 -3 15q0 23 19.5 37t45.5 14q43 0 53 -30q26 -84 56 -191l27 -97q40 -141 57.5 -189t30.5 -48q14 1 31 50.5t52 186.5q41 163 76 287q10 30 52 30q31 0 50 -12.5t19 -37.5
q0 -13 -2 -20q-11 -43 -59 -213q-12 -44 -16 -56q-31 -110 -59.5 -199t-39.5 -113q-13 -27 -41 -42.5t-61 -15.5t-60.5 15z" />
    <glyph glyph-name="W" unicode="W" horiz-adv-x="861" 
d="M228.5 15q-22.5 14 -28.5 36q-14 58 -24 102q-26 121 -56 225q-36 133 -35 128l-34 124q-3 9 -3 19q0 25 19.5 40.5t49.5 15.5q21 0 34 -9t19 -31l25 -94q31 -113 43 -166l20 -93q11 -52 21 -95t14 -43q3 0 12 21t19 49q5 13 11 30.5t15 39.5q3 7 18.5 46t31 56t32.5 17
q24 0 42 -27.5t48 -96.5q30 -75 43.5 -104.5t18.5 -29.5q3 0 11 37.5t16 83.5l21 108l8 37q26 128 48 224q9 39 57 39q29 0 48.5 -15t19.5 -40q0 -7 -3 -16q-25 -95 -61 -254q-9 -41 -44 -209q-2 -11 -23 -113q-6 -26 -25.5 -40t-50.5 -14q-33 0 -58 22t-52 75
q-16 31 -30 66q-10 23 -19 41t-12 18q-4 0 -24 -54q-19 -51 -30 -75q-25 -53 -48.5 -74t-53.5 -21q-28 0 -50.5 14z" />
    <glyph glyph-name="X" unicode="X" horiz-adv-x="677" 
d="M593 92q20 -24 20 -38q0 -24 -20.5 -43t-47.5 -19q-14 0 -22 5.5t-17 16.5l-170 227l-156 -208q-13 -17 -27 -25t-33 -8q-27 0 -45.5 17t-18.5 38q0 14 3.5 21t12.5 18l191 246q-130 177 -198 271q-12 17 -12 29q0 25 20.5 42.5t50.5 17.5q16 0 26.5 -9.5t25.5 -29.5
q76 -103 162 -222q85 112 175 232q13 16 20 22.5t19 6.5q28 0 50.5 -18.5t22.5 -36.5t-13 -36l-201 -269z" />
    <glyph glyph-name="Y" unicode="Y" horiz-adv-x="655" 
d="M285 17.5q-16 15.5 -16 41.5l-3 272q-18 3 -53.5 39.5t-62.5 77.5q-44 68 -91 183q-2 8 -2 15q0 21 20.5 38t48.5 17q20 0 34 -11.5t25 -34.5q21 -45 38.5 -81t39.5 -73q47 -78 67 -78t64 78q56 105 80 158q11 22 22 31t33 9q31 0 51 -14.5t20 -38.5q0 -6 -5 -24
q-16 -39 -43 -92.5t-47 -85.5q-28 -44 -64 -77.5t-53 -35.5l3 -269q0 -28 -15.5 -44t-44.5 -16q-30 0 -46 15.5z" />
    <glyph glyph-name="Z" unicode="Z" horiz-adv-x="698" 
d="M339 26q-36 0 -66 -1t-49 -2l-77 -2q-51 0 -78.5 7.5t-27.5 35.5q0 29 37 74t128 138q78 81 118 123l113 121q44 45 60 64q-103 -9 -144 -9q-56 0 -121.5 5.5t-98.5 13.5q-31 7 -44.5 20.5t-13.5 34.5q0 24 14.5 39t42.5 15q15 0 71 -6q80 -12 155 -12q35 0 72 2.5
t86 6.5q35 2 51 4t35 -3t32 -14q26 -18 26 -49q0 -32 -43 -83.5t-132 -141.5q-15 -16 -28 -29t-23 -24q-127 -131 -153 -159l-65 -67q9 1 24 1q79 6 151 6q53 0 89.5 -2.5t95.5 -10.5q26 -3 40 -16.5t14 -35.5q0 -25 -16 -41t-39 -15q-156 12 -236 12z" />
    <glyph glyph-name="bracketleft" unicode="[" horiz-adv-x="363" 
d="M65 -161q5 99 5 251q0 131 -1 206q-2 143 -5.5 228.5t-13.5 221.5q61 5 214 5q20 0 32.5 -14.5t12.5 -32.5q0 -23 -12 -36t-36 -13h-45q-36 0 -61 -1q0 -9 2 -55q6 -183 6 -300q0 -145 1 -193v-76q0 -39 -2 -105h42h71q38 0 38 -47q0 -20 -12.5 -31.5t-34.5 -13.5
q-34 -3 -101 -3q-31 0 -100 9z" />
    <glyph glyph-name="backslash" unicode="\" horiz-adv-x="485" 
d="M344.5 9q-11.5 9 -17.5 26l-272 800q-6 14 -6 23q0 8 5 21q6 15 23 24.5t35 9.5q37 0 47 -30l272 -804q6 -16 6 -30q0 -11 -4 -18q-9 -16 -23.5 -23.5t-39.5 -7.5q-14 0 -25.5 9z" />
    <glyph glyph-name="bracketright" unicode="]" horiz-adv-x="363" 
d="M159 -169q-48 0 -68 2q-41 5 -41 45q0 47 38 47h66h47q-2 47 -2 162v212q0 159 6 287l2 76q-17 -1 -30 -0.5t-23 0.5q-13 1 -44 1q-26 0 -41 11t-15 33q0 19 9 31.5t28 12.5q161 0 221 -5q-10 -145 -13.5 -230t-3.5 -220q0 -245 2 -457q-70 -8 -99 -8h-39z" />
    <glyph glyph-name="asciicircum" unicode="^" horiz-adv-x="610" 
d="M79.5 227q-13.5 15 -8.5 31q64 216 122.5 329.5t112.5 113.5q58 0 113.5 -106t118.5 -326q2 -10 2 -14q0 -18 -14.5 -30.5t-35.5 -12.5q-15 0 -26.5 7.5t-15.5 19.5q-29 111 -73.5 233t-67.5 122t-69.5 -122t-75.5 -234q-3 -12 -16 -19t-31 -7q-22 0 -35.5 15z" />
    <glyph glyph-name="underscore" unicode="_" horiz-adv-x="567" 
d="M4.5 -146q-14.5 14 -14.5 36q0 21 14.5 35t36.5 14q300 -3 488 -3q21 0 34.5 -13t13.5 -34q0 -23 -12.5 -38.5t-33.5 -15.5q-125 0 -257 3q-168 2 -233 2q-22 0 -36.5 14z" />
    <glyph glyph-name="grave" unicode="`" horiz-adv-x="314" 
d="M212 504l-175 174q-18 15 -18 36q0 18 14.5 33t33.5 15q20 0 37 -19l46 -47q81 -81 130 -127q15 -12 15 -34q0 -18 -14.5 -31.5t-33.5 -13.5t-35 14z" />
    <glyph glyph-name="a" unicode="a" horiz-adv-x="617" 
d="M561.5 83.5q9.5 -9.5 9.5 -33.5q0 -21 -11 -35t-29 -14q-43 0 -65 11t-39 41q-42 -63 -152 -63q-115 0 -172 67.5t-57 177.5q0 73 29.5 132t84.5 93t127 34q41 0 74 -16.5t50 -43.5l3 21q1 14 13 24t38 10q30 0 43.5 -14t10.5 -35q-6 -32 -13 -113q-3 -40 -3 -103v-47
q0 -42 5 -60.5t27 -20.5q17 -3 26.5 -12.5zM386 303q0 46 -29.5 71t-67.5 25q-55 0 -88 -48t-33 -115q0 -65 29 -108t85 -43q46 0 74 24t29 69q1 43 1 125z" />
    <glyph glyph-name="b" unicode="b" horiz-adv-x="636" 
d="M464 479.5q58 -31.5 91.5 -89.5t33.5 -136q0 -79 -34.5 -137t-93.5 -88.5t-131 -30.5q-49 1 -98.5 22.5t-67.5 45.5q-10 -17 -25.5 -31.5t-27.5 -19.5q-12 -6 -26 -6q-23 0 -39 17t-16 37q0 15 15 30q4 4 11.5 11t10.5 14q6 15 6 61q0 40 -1 70l-2 131q0 41 -1 61
q-2 272 -6 380q-1 23 17.5 36.5t44.5 13.5q25 0 42 -12t18 -33q2 -42 3 -105.5t2 -106.5q0 -41 2 -153q21 22 57.5 36t85.5 14q71 0 129 -31.5zM427 137q40 43 40 120q0 76 -39 117.5t-104 41.5q-45 0 -79 -21t-50 -46v-73q0 -51 3 -88q1 -24 20 -46t48.5 -35t62.5 -13
q58 0 98 43z" />
    <glyph glyph-name="c" unicode="c" horiz-adv-x="595" 
d="M164.5 31.5q-57.5 31.5 -88.5 87t-31 126.5q0 74 32.5 135.5t92 97.5t136.5 36q82 0 142.5 -40t85.5 -100q6 -15 6 -27q0 -28 -39 -38q-10 -3 -20 -3q-17 0 -28 9.5t-23 29.5q-17 32 -46 53t-71 21q-43 0 -76 -23.5t-51.5 -63.5t-18.5 -88q0 -68 36.5 -108.5t106.5 -40.5
q66 0 99.5 34.5t34.5 78.5q0 15 14 26t37 11q28 0 43 -11t15 -38q0 -48 -26.5 -93t-83.5 -74t-145 -29q-76 0 -133.5 31.5z" />
    <glyph glyph-name="d" unicode="d" horiz-adv-x="633" 
d="M174 23q-60 31 -94 90t-34 141q0 79 32.5 137t92 89.5t138.5 31.5q84 0 135 -40q8 244 15 338q1 21 17.5 33.5t42.5 12.5q28 0 46 -14.5t15 -37.5q-6 -59 -11.5 -233t-5.5 -307q0 -126 5 -145q7 -29 29 -51q5 -7 5 -18q0 -22 -20 -39.5t-44 -17.5q-20 0 -36 10
q-15 11 -26.5 25.5t-18.5 38.5q-25 -34 -62.5 -54.5t-84.5 -20.5q-76 0 -136 31zM374.5 107.5q30.5 16.5 49 44.5t18.5 58v150q-12 20 -50.5 38t-78.5 18q-68 0 -106.5 -43.5t-38.5 -120.5q0 -51 19.5 -87.5t52 -55t70.5 -18.5q34 0 64.5 16.5z" />
    <glyph glyph-name="e" unicode="e" horiz-adv-x="604" 
d="M169.5 26.5q-61.5 34.5 -92.5 94t-31 133.5t34.5 133.5t95 93t136.5 33.5q69 0 124 -27t87 -77t32 -116q0 -39 -12.5 -55.5t-46.5 -16.5l-343 -3q0 -28 19 -58t56 -50.5t87 -20.5q34 0 57.5 8.5t38.5 20.5t35 33q15 15 33 15q19 0 36.5 -15t17.5 -34q0 -14 -11 -31
q-24 -36 -72.5 -65.5t-130.5 -29.5q-88 0 -149.5 34.5zM442 302q8 0 10.5 3t2.5 11q0 46 -41 76t-102 30q-47 0 -83.5 -20.5t-56 -50t-19.5 -52.5z" />
    <glyph glyph-name="f" unicode="f" horiz-adv-x="415" 
d="M387.5 699q40.5 -41 40.5 -114q0 -33 -14.5 -48.5t-45.5 -15.5q-30 0 -44.5 13t-16.5 39q0 3 -0.5 24.5t-9.5 33t-27 11.5q-17 0 -26 -11t-12.5 -35t-4.5 -70v-106h62q42 0 42 -47q0 -44 -43 -44l-60 -1l3 -165q2 -80 2 -112q0 -24 -17 -37.5t-43 -13.5q-27 0 -43 13.5
t-17 35.5l-5 276q-11 -1 -35 -1q-29 0 -41 12t-12 36q0 22 10 34.5t38 12.5q24 0 38 1l-1 111q0 99 43 154t125 55q74 0 114.5 -41z" />
    <glyph glyph-name="g" unicode="g" horiz-adv-x="591" 
d="M545 75.5q5 -44.5 5 -74.5q0 -71 -31 -128.5t-87.5 -90t-130.5 -32.5q-58 0 -106.5 22t-77 59.5t-28.5 81.5q0 24 14 35t43 11q39 0 45 -33q15 -77 107 -77q63 0 97 38.5t34 116.5q0 21 -3 45q-23 -22 -60 -36t-83 -14q-71 0 -126 33.5t-85 91t-30 126.5q0 71 30.5 129.5
t85.5 92t126 33.5q72 0 113 -35q7 20 17 37q11 22 40 22q23 0 44 -12.5t22 -32.5q0 -2 -2 -12q-6 -16 -19 -60q19 -126 34 -240q7 -52 12 -96.5zM369 115q35 20 43 45q-12 101 -29 203q-9 17 -33.5 31t-55.5 14q-57 0 -94 -46t-37 -114q0 -64 34 -108.5t98 -44.5q39 0 74 20
z" />
    <glyph glyph-name="h" unicode="h" horiz-adv-x="575" 
d="M535 49q0 -21 -17 -33.5t-43 -12.5q-27 0 -44.5 13.5t-17.5 38.5q0 123 -3.5 198t-13.5 114q-15 56 -66 56q-63 0 -94 -48.5t-31 -120.5v-208q0 -18 -18 -30.5t-43 -12.5t-42.5 12.5t-17.5 31.5q0 197 5 385q4 119 12 264l2 39q2 23 18 37t43 14q26 0 41.5 -12.5
t14.5 -33.5l-14 -257l-1 -21q24 26 60.5 42t84.5 16q67 0 105.5 -34t55.5 -106q24 -96 24 -331z" />
    <glyph glyph-name="i" unicode="i" horiz-adv-x="327" 
d="M110 559.5q-23 22.5 -23 57.5t23 57.5t60 22.5q35 0 58 -22.5t23 -56.5q0 -35 -23 -58t-59 -23t-59 22.5zM109.5 19.5q-17.5 13.5 -16.5 36.5l8 388q1 24 18 37t44 13q28 0 45.5 -13.5t16.5 -38.5l-8 -386q-1 -23 -18.5 -36.5t-44.5 -13.5t-44.5 13.5z" />
    <glyph glyph-name="j" unicode="j" horiz-adv-x="362" 
d="M151.5 563.5q-24.5 23.5 -24.5 55.5t23.5 54.5t59.5 22.5q35 0 58.5 -22t23.5 -56t-24 -56t-57 -22q-35 0 -59.5 23.5zM-34.5 -194.5q-45.5 41.5 -45.5 107.5q0 30 13 43.5t43 13.5q54 0 57 -45q4 -36 14 -50.5t29 -14.5q32 0 47 38.5t16 126.5q5 247 5 432q0 18 17 30
t44 12t43 -12t16 -33q0 -230 -4 -429q-4 -131 -48 -196t-130 -65q-71 0 -116.5 41.5z" />
    <glyph glyph-name="k" unicode="k" horiz-adv-x="536" 
d="M88.5 5.5q-17.5 12.5 -17.5 31.5v661q0 24 16.5 37.5t43.5 13.5t44.5 -14t17.5 -37l-2 -305q129 79 226 137q16 10 33 10q19 0 34 -18.5t15 -41.5q0 -13 -7 -21t-23 -18l-258 -156l265 -197q15 -11 15 -33q0 -23 -17 -38.5t-39 -15.5q-21 0 -44 16q-27 20 -101 80
q-19 15 -43.5 34.5t-55.5 43.5v-137q0 -20 -16.5 -32.5t-42.5 -12.5t-43.5 12.5z" />
    <glyph glyph-name="l" unicode="l" horiz-adv-x="264" 
d="M87.5 23.5q-16.5 14.5 -16.5 37.5l-6 678q0 24 17.5 38.5t45.5 14.5q27 0 43.5 -14t16.5 -38l5 -679q0 -24 -18 -38t-44 -14q-27 0 -43.5 14.5z" />
    <glyph glyph-name="m" unicode="m" horiz-adv-x="795" 
d="M736 265l-1 -219q0 -20 -15.5 -33t-40.5 -13q-27 0 -44 13t-17 36v211q0 83 -15.5 119.5t-52.5 36.5q-32 0 -51 -42.5t-20 -113.5v-72v-139q0 -47 -57 -47q-61 0 -61 49l1 209q-1 71 -20 111t-54 40q-25 0 -46.5 -30t-33.5 -90q-8 -39 -8 -89l1 -90v-70
q0 -20 -17.5 -30.5t-42.5 -10.5q-23 1 -39 12t-16 30l-1 323q0 24 -4 35t-13 21q-2 2 -6.5 6t-6.5 8t-2 9q0 23 17 37t37 14q19 0 41 -28q18 -25 18 -52v-7q18 42 49.5 68t78.5 26q50 0 79.5 -22.5t44.5 -63.5q20 43 56.5 66t86.5 23q175 0 175 -241z" />
    <glyph glyph-name="n" unicode="n" horiz-adv-x="567" 
d="M465 449.5q47 -60.5 47 -180.5l-1 -229q0 -20 -17 -30t-43 -10t-44 9t-18 27v234q0 77 -17 110.5t-57 33.5q-38 0 -61 -31.5t-36 -103.5q-7 -44 -7 -100l1 -135q0 -22 -16.5 -33.5t-44.5 -11.5t-44.5 12t-16.5 33q0 168 -7 332q0 16 -5 28t-11.5 22t-8.5 14q-6 8 -6 19
q0 18 21.5 34t40.5 16q10 0 19 -6t20 -21q24 -32 24 -60v-8q18 41 55.5 68.5t99.5 27.5q86 0 133 -60.5z" />
    <glyph glyph-name="o" unicode="o" horiz-adv-x="602" 
d="M106.5 62q-74.5 64 -74.5 187q0 79 32 139.5t92 94.5t141 34q80 0 142.5 -34t97 -95.5t34.5 -142.5q0 -119 -73 -183t-195 -64t-196.5 64zM408.5 131.5q39.5 38.5 39.5 114.5t-39 126t-108 50q-67 0 -107 -47t-40 -126t40.5 -117.5t106.5 -38.5q68 0 107.5 38.5z" />
    <glyph glyph-name="p" unicode="p" horiz-adv-x="626" 
d="M463 482q56 -31 88 -89.5t32 -138.5t-31.5 -138t-88 -89t-130.5 -31q-47 0 -88.5 11.5t-61.5 23.5l-4 -208q0 -21 -17.5 -34t-44.5 -13q-29 0 -45 14t-14 38q5 85 6 231l1 80q2 116 2 205q0 27 -5.5 43t-16.5 29q-8 9 -11 14t-3 13q0 20 22 38.5t44 18.5q12 0 25 -9
q9 -7 19.5 -22t19.5 -32q24 32 68 54t107 22q71 0 127 -31zM423 135q38 43 38 122q0 77 -36 117.5t-97 40.5q-40 0 -71.5 -17t-49 -40.5t-17.5 -41.5l-2 -181q4 -8 25 -18t50.5 -17.5t57.5 -7.5q64 0 102 43z" />
    <glyph glyph-name="q" unicode="q" horiz-adv-x="644" 
d="M591 411q-4 -6 -15 -23t-21 -37q-5 -154 -5 -320l-1 -105q-2 -72 -2 -117q0 -20 -16.5 -33t-45.5 -13q-27 0 -43 12t-16 31q0 47 2 195v35q-48 -41 -127 -41q-75 0 -134.5 31.5t-93 90t-33.5 136.5q0 79 35 138t94 90t128 31q65 0 112.5 -26t68.5 -64q6 15 21 38
q11 17 19.5 24.5t23.5 7.5q23 0 41.5 -14.5t18.5 -35.5q0 -12 -11 -31zM436 307q-2 26 -20.5 51.5t-49.5 41.5t-67 16q-58 0 -97.5 -43.5t-39.5 -120.5q0 -76 39 -118t105 -42q42 0 78 18t48 38z" />
    <glyph glyph-name="r" unicode="r" horiz-adv-x="515" 
d="M430 476q41 -41 41 -105q0 -62 -39.5 -96t-101.5 -34q-30 0 -42 9.5t-12 30.5q0 20 8.5 28.5t24.5 10.5q61 7 61 54q0 22 -11.5 36t-33.5 14q-31 0 -56.5 -31.5t-41 -75.5t-19.5 -79q-6 -61 -6 -162q0 -50 -13 -67.5t-46 -17.5q-32 0 -47 13t-16 41v172q0 55 -2.5 98
t-8.5 104l-6 62q-2 22 14 35.5t44 13.5q47 0 51 -44q2 -35 4 -86q19 52 58 84.5t93 32.5q62 0 103 -41z" />
    <glyph glyph-name="s" unicode="s" horiz-adv-x="498" 
d="M128 25q-52 33 -76 86q-7 17 -6 26q2 18 20 33t39 15q14 0 22 -6.5t18 -18.5q28 -36 50 -52.5t55 -16.5q31 0 52.5 14t21.5 37q0 25 -23.5 38.5t-75.5 31.5q-53 18 -85.5 34t-56 46.5t-23.5 77.5q0 46 26 81t70.5 54t97.5 19q56 0 97.5 -21t63.5 -55.5t22 -74.5
q0 -25 -12.5 -37t-41.5 -12q-28 0 -37.5 9t-12.5 25q-7 67 -79 67q-36 0 -54 -15.5t-18 -36.5q0 -25 24 -39t77 -32q51 -16 84 -32t56.5 -46t23.5 -77q0 -53 -29.5 -87.5t-75 -51t-93.5 -16.5q-69 0 -121 33z" />
    <glyph glyph-name="t" unicode="t" horiz-adv-x="443" 
d="M393.5 175q12.5 -12 12.5 -38q0 -61 -39.5 -99.5t-100.5 -38.5q-83 0 -120.5 68.5t-37.5 217.5q0 31 2 85l-36 2q-48 2 -48 47q0 25 13 36.5t43 10.5l36 -2q7 71 23 163q8 43 59 43q31 0 47.5 -16t12.5 -38q-16 -108 -21 -158l61 -1q44 -1 44 -45q0 -23 -12 -34t-41 -11
h-60q-2 -52 -2 -82q0 -106 10 -148t35 -42q16 0 23 11.5t8 38.5q1 22 12 32t36 10q28 0 40.5 -12z" />
    <glyph glyph-name="u" unicode="u" horiz-adv-x="564" 
d="M484.5 95q5.5 -18 12.5 -29.5t7 -14.5q0 -20 -16 -34.5t-40 -14.5q-20 0 -41 23t-25 48q-39 -74 -140 -74q-87 0 -133.5 60.5t-46.5 161.5v240q0 19 17 31.5t43 12.5q25 0 43 -12.5t18 -31.5v-239q0 -57 18 -92.5t57 -35.5q49 0 72 45.5t23 141.5v179q0 24 16.5 37
t43.5 13q28 0 45.5 -13.5t17.5 -36.5l3 -318q0 -29 5.5 -47z" />
    <glyph glyph-name="v" unicode="v" horiz-adv-x="538" 
d="M178.5 57q-40.5 55 -77.5 161q-24 65 -41 133.5t-17 97.5q0 26 17 40.5t44 14.5q24 0 40.5 -12t20.5 -34q14 -99 40 -189q16 -54 34 -96t25 -42q9 0 30.5 45.5t35.5 94.5q22 77 30 114t12 76q3 21 19.5 34.5t42.5 13.5q27 0 43.5 -15t16.5 -42q0 -30 -16.5 -94.5
t-43.5 -136.5q-41 -108 -82 -163.5t-87 -55.5t-86.5 55z" />
    <glyph glyph-name="w" unicode="w" horiz-adv-x="772" 
d="M177.5 43.5q-34.5 42.5 -61.5 125.5q-21 69 -36 155.5t-15 132.5q0 36 14.5 50t43.5 14q27 0 42.5 -10.5t18.5 -35.5q6 -69 12 -114t21 -113q12 -53 20.5 -80.5t16.5 -27.5t23 52.5t39 153.5l7 28q7 30 21.5 45.5t39.5 15.5q24 0 39 -14.5t25 -46.5l21 -68
q25 -84 40 -124.5t25 -40.5q7 0 13.5 26.5t17.5 89.5q13 79 17 119.5t7 96.5q3 48 61 48q32 0 46 -17t14 -55q0 -44 -12 -125t-30 -149q-45 -174 -126 -174q-52 0 -91.5 72.5t-64.5 207.5q-38 -280 -136 -280q-38 0 -72.5 42.5z" />
    <glyph glyph-name="x" unicode="x" horiz-adv-x="520" 
d="M481 49q0 -22 -19 -39t-42 -17q-20 0 -34 18l-128 165q-52 -78 -112 -161q-8 -11 -19.5 -16.5t-23.5 -5.5q-25 0 -43 17t-18 37q0 11 6 18l141 201l-135 176q-6 9 -6 20q0 19 20.5 36t42.5 17q8 0 17 -3.5t15 -10.5l110 -143l98 142q11 15 29 15q23 0 44 -18.5t21 -37.5
q0 -8 -4 -13l-63 -93l-56 -84l150 -197q9 -10 9 -23z" />
    <glyph glyph-name="y" unicode="y" horiz-adv-x="535" 
d="M182 -246.5q-18 15.5 -18 38.5q0 8 4 22q25 63 82 227q-46 32 -89 103t-74.5 153.5t-44.5 147.5q-2 8 -2 18q0 23 15.5 35t41.5 12q25 0 35 -9.5t14 -28.5q33 -122 70.5 -205.5t74.5 -109.5q25 85 56 205l30 114q5 20 16 28t33 8q29 0 47 -12.5t19 -33.5q0 -7 -1 -11
q-51 -205 -106 -375q-72 -223 -105 -305q-8 -18 -18.5 -27.5t-32.5 -9.5q-29 0 -47 15.5z" />
    <glyph glyph-name="z" unicode="z" horiz-adv-x="562" 
d="M423 -2q-68 6 -122 6q-47 0 -121 -4q-39 -3 -64 -3q-82 0 -82 46q0 23 21 44q177 185 310 320q-12 0 -23.5 -1t-21.5 -2q-68 -5 -88 -5q-31 0 -64 3t-53 7q-49 11 -49 52q0 22 12 36.5t35 11.5q108 -12 170 -12q41 0 105 6q54 4 72 4q40 0 54.5 -10.5t14.5 -31.5
q0 -32 -28 -61l-74 -75q-121 -121 -228 -231l36 1q81 3 91 3q77 0 135 -9q39 -7 39 -47q0 -23 -13.5 -37.5t-40.5 -12.5z" />
    <glyph glyph-name="braceleft" unicode="{" horiz-adv-x="424" 
d="M215 -159q-43 28 -66.5 77t-23.5 109q0 105 -7 152.5t-27 58.5q-19 11 -30 27t-11 33q0 19 12 34.5t31 22.5q9 3 16.5 62.5t7.5 152.5q0 59 23 106t64 73.5t93 26.5q34 0 55.5 -11.5t21.5 -44.5q0 -30 -20.5 -41.5t-44.5 -11.5q-34 0 -52 -12t-25.5 -40.5t-7.5 -83.5
q0 -112 -13 -162t-48 -71q26 -22 41 -49.5t21.5 -74.5t6.5 -126q0 -67 19 -97t64 -30q24 0 39 -15.5t15 -36.5q0 -22 -16.5 -39t-39.5 -17q-55 0 -98 28z" />
    <glyph glyph-name="bar" unicode="|" horiz-adv-x="297" 
d="M114 -83q-14 9 -14 24l1 189q2 150 2 283l-1 450q0 12 14.5 20.5t33.5 8.5q18 0 32.5 -8t14.5 -19v-450q0 -140 -2 -292l-1 -182q0 -15 -13 -24t-34 -9q-19 0 -33 9z" />
    <glyph glyph-name="braceright" unicode="}" horiz-adv-x="424" 
d="M71 -173.5q-16 13.5 -16 34.5q0 20 15.5 36t39.5 16q90 0 90 135q0 79 7 125.5t21.5 74.5t40.5 50q-24 14 -37 40.5t-18 71.5t-5 121q0 79 -21.5 111.5t-71.5 32.5q-25 0 -45.5 11.5t-20.5 41.5q0 32 19.5 40t57.5 8q52 0 93.5 -26.5t64.5 -73.5t23 -106q0 -94 7 -153
t16 -62q19 -7 31 -22.5t12 -34.5q0 -17 -11 -33t-30 -27t-26 -59t-7 -152q0 -60 -23.5 -109t-66.5 -77t-98 -28q-25 0 -41 13.5z" />
    <glyph glyph-name="asciitilde" unicode="~" horiz-adv-x="553" 
d="M268 273q-7 2 -25 7.5t-31 7.5t-26 2q-19 0 -42 -9q-7 -2 -21.5 -7.5t-26.5 -5.5q-13 0 -26 13.5t-13 30.5q0 14 12 27q16 18 52.5 30.5t74.5 12.5q22 0 46 -6t56 -17q37 -13 65 -13q20 0 42 11q26 14 41 14q19 0 35 -16t16 -35q0 -10 -3.5 -15.5t-16.5 -15.5
q-18 -15 -47 -24.5t-57 -9.5q-48 0 -105 18z" />
    <glyph glyph-name="uni00A0" unicode="&#xa0;" horiz-adv-x="347" 
 />
    <glyph glyph-name="exclamdown" unicode="&#xa1;" horiz-adv-x="273" 
d="M80.5 378q-23.5 23 -23.5 54q0 32 23.5 56t55.5 24t56 -24t24 -56q0 -30 -24.5 -53.5t-55.5 -23.5q-32 0 -55.5 23zM104 -182q-13 14 -12 36l6 412q0 23 11.5 36t31.5 13q19 0 31.5 -15.5t12.5 -38.5l-5 -407q0 -23 -11.5 -36.5t-31.5 -13.5t-33 14z" />
    <glyph glyph-name="cent" unicode="&#xa2;" horiz-adv-x="595" 
d="M553 201q0 -47 -28 -90.5t-78 -72.5t-114 -35v-69q0 -12 -9 -19t-22 -7q-32 0 -32 25v71q-104 10 -164.5 76t-60.5 165q0 69 28 126.5t79.5 94.5t120.5 44v72q0 12 9.5 18t22.5 6q12 0 21.5 -6t9.5 -18v-71q136 -12 198 -139q7 -13 7 -25q0 -14 -10.5 -25t-29.5 -16
q-10 -3 -19 -3q-16 0 -28 10t-24 30q-17 33 -47 53.5t-71 20.5q-42 0 -75 -23t-51.5 -62t-18.5 -85q0 -68 36.5 -109t101.5 -41q63 0 100 33t42 87q4 30 45 30q61 0 61 -46z" />
    <glyph glyph-name="sterling" unicode="&#xa3;" horiz-adv-x="613" 
d="M549 140.5q14 -12.5 14 -29.5q0 -8 -5 -18q-21 -41 -61 -67t-93 -26q-39 0 -66 7.5t-58 21.5q-22 9 -33.5 13t-25.5 4q-20 0 -36 -8.5t-37 -25.5q-23 -19 -41 -19q-22 0 -34.5 16t-12.5 30q0 11 2.5 17t10.5 16q11 16 43.5 33.5t69.5 25.5q12 19 17.5 44.5t5.5 49.5
q0 21 -9 50l-63 1q-52 0 -52 37q0 19 13.5 25.5t39.5 6.5h38q-7 17 -23 49q-21 41 -31.5 69.5t-10.5 59.5q0 42 27.5 83.5t75.5 67.5t107 26q92 0 147 -49.5t55 -134.5q0 -27 -10 -39t-36 -12t-37 9.5t-11 30.5q0 58 -31.5 83t-75.5 25t-75 -25.5t-31 -68.5q0 -31 14 -68.5
t29 -68t19 -39.5l108 -1q31 -1 45 -7t14 -27q0 -20 -14 -27t-45 -7l-83 1q6 -22 6 -44q0 -27 -9.5 -58t-20.5 -54q28 -13 64 -24.5t63 -11.5q24 0 39 10t33 34q20 26 40 26q17 0 31 -12.5z" />
    <glyph glyph-name="currency" unicode="&#xa4;" horiz-adv-x="844" 
d="M647 31.5q-14 8.5 -22 16.5l-36 40q-79 -46 -167 -46q-89 0 -166 46l-36 -39q-10 -11 -25.5 -17.5t-28.5 -6.5q-7 0 -10 1q-19 6 -33 20.5t-14 29.5q0 8 2 13.5t8 15.5q3 5 35 39q8 10 15 17q-70 85 -70 189q0 103 67 187l-39 42q-12 12 -15 19.5t-3 15.5q0 22 19 40
t44 18q24 0 50 -26l31 -34q78 48 171 48q45 0 89 -12t81 -34l28 32q26 28 53 28q13 0 23 -5q18 -9 28 -23t10 -30q0 -17 -19 -37l-37 -40q66 -83 66 -189q0 -107 -72 -191q17 -17 31 -33l18 -19q8 -8 10.5 -14t2.5 -15q0 -20 -19 -37.5t-42 -17.5q-14 0 -28 8.5zM522 168
q45 28 72 76.5t27 108.5t-26.5 108t-71.5 75.5t-99 27.5t-100 -27.5t-73.5 -75.5t-27.5 -106t27 -107.5t73 -78.5t100 -29t99 28z" />
    <glyph glyph-name="yen" unicode="&#xa5;" horiz-adv-x="655" 
d="M455 380.5q-28 -28.5 -49 -41.5l105 1q12 0 19 -9.5t7 -23.5t-7 -23.5t-19 -9.5l-122 -2v-54l121 2q13 0 20 -8.5t7 -24.5q0 -15 -7 -23.5t-20 -8.5l-120 -2l1 -91q0 -28 -15.5 -44t-44.5 -16q-30 0 -46 15.5t-16 41.5l-1 93l-125 -2q-13 0 -20 9t-7 24q0 32 27 32l124 2
v54l-124 -2q-14 0 -21 9.5t-7 23.5t7.5 23.5t20.5 9.5l110 1q-21 12 -50.5 45t-52.5 67q-44 68 -91 183q-2 8 -2 15q0 21 20.5 38t48.5 17q20 0 34 -11.5t25 -34.5q28 -63 41 -88t37 -66q47 -78 67 -78t64 78q18 32 43 82t37 76q11 22 22 31t33 9q31 0 51 -14.5t20 -38.5
q0 -6 -5 -24q-16 -39 -43 -92.5t-47 -85.5q-22 -35 -50 -63.5z" />
    <glyph glyph-name="brokenbar" unicode="&#xa6;" horiz-adv-x="303" 
d="M122 437q-13 9 -13 25l-8 396q0 16 13.5 25t34.5 9t33 -9t13 -25l8 -396q0 -16 -13 -25t-34 -9t-34 9zM113 -118q-13 9 -13 26l7 397q0 18 12.5 27.5t34.5 9.5q47 0 47 -37l-6 -397q0 -17 -12.5 -26t-34.5 -9t-35 9z" />
    <glyph glyph-name="section" unicode="&#xa7;" horiz-adv-x="671" 
d="M562 199.5q-19 -35.5 -53 -60.5q40 -44 40 -128q0 -47 -28 -87t-78 -63.5t-113 -23.5q-68 0 -122.5 28.5t-85 79t-30.5 112.5q0 18 14 28.5t38 10.5q22 0 36 -10t14 -28q0 -36 16.5 -68.5t47.5 -52t73 -19.5q58 0 90.5 31t32.5 71q0 37 -16 59t-46 35.5t-91 33.5
q-105 34 -158 79.5t-53 114.5q0 42 17.5 79t50.5 66q-32 43 -32 94q0 50 30 91t83 64.5t118 23.5q57 0 105 -21.5t76.5 -62t28.5 -92.5q0 -22 -13 -34t-37 -12q-21 0 -35.5 8.5t-14.5 23.5q0 59 -32.5 84t-83.5 25q-57 0 -93 -27.5t-36 -70.5q0 -44 33.5 -72.5t113.5 -50.5
q107 -29 159.5 -77t52.5 -110q0 -36 -19 -71.5zM199.5 293q13.5 -22 44 -37.5t86.5 -30.5q72 -19 111 -38q19 15 31 39t12 47q0 38 -35 61.5t-118 47.5q-61 17 -110 48q-15 -16 -25 -38t-10 -43q0 -34 13.5 -56z" />
    <glyph glyph-name="dieresis" unicode="&#xa8;" horiz-adv-x="376" 
d="M13 586.5q-21 21.5 -21 50.5q0 28 21 48.5t50 20.5t50.5 -20.5t21.5 -48.5q0 -29 -21.5 -50.5t-50.5 -21.5t-50 21.5zM277 586.5q-21 21.5 -21 50.5q0 28 21 48.5t50 20.5t50 -20.5t21 -48.5q0 -29 -21 -50.5t-50 -21.5t-50 21.5z" />
    <glyph glyph-name="copyright" unicode="&#xa9;" horiz-adv-x="905" 
d="M646 655q80 -47 124.5 -127t44.5 -176q0 -98 -44 -178.5t-124 -127t-183 -46.5q-106 0 -191.5 48.5t-134 130.5t-48.5 178t47.5 175t133 124.5t193.5 45.5q102 0 182 -47zM603 109.5q60 32.5 93 92.5t33 140q0 130 -66 208t-199 78q-83 0 -149 -36t-103 -98t-37 -136
q0 -78 37 -142.5t103 -101.5t149 -37q79 0 139 32.5zM625 314q11 -8 11 -22q-1 -65 -47.5 -105t-125.5 -40q-90 0 -147 51t-57 139q0 63 24.5 113t68 78.5t98.5 28.5q24 0 49 -9.5t46 -25.5v4q0 30 26 30q18 0 30 -7.5t12 -20.5q0 -55 -7.5 -77t-28.5 -23q-11 0 -18.5 2
t-14.5 10q-23 28 -39 39.5t-40 11.5q-30 0 -56 -19.5t-42 -54.5t-16 -79q0 -65 29.5 -95t85.5 -30q43 0 65.5 21.5t22.5 57.5q0 13 11.5 21.5t29.5 8.5q19 0 30 -8z" />
    <glyph glyph-name="ordfeminine" unicode="&#xaa;" horiz-adv-x="358" 
d="M307.5 516q4.5 -2 6.5 -6.5t2 -13.5q0 -14 -6 -20t-21 -6q-35 0 -51 27q-12 -16 -28 -23t-40 -7q-57 0 -89 35.5t-32 90.5q0 58 34 96t86 38q38 0 63 -23q3 9 11 15t19 6q13 0 24.5 -8.5t8.5 -19.5q-4 -15 -6 -30t-3 -37v-70q0 -25 2 -31t13 -10q2 -1 6.5 -3zM221 617
q0 30 -14 42t-34 12q-53 0 -53 -78q0 -34 11 -51.5t39 -17.5q19 0 34 11.5t16 32.5q1 16 1 49z" />
    <glyph glyph-name="guillemotleft" unicode="&#xab;" horiz-adv-x="597" 
d="M269 192q-54 16 -102.5 46.5t-77.5 65t-29 63.5t30.5 65t80.5 66.5t104 45.5q9 3 18 3q18 0 30 -11t12 -29q0 -17 -10 -27t-32 -19q-26 -9 -61.5 -28.5t-62 -38.5t-26.5 -26t25.5 -27t58.5 -39.5t54 -25.5q19 -5 30 -18t11 -28q0 -17 -12 -28t-29 -11q-8 0 -12 1z
M475 187q-55 17 -103 47.5t-77 65t-29 63.5q0 28 30 62.5t80 65.5t105 48q9 3 17 3q17 0 28 -12t11 -31q0 -32 -36 -43q-30 -8 -65 -27.5t-59.5 -39t-24.5 -27.5q0 -7 24 -26.5t56.5 -38t57.5 -26.5q18 -7 28 -18.5t10 -26.5q0 -17 -12 -29t-29 -12q-4 0 -12 2z" />
    <glyph glyph-name="logicalnot" unicode="&#xac;" horiz-adv-x="778" 
d="M629 191.5q-10 13.5 -10 38.5v153l-221 1l-275 -1q-32 0 -47.5 13.5t-15.5 36.5q0 24 15 38t44 14l285 1h248q27 0 44.5 -13t18.5 -36l3 -208q0 -24 -14 -37.5t-40 -13.5q-25 0 -35 13.5z" />
    <glyph glyph-name="uni00AD" unicode="&#xad;" horiz-adv-x="381" 
d="M53 239.5q-13 15.5 -13 37.5q0 23 13 35.5t30 13.5q72 3 205 3q25 0 39 -14t14 -37q0 -21 -15.5 -35t-39.5 -14q-26 0 -98 -2q-56 -3 -102 -3q-20 0 -33 15.5z" />
    <glyph glyph-name="registered" unicode="&#xae;" horiz-adv-x="905" 
d="M646 661.5q81 -48.5 125 -131t44 -179.5q0 -98 -44.5 -178t-124.5 -126.5t-183 -46.5q-106 0 -191 48.5t-133.5 130.5t-48.5 178t48 177t132.5 128.5t188.5 47.5q106 0 187 -48.5zM604.5 109q62.5 36 97.5 99.5t35 142.5q0 77 -34 142.5t-97 104.5t-147 39
q-82 0 -147 -37.5t-101 -101.5t-36 -140q0 -77 37 -142.5t103 -104t148 -38.5q79 0 141.5 36zM575 332q-46 -30 -110 -30h-20l149 -97q12 -7 12 -22t-12.5 -28.5t-27.5 -13.5q-12 0 -25 9l-145 112l-1 -90q0 -14 -10 -23t-30 -9q-40 0 -40 35l1 78v97l-1 49q-2 32 -2 49
q-10 5 -15 16.5t-5 23.5t17 22v11q0 17 15 25t33 8q23 0 31 -13q41 12 80 12q66 0 109 -35.5t43 -96.5q0 -59 -46 -89zM425 367q20 -2 38 -2q37 0 59 15.5t22 45.5q0 28 -23 44t-60 16q-30 0 -67 -13l3 -100q8 -4 28 -6z" />
    <glyph glyph-name="macron" unicode="&#xaf;" horiz-adv-x="415" 
d="M127.5 595q-11.5 -1 -21.5 -1q-26 0 -53 10q-33 12 -33 47q0 20 13 32t32 12q8 0 30 -3.5t47 -3.5q22 0 66 4q50 4 78 4q23 0 65 -4q17 -2 30.5 -15.5t13.5 -31.5q0 -21 -14.5 -34t-30.5 -12q-8 1 -25.5 3t-32.5 2q-28 0 -72 -4q-42 -4 -67 -4q-14 0 -25.5 -1z" />
    <glyph glyph-name="degree" unicode="&#xb0;" horiz-adv-x="399" 
d="M83.5 600q-43.5 40 -43.5 102q0 43 21 78t58 55t82 20t81 -19.5t56.5 -53t20.5 -71.5q0 -43 -22 -77.5t-59 -54t-81 -19.5q-70 0 -113.5 40zM255 653.5q22 20.5 22 55.5q0 30 -20 51t-60 21q-34 0 -55 -23t-21 -56q0 -32 21.5 -50.5t54.5 -18.5q36 0 58 20.5z" />
    <glyph glyph-name="plusminus" unicode="&#xb1;" horiz-adv-x="553" 
d="M79.5 339q-12.5 13 -12.5 35t13.5 34t39.5 12l110 -1v88q0 21 12.5 33.5t37.5 12.5q48 0 48 -46v-90q41 -1 102 -1q57 0 57 -47q0 -21 -14 -33t-42 -12q-61 0 -103 1v-86q0 -24 -12 -37.5t-37 -13.5q-26 0 -37 13t-11 39v85q-46 1 -114 1q-25 0 -37.5 13zM463.5 123
q16.5 -13 16.5 -36q0 -21 -17 -32.5t-48 -12.5l-282 -3q-55 0 -55 46q0 48 58 48l282 3q29 0 45.5 -13z" />
    <glyph glyph-name="uni00B2" unicode="&#xb2;" horiz-adv-x="399" 
d="M356.5 441.5q12.5 -11.5 12.5 -30.5q0 -20 -12.5 -32.5t-35.5 -12.5l-40 1q-34 3 -84 3q-25 0 -67 -2l-50 -1q-23 0 -37.5 12.5t-11.5 30.5q8 49 45.5 97t111.5 101q65 44 65 101q0 29 -16 46t-42 17q-22 0 -38.5 -19t-17.5 -48q-1 -21 -13.5 -29.5t-40.5 -8.5
q-25 0 -37.5 12t-12.5 35q0 39 22 72t60.5 52t83.5 19q46 0 83 -19.5t58 -53.5t21 -76q0 -94 -113 -170q-67 -45 -90 -83h37l67 -1q21 -1 57 -1q23 0 35.5 -11.5z" />
    <glyph glyph-name="uni00B3" unicode="&#xb3;" horiz-adv-x="441" 
d="M411 504q0 -40 -23 -72t-63 -50t-89 -18q-96 0 -148.5 41.5t-52.5 119.5q0 49 50 49q51 0 51 -43q1 -38 20 -60t72 -22q30 0 55 13t25 45q0 54 -74 55q-43 0 -43 40q0 22 9.5 32.5t31.5 10.5q66 3 66 70q0 28 -17 42.5t-41 14.5q-28 0 -46 -15.5t-18 -39.5q0 -10 2 -20
q2 -15 -11.5 -26t-41.5 -11q-34 0 -48 22q-9 14 -9 38q0 37 23.5 68.5t62.5 50t83 18.5t82.5 -18.5t61 -50t22.5 -68.5q0 -78 -54 -113q62 -32 62 -103z" />
    <glyph glyph-name="acute" unicode="&#xb4;" horiz-adv-x="376" 
d="M110 571q-12 10 -14 24q-1 3 -1 11q0 16 13 35l87 106q14 16 25.5 22.5t26.5 6.5q20 0 33.5 -14t13.5 -34q0 -23 -24 -50l-89 -94q-12 -13 -21.5 -18t-22.5 -5q-15 0 -27 10z" />
    <glyph glyph-name="paragraph" unicode="&#xb6;" horiz-adv-x="631" 
d="M303 -21.5q-9 8.5 -9 25.5l-1 269q-67 2 -122.5 31.5t-88 81.5t-32.5 119q0 73 39 127.5t110.5 84.5t166.5 30q70 0 87 -2q62 -6 60 -49v-683q0 -24 -8 -33.5t-31 -9.5q-42 0 -42 32l-2 652q0 10 -5.5 13t-19.5 3q-19 0 -25 -2.5t-6 -13.5l1 -652q0 -15 -11 -23.5
t-32 -8.5q-20 0 -29 8.5z" />
    <glyph glyph-name="periodcentered" unicode="&#xb7;" horiz-adv-x="436" 
d="M154.5 284q-27.5 26 -27.5 64t27.5 64.5t64.5 26.5t63.5 -26.5t26.5 -64.5q0 -41 -26.5 -65.5t-63.5 -24.5t-64.5 26z" />
    <glyph glyph-name="cedilla" unicode="&#xb8;" horiz-adv-x="376" 
d="M69 -212q-15 7 -22.5 14t-7.5 19q0 18 9.5 26.5t25.5 8.5q10 0 22 -3q3 -1 20 -6t33 -5q24 0 35.5 6t11.5 19q0 12 -14 18t-47 11q-18 3 -28 13.5t-10 24.5q0 4 2 14l59 93q8 12 14 18t15 6q21 0 35.5 -9.5t14.5 -27.5q0 -10 -7 -20l-43 -64q84 -19 84 -76q0 -43 -33 -69
t-93 -26q-41 0 -76 15z" />
    <glyph glyph-name="uni00B9" unicode="&#xb9;" horiz-adv-x="312" 
d="M214.5 837.5q17.5 -13.5 17.5 -35.5v-390q0 -19 -15.5 -30.5t-39.5 -11.5q-23 0 -35.5 11.5t-12.5 30.5v314q-23 -33 -36 -49t-35 -16q-15 0 -28.5 12t-13.5 29q0 13 21 41l73 91q6 8 23.5 12.5t36.5 4.5q27 0 44.5 -13.5z" />
    <glyph glyph-name="ordmasculine" unicode="&#xba;" horiz-adv-x="363" 
d="M85.5 498.5q-36.5 31.5 -36.5 90.5q0 60 35.5 96t96.5 36q59 0 96 -36t37 -96q0 -59 -36 -90.5t-97 -31.5q-59 0 -95.5 31.5zM229.5 537.5q17.5 16.5 17.5 49.5q0 34 -18 57t-49 23q-30 0 -47 -21t-17 -57q0 -34 18 -51t47 -17q31 0 48.5 16.5z" />
    <glyph glyph-name="guillemotright" unicode="&#xbb;" horiz-adv-x="598" 
d="M71 202q-11 12 -11 31q0 32 35 43q31 8 66 27.5t59.5 39t24.5 28.5q0 6 -23.5 25.5t-56 39t-58.5 26.5q-18 5 -28 17t-10 26q0 18 12 30t29 12q8 0 13 -2q55 -17 103 -47.5t77 -64.5t29 -63q0 -28 -30 -62.5t-80 -65.5t-106 -49q-9 -3 -17 -3q-17 0 -28 12zM274.5 196.5
q-12.5 11.5 -12.5 29.5q0 17 11.5 29t31.5 16q25 5 60.5 24.5t62.5 40.5t27 28q0 6 -25.5 26.5t-58.5 40t-55 25.5q-19 6 -29.5 18.5t-10.5 27.5q0 17 11.5 28.5t28.5 11.5q3 0 13 -2q54 -15 102 -45.5t77.5 -65.5t29.5 -64t-30.5 -65t-80.5 -67t-105 -46q-10 -2 -16 -2
q-19 0 -31.5 11.5z" />
    <glyph glyph-name="onequarter" unicode="&#xbc;" horiz-adv-x="915" 
d="M216.5 298q-15.5 -12 -39.5 -12q-23 0 -35.5 11.5t-12.5 31.5v314q-20 -31 -36 -49q-7 -8 -16.5 -12.5t-18.5 -4.5q-15 0 -28.5 12t-13.5 29q0 13 21 41q44 54 73 92q6 8 23.5 12t36.5 4q27 0 44.5 -13.5t17.5 -35.5v-389q0 -19 -15.5 -31zM659 686l-393 -666
q-6 -11 -18.5 -17t-26.5 -6q-21 0 -36 10.5t-15 29.5q0 15 12 34l391 668q8 13 21.5 20t28.5 7q19 0 32.5 -11t13.5 -31t-10 -38zM874 191.5q11 -11.5 11 -33.5q0 -19 -7.5 -29t-31.5 -15l-23 -3l-3 -79q-1 -17 -16 -29.5t-39 -12.5q-25 0 -37.5 13t-12.5 33l3 71h-99
q-50 0 -104 12q-41 11 -41 40q0 11 8 27q58 112 97.5 179.5t80.5 110.5q11 11 32 11t33.5 -12t12.5 -31q0 -18 -19 -42q-35 -39 -67.5 -97t-50.5 -98q-2 -6 -2 -7q0 -5 14 -8q11 -2 44 -2h35q20 0 30 1l5 122q1 18 13.5 30.5t37.5 12.5q26 0 40.5 -14t13.5 -34l-5 -109l19 2
q17 2 28 -9.5z" />
    <glyph glyph-name="onehalf" unicode="&#xbd;" horiz-adv-x="939" 
d="M659 686l-393 -666q-6 -11 -18.5 -17t-26.5 -6q-21 0 -36 10.5t-15 29.5q0 15 12 34l391 668q8 13 21.5 20t28.5 7q19 0 32.5 -11t13.5 -31t-10 -38zM216.5 296q-15.5 -12 -39.5 -12q-23 0 -35.5 11.5t-12.5 31.5v314q-20 -31 -36 -49q-7 -8 -16.5 -12.5t-18.5 -4.5
q-15 0 -28.5 12t-13.5 29q0 13 21 41q44 54 73 92q6 8 23.5 12t36.5 4q27 0 44.5 -13.5t17.5 -34.5v-390q0 -19 -15.5 -31zM896.5 74.5q12.5 -11.5 12.5 -30.5t-12.5 -32t-35.5 -13l-40 1q-35 3 -84 3q-25 0 -67 -2l-50 -1q-23 0 -37.5 12.5t-11.5 30.5q8 49 45.5 97
t111.5 101q65 44 65 101q0 29 -16 46t-42 17q-22 0 -38.5 -19t-17.5 -48q-1 -21 -13.5 -29.5t-40.5 -8.5q-25 0 -37.5 12t-12.5 35q0 39 22 72t60.5 52t83.5 19q46 0 83 -19.5t58 -53.5t21 -76q0 -94 -113 -170q-67 -45 -90 -83h37l67 -1q21 -1 57 -1q23 0 35.5 -11.5z" />
    <glyph glyph-name="threequarters" unicode="&#xbe;" horiz-adv-x="1046" 
d="M789 686l-392 -666q-7 -11 -19 -17t-27 -6q-20 0 -35 10.5t-15 29.5q0 16 11 34l391 668q8 13 21.5 20t28.5 7q19 0 33 -11t14 -31q0 -19 -11 -38zM388 340q-23 -32 -63 -50t-89 -18q-96 0 -148.5 41.5t-52.5 119.5q0 49 50 49q51 0 51 -43q1 -38 20 -60t72 -22
q30 0 55 13t25 45q0 54 -74 55q-43 0 -43 40q0 22 9.5 32.5t31.5 10.5q66 3 66 70q0 28 -17 42.5t-41 14.5q-28 0 -46 -15.5t-18 -39.5q0 -10 2 -20q2 -15 -11.5 -26t-41.5 -11q-34 0 -48 22q-9 14 -9 38q0 37 23.5 68.5t62.5 50t83 18.5t82.5 -18.5t61 -50t22.5 -68.5
q0 -78 -54 -113q62 -32 62 -103q0 -40 -23 -72zM1005 191.5q11 -11.5 11 -33.5q0 -18 -8 -28.5t-32 -15.5l-23 -3l-3 -79q0 -17 -15.5 -29.5t-39.5 -12.5q-25 0 -37.5 13.5t-11.5 32.5l3 71h-100q-47 0 -104 12q-40 10 -40 40q0 13 7 27l11 21q53 103 90.5 166t76.5 103
q11 11 32 11q22 0 34.5 -12t12.5 -31q0 -10 -4.5 -19t-15.5 -23q-34 -40 -68 -99.5t-49 -95.5q-2 -6 -2 -7q0 -5 14 -8q11 -2 43 -2h36q19 0 29 1l5 122q1 18 13.5 30.5t37.5 12.5q26 0 40.5 -14t13.5 -34l-5 -109l19 2q18 2 29 -9.5z" />
    <glyph glyph-name="questiondown" unicode="&#xbf;" horiz-adv-x="542" 
d="M221.5 471q-19.5 20 -19.5 46q0 28 19 47.5t46 19.5q29 0 49 -19.5t20 -47.5q0 -26 -20.5 -46t-48.5 -20q-26 0 -45.5 20zM160.5 -97q-47.5 28 -74 76t-26.5 106q0 40 13.5 71t32.5 53t49 50q35 33 52 56.5t17 54.5q0 22 12.5 35.5t32.5 13.5q19 0 30.5 -13.5t11.5 -35.5
q0 -40 -13.5 -71t-31.5 -52t-49 -51q-35 -31 -52.5 -55t-17.5 -56q0 -56 32.5 -89.5t87.5 -33.5q67 0 97.5 25.5t30.5 79.5q0 24 -14 41t-35 17q-23 0 -35 12t-12 34q0 18 13.5 29.5t33.5 11.5q37 0 68 -19.5t49.5 -53t18.5 -72.5q0 -89 -57.5 -140.5t-155.5 -51.5
q-61 0 -108.5 28z" />
    <glyph glyph-name="Agrave" unicode="&#xc0;" horiz-adv-x="695" 
d="M626 57q3 -9 3 -16q0 -25 -20.5 -38.5t-48.5 -13.5q-22 0 -38 9t-21 27l-38 138l-231 1q-7 -24 -13.5 -45.5t-11.5 -39.5l-15 -51q-6 -19 -21.5 -28.5t-36.5 -9.5q-28 0 -48.5 14t-20.5 37q0 5 2 17l142 426l35 107q21 65 46 93t65 28q39 0 62 -25t43 -87
q43 -130 101 -327h28q21 0 33 -14t12 -41q0 -56 -35 -56h-5zM432 275q-30 112 -52 186q-2 7 -4 12t-3 10q-8 28 -13 41t-10 13t-10 -13t-10 -32q-5 -20 -7 -26l-57 -190zM378 757q-10 5 -20 17l-79 86q-21 23 -21 44q0 19 12.5 32t31.5 13q24 0 49 -29l73 -85q17 -19 17 -40
q0 -18 -12 -30.5t-29 -12.5q-12 0 -22 5z" />
    <glyph glyph-name="Aacute" unicode="&#xc1;" horiz-adv-x="695" 
d="M626 57q3 -9 3 -16q0 -25 -20.5 -38.5t-48.5 -13.5q-22 0 -38 9t-21 27l-38 138l-231 1q-7 -24 -13.5 -45.5t-11.5 -39.5l-15 -51q-6 -19 -21.5 -28.5t-36.5 -9.5q-28 0 -48.5 14t-20.5 37q0 5 2 17l142 426l35 107q21 65 46 93t65 28q39 0 62 -25t43 -87
q43 -130 101 -327h28q21 0 33 -14t12 -41q0 -56 -35 -56h-5zM432 275q-30 112 -52 186q-2 7 -4 12t-3 10q-8 28 -13 41t-10 13t-10 -13t-10 -32q-5 -20 -7 -26l-57 -190zM278 764.5q-12 12.5 -12 30.5q0 10 4.5 21.5t13.5 18.5l89 85q15 15 26 22t23 7q20 0 32.5 -12.5
t12.5 -32.5q0 -25 -21 -44l-96 -86q-23 -22 -42 -22q-18 0 -30 12.5z" />
    <glyph glyph-name="Acircumflex" unicode="&#xc2;" horiz-adv-x="695" 
d="M626 57q3 -9 3 -16q0 -25 -20.5 -38.5t-48.5 -13.5q-22 0 -38 9t-21 27l-38 138l-231 1q-7 -24 -13.5 -45.5t-11.5 -39.5l-15 -51q-6 -19 -21.5 -28.5t-36.5 -9.5q-28 0 -48.5 14t-20.5 37q0 5 2 17l142 426l35 107q21 65 46 93t65 28q39 0 62 -25t43 -87
q43 -130 101 -327h28q21 0 33 -14t12 -41q0 -56 -35 -56h-5zM432 275q-30 112 -52 186q-2 7 -4 12t-3 10q-8 28 -13 41t-10 13t-10 -13t-10 -32q-5 -20 -7 -26l-57 -190zM428 773l-30 38q-17 23 -30.5 39.5t-18.5 16.5q-7 0 -47 -46q-10 -10 -18 -19.5t-16 -17.5
q-13 -13 -22 -19t-20 -6q-18 0 -32 13.5t-14 31.5q0 20 13 33l27 29q40 44 70.5 70.5t54.5 26.5q28 0 49 -18t54 -58q23 -30 49 -57q13 -13 13 -32q0 -18 -12.5 -31t-29.5 -13q-25 0 -40 19z" />
    <glyph glyph-name="Atilde" unicode="&#xc3;" horiz-adv-x="695" 
d="M626 57q3 -9 3 -16q0 -25 -20.5 -38.5t-48.5 -13.5q-22 0 -38 9t-21 27l-38 138l-231 1q-7 -24 -13.5 -45.5t-11.5 -39.5l-15 -51q-6 -19 -21.5 -28.5t-36.5 -9.5q-28 0 -48.5 14t-20.5 37q0 5 2 17l142 426l35 107q21 65 46 93t65 28q39 0 62 -25t43 -87
q43 -130 101 -327h28q21 0 33 -14t12 -41q0 -56 -35 -56h-5zM432 275q-30 112 -52 186q-2 7 -4 12t-3 10q-8 28 -13 41t-10 13t-10 -13t-10 -32q-5 -20 -7 -26l-57 -190zM168 814q0 16 12 31q27 32 49 45.5t52 13.5q49 0 95 -24q6 -3 18.5 -9.5t17.5 -8.5t10 -2q10 0 19 11
q11 11 19 16t18 5q17 0 31.5 -15t14.5 -32q0 -19 -14 -33q-22 -22 -43 -32.5t-45 -10.5q-19 0 -36 6t-31 13t-19 9q-36 19 -48 19q-7 0 -14 -6t-21 -21q-18 -20 -40 -20q-17 0 -31 12q-14 16 -14 33z" />
    <glyph glyph-name="Adieresis" unicode="&#xc4;" horiz-adv-x="695" 
d="M626 57q3 -9 3 -16q0 -25 -20.5 -38.5t-48.5 -13.5q-22 0 -38 9t-21 27l-38 138l-231 1q-7 -24 -13.5 -45.5t-11.5 -39.5l-15 -51q-6 -19 -21.5 -28.5t-36.5 -9.5q-28 0 -48.5 14t-20.5 37q0 5 2 17l142 426l35 107q21 65 46 93t65 28q39 0 62 -25t43 -87
q43 -130 101 -327h28q21 0 33 -14t12 -41q0 -56 -35 -56h-5zM432 275q-30 112 -52 186q-2 7 -4 12t-3 10q-8 28 -13 41t-10 13t-10 -13t-10 -32q-5 -20 -7 -26l-57 -190zM165.5 786q-20.5 21 -20.5 50q0 28 20.5 48t49.5 20t50 -20t21 -48t-21.5 -49.5t-49.5 -21.5
q-29 0 -49.5 21zM429.5 786q-20.5 21 -20.5 50q0 28 20.5 48t49.5 20t49.5 -20t20.5 -48q0 -29 -21 -50t-49 -21q-29 0 -49.5 21z" />
    <glyph glyph-name="Aring" unicode="&#xc5;" horiz-adv-x="695" 
d="M626 57q3 -9 3 -16q0 -25 -20.5 -38.5t-48.5 -13.5q-22 0 -38 9t-21 27l-38 138l-231 1q-7 -24 -13.5 -45.5t-11.5 -39.5l-15 -51q-6 -19 -21.5 -28.5t-36.5 -9.5q-28 0 -48.5 14t-20.5 37q0 5 2 17l142 426l35 107q21 65 46 93t65 28q39 0 62 -25t43 -87
q43 -130 101 -327h28q21 0 33 -14t12 -41q0 -56 -35 -56h-5zM432 275q-30 112 -52 186q-2 7 -4 12t-3 10q-8 28 -13 41t-10 13t-10 -13t-10 -32q-5 -20 -7 -26l-57 -190zM260 773.5q-36 36.5 -36 88.5q0 51 36.5 86.5t90.5 35.5q34 0 62 -17.5t44 -45.5t16 -59
q0 -54 -35 -89.5t-89 -35.5q-53 0 -89 36.5zM385 826.5q14 14.5 14 36.5q0 18 -14 32.5t-36 14.5q-21 0 -35.5 -14t-14.5 -33q0 -22 14.5 -36.5t35.5 -14.5q22 0 36 14.5z" />
    <glyph glyph-name="AE" unicode="&#xc6;" horiz-adv-x="891" 
d="M830 98.5q16 -12.5 16 -40.5q0 -26 -12.5 -39.5t-27.5 -18.5q-14 -4 -36.5 -5t-50.5 -1q-66 0 -104 1l-158 1q-33 0 -47.5 12.5t-14.5 37.5q0 53 46 53q5 49 8 90l-177 1l-80 -164q-7 -12 -15 -19t-26 -7q-19 0 -41.5 9t-35.5 22.5t-8 25.5q110 240 212 428t166 204
q6 2 8 2q34 0 66 1t55 2l74 2q46 0 172 -9q17 -2 25 -12.5t8 -31.5q0 -35 -12 -45.5t-32 -9.5q-46 4 -117 4t-111 -3q4 -68 4 -185q44 -2 66 -2q91 -2 107 -3q22 -3 22 -39q0 -22 -10.5 -32.5t-36.5 -10.5l-46 1l-49 2h-54q-1 -55 -3.5 -94.5t-10.5 -118.5q52 -6 125 -6
q35 0 49.5 1t55.5 7q15 2 31 -10.5zM453 275q4 108 4 237v13q-52 -75 -141 -248z" />
    <glyph glyph-name="Ccedilla" unicode="&#xc7;" horiz-adv-x="733" 
d="M663.5 123.5q-37.5 -57.5 -104 -91.5t-151.5 -36l-35 -52q84 -18 84 -76q0 -43 -33 -69t-93 -26q-41 0 -76 15q-15 6 -22.5 13.5t-7.5 19.5q0 18 10 26.5t26 8.5q11 0 21 -3q37 -11 53 -11q24 0 35.5 6t11.5 19q0 12 -14 18t-47 11q-18 3 -28 13.5t-10 24.5q0 4 2 14
l35 54q-80 14 -141 57.5t-95 113.5t-34 160q0 107 43 194t116 137t160 50q117 0 181 -64v18q0 18 16 30.5t42 12.5q28 0 44 -14t16 -41l-1 -102q-1 -36 -15 -54.5t-45 -18.5q-34 0 -50 22q-35 49 -70 74.5t-92 25.5t-108.5 -36t-83 -98t-31.5 -136q0 -69 31 -120.5
t82.5 -78.5t111.5 -27q46 0 87 17t66.5 49.5t25.5 77.5q0 26 16 42t45 16q30 0 47 -15.5t17 -43.5q0 -69 -37.5 -126.5z" />
    <glyph glyph-name="Egrave" unicode="&#xc8;" horiz-adv-x="618" 
d="M518 128q26 0 40 -15t14 -41q0 -23 -11 -35.5t-35 -17.5q-42 -9 -163 -9h-31q-59 0 -109 2.5t-121 11.5q-38 4 -38 51q0 22 9 37.5t26 16.5h12q13 83 13 185h-9q-43 0 -43 55q0 24 10 39.5t31 15.5h11v105v61q-32 11 -32 49q0 28 15 40.5t45 15.5q53 5 176 5
q129 0 197 -8q25 -3 39 -15t14 -38q0 -25 -13 -40.5t-35 -14.5q-94 8 -169 8q-69 0 -117 -3l3 -110l1 -57h37q76 -2 104 -2l77 -2q35 0 35 -53q0 -26 -10 -40.5t-29 -14.5q-31 0 -52 1l-126 1h-36q-3 -107 -14 -190q59 -4 115 -4q83 0 158 9zM362 757q-10 5 -20 17l-79 86
q-21 23 -21 44q0 19 12.5 32t31.5 13q24 0 49 -29l73 -85q17 -19 17 -40q0 -18 -12 -30.5t-29 -12.5q-12 0 -22 5z" />
    <glyph glyph-name="Eacute" unicode="&#xc9;" horiz-adv-x="618" 
d="M518 128q26 0 40 -15t14 -41q0 -23 -11 -35.5t-35 -17.5q-42 -9 -163 -9h-31q-59 0 -109 2.5t-121 11.5q-38 4 -38 51q0 22 9 37.5t26 16.5h12q13 83 13 185h-9q-43 0 -43 55q0 24 10 39.5t31 15.5h11v105v61q-32 11 -32 49q0 28 15 40.5t45 15.5q53 5 176 5
q129 0 197 -8q25 -3 39 -15t14 -38q0 -25 -13 -40.5t-35 -14.5q-94 8 -169 8q-69 0 -117 -3l3 -110l1 -57h37q76 -2 104 -2l77 -2q35 0 35 -53q0 -26 -10 -40.5t-29 -14.5q-31 0 -52 1l-126 1h-36q-3 -107 -14 -190q59 -4 115 -4q83 0 158 9zM262 764.5q-12 12.5 -12 30.5
q0 10 4.5 21.5t13.5 18.5l89 85q15 15 26 22t23 7q20 0 32.5 -12.5t12.5 -32.5q0 -25 -21 -44l-96 -86q-23 -22 -42 -22q-18 0 -30 12.5z" />
    <glyph glyph-name="Ecircumflex" unicode="&#xca;" horiz-adv-x="618" 
d="M518 128q26 0 40 -15t14 -41q0 -23 -11 -35.5t-35 -17.5q-42 -9 -163 -9h-31q-59 0 -109 2.5t-121 11.5q-38 4 -38 51q0 22 9 37.5t26 16.5h12q13 83 13 185h-9q-43 0 -43 55q0 24 10 39.5t31 15.5h11v105v61q-32 11 -32 49q0 28 15 40.5t45 15.5q53 5 176 5
q129 0 197 -8q25 -3 39 -15t14 -38q0 -25 -13 -40.5t-35 -14.5q-94 8 -169 8q-69 0 -117 -3l3 -110l1 -57h37q76 -2 104 -2l77 -2q35 0 35 -53q0 -26 -10 -40.5t-29 -14.5q-31 0 -52 1l-126 1h-36q-3 -107 -14 -190q59 -4 115 -4q83 0 158 9zM412 773l-30 38
q-17 23 -30.5 39.5t-18.5 16.5q-7 0 -47 -46q-10 -10 -18 -19.5t-16 -17.5q-13 -13 -22 -19t-20 -6q-18 0 -32 13.5t-14 31.5q0 20 13 33l27 29q40 44 70.5 70.5t54.5 26.5q28 0 49 -18t54 -58q23 -30 49 -57q13 -13 13 -32q0 -18 -12.5 -31t-29.5 -13q-25 0 -40 19z" />
    <glyph glyph-name="Edieresis" unicode="&#xcb;" horiz-adv-x="618" 
d="M518 128q26 0 40 -15t14 -41q0 -23 -11 -35.5t-35 -17.5q-42 -9 -163 -9h-31q-59 0 -109 2.5t-121 11.5q-38 4 -38 51q0 22 9 37.5t26 16.5h12q13 83 13 185h-9q-43 0 -43 55q0 24 10 39.5t31 15.5h11v105v61q-32 11 -32 49q0 28 15 40.5t45 15.5q53 5 176 5
q129 0 197 -8q25 -3 39 -15t14 -38q0 -25 -13 -40.5t-35 -14.5q-94 8 -169 8q-69 0 -117 -3l3 -110l1 -57h37q76 -2 104 -2l77 -2q35 0 35 -53q0 -26 -10 -40.5t-29 -14.5q-31 0 -52 1l-126 1h-36q-3 -107 -14 -190q59 -4 115 -4q83 0 158 9zM149.5 786q-20.5 21 -20.5 50
q0 28 20.5 48t49.5 20t50 -20t21 -48t-21.5 -49.5t-49.5 -21.5q-29 0 -49.5 21zM413.5 786q-20.5 21 -20.5 50q0 28 20.5 48t49.5 20t49.5 -20t20.5 -48q0 -29 -21 -50t-49 -21q-29 0 -49.5 21z" />
    <glyph glyph-name="Igrave" unicode="&#xcc;" horiz-adv-x="486" 
d="M449 59q0 -56 -55 -56l-301 4q-27 1 -39 17t-12 38q0 28 15 42t36 14l93 -1q14 227 16 482l-83 -6q-24 -3 -35 -3q-22 0 -34.5 15t-12.5 41q0 27 13 39.5t36 15.5q19 3 79 6t119 3q54 0 116 -6q24 -2 36.5 -16t12.5 -38q0 -25 -13 -40t-41 -14q-26 2 -71 3
q-2 -291 -15 -484l86 -1q54 -1 54 -55zM282 757q-10 5 -20 17l-79 86q-21 23 -21 44q0 19 12.5 32t31.5 13q24 0 49 -29l73 -85q17 -19 17 -40q0 -18 -12 -30.5t-29 -12.5q-12 0 -22 5z" />
    <glyph glyph-name="Iacute" unicode="&#xcd;" horiz-adv-x="486" 
d="M449 59q0 -56 -55 -56l-301 4q-27 1 -39 17t-12 38q0 28 15 42t36 14l93 -1q14 227 16 482l-83 -6q-24 -3 -35 -3q-22 0 -34.5 15t-12.5 41q0 27 13 39.5t36 15.5q19 3 79 6t119 3q54 0 116 -6q24 -2 36.5 -16t12.5 -38q0 -25 -13 -40t-41 -14q-26 2 -71 3
q-2 -291 -15 -484l86 -1q54 -1 54 -55zM181 764.5q-12 12.5 -12 30.5q0 10 4.5 21.5t13.5 18.5l89 85q15 15 26 22t23 7q20 0 32.5 -12.5t12.5 -32.5q0 -25 -21 -44l-96 -86q-23 -22 -42 -22q-18 0 -30 12.5z" />
    <glyph glyph-name="Icircumflex" unicode="&#xce;" horiz-adv-x="486" 
d="M449 59q0 -56 -55 -56l-301 4q-27 1 -39 17t-12 38q0 28 15 42t36 14l93 -1q14 227 16 482l-83 -6q-24 -3 -35 -3q-22 0 -34.5 15t-12.5 41q0 27 13 39.5t36 15.5q19 3 79 6t119 3q54 0 116 -6q24 -2 36.5 -16t12.5 -38q0 -25 -13 -40t-41 -14q-26 2 -71 3
q-2 -291 -15 -484l86 -1q54 -1 54 -55zM332 773l-30 38q-17 23 -30.5 39.5t-18.5 16.5q-7 0 -47 -46q-10 -10 -18 -19.5t-16 -17.5q-13 -13 -22 -19t-20 -6q-18 0 -32 13.5t-14 31.5q0 20 13 33l27 29q40 44 70.5 70.5t54.5 26.5q28 0 49 -18t54 -58q23 -30 49 -57
q13 -13 13 -32q0 -18 -12.5 -31t-29.5 -13q-25 0 -40 19z" />
    <glyph glyph-name="Idieresis" unicode="&#xcf;" horiz-adv-x="486" 
d="M449 59q0 -56 -55 -56l-301 4q-27 1 -39 17t-12 38q0 28 15 42t36 14l93 -1q14 227 16 482l-83 -6q-24 -3 -35 -3q-22 0 -34.5 15t-12.5 41q0 27 13 39.5t36 15.5q19 3 79 6t119 3q54 0 116 -6q24 -2 36.5 -16t12.5 -38q0 -25 -13 -40t-41 -14q-26 2 -71 3
q-2 -291 -15 -484l86 -1q54 -1 54 -55zM69.5 786q-20.5 21 -20.5 50q0 28 20.5 48t49.5 20t50 -20t21 -48t-21.5 -49.5t-49.5 -21.5q-29 0 -49.5 21zM333.5 786q-20.5 21 -20.5 50q0 28 20.5 48t49.5 20t49.5 -20t20.5 -48q0 -29 -21 -50t-49 -21q-29 0 -49.5 21z" />
    <glyph glyph-name="Eth" unicode="&#xd0;" horiz-adv-x="718" 
d="M465 650q95 -42 148.5 -117t53.5 -179q0 -105 -54.5 -183.5t-155.5 -121.5t-237 -43h-67q-35 0 -52 13t-17 44q0 49 58 51l-5 189l-31 1q-38 1 -58.5 17t-20.5 44q0 29 21 46t60 16l25 -1l-5 172q-45 11 -45 54q0 22 13 32.5t44 15.5q14 16 51 16q38 0 55 -16
q124 -8 219 -50zM464 193.5q67 63.5 67 166.5q0 197 -264 228l4 -165l57 -2q34 -2 54.5 -18.5t20.5 -44.5q0 -27 -20.5 -43t-55.5 -16l-52 1l5 -183q117 13 184 76.5z" />
    <glyph glyph-name="Ntilde" unicode="&#xd1;" horiz-adv-x="752" 
d="M679 649q0 -98 -1 -144l-1 -156q0 -142 -8 -213t-28 -98t-60 -27q-34 0 -65.5 26t-71.5 81.5t-111 169.5l-12 19q-81 133 -125 199q2 -94 2 -174l1 -271q0 -22 -17.5 -37t-44.5 -15t-44.5 14.5t-17.5 37.5v275l-1 123q-1 36 -1 101q0 57 6 88t21.5 45t44.5 14
q34 0 63.5 -25t66 -78t116.5 -181l85 -135q51 -82 75 -116q3 117 3 178l1 311q0 24 15.5 38.5t46.5 14.5q62 0 62 -65zM204 814q0 16 12 31q27 32 49 45.5t52 13.5q49 0 95 -24q6 -3 18.5 -9.5t17.5 -8.5t10 -2q10 0 19 11q11 11 19 16t18 5q17 0 31.5 -15t14.5 -32
q0 -19 -14 -33q-22 -22 -43 -32.5t-45 -10.5q-19 0 -36 6t-31 13t-19 9q-36 19 -48 19q-7 0 -14 -6t-21 -21q-18 -20 -40 -20q-17 0 -31 12q-14 16 -14 33z" />
    <glyph glyph-name="Ograve" unicode="&#xd2;" horiz-adv-x="805" 
d="M217 46.5q-78 39.5 -122 116t-44 182.5q0 105 43 187.5t120.5 129t177.5 46.5q102 0 184.5 -48t130 -132t47.5 -187t-47 -178.5t-128 -115.5t-183 -40q-101 0 -179 39.5zM516.5 142.5q52.5 25.5 84 77t31.5 126.5q0 73 -29.5 130.5t-83 89.5t-122.5 32
q-68 0 -118.5 -31.5t-78 -88t-27.5 -128.5q0 -78 31 -130.5t83 -77.5t114 -25q63 0 115.5 25.5zM429 757q-10 5 -20 17l-79 86q-21 23 -21 44q0 19 12.5 32t31.5 13q24 0 49 -29l73 -85q17 -19 17 -40q0 -18 -12 -30.5t-29 -12.5q-12 0 -22 5z" />
    <glyph glyph-name="Oacute" unicode="&#xd3;" horiz-adv-x="805" 
d="M217 46.5q-78 39.5 -122 116t-44 182.5q0 105 43 187.5t120.5 129t177.5 46.5q102 0 184.5 -48t130 -132t47.5 -187t-47 -178.5t-128 -115.5t-183 -40q-101 0 -179 39.5zM516.5 142.5q52.5 25.5 84 77t31.5 126.5q0 73 -29.5 130.5t-83 89.5t-122.5 32
q-68 0 -118.5 -31.5t-78 -88t-27.5 -128.5q0 -78 31 -130.5t83 -77.5t114 -25q63 0 115.5 25.5zM328 764.5q-12 12.5 -12 30.5q0 10 4.5 21.5t13.5 18.5l89 85q15 15 26 22t23 7q20 0 32.5 -12.5t12.5 -32.5q0 -25 -21 -44l-96 -86q-23 -22 -42 -22q-18 0 -30 12.5z" />
    <glyph glyph-name="Ocircumflex" unicode="&#xd4;" horiz-adv-x="805" 
d="M217 46.5q-78 39.5 -122 116t-44 182.5q0 105 43 187.5t120.5 129t177.5 46.5q102 0 184.5 -48t130 -132t47.5 -187t-47 -178.5t-128 -115.5t-183 -40q-101 0 -179 39.5zM516.5 142.5q52.5 25.5 84 77t31.5 126.5q0 73 -29.5 130.5t-83 89.5t-122.5 32
q-68 0 -118.5 -31.5t-78 -88t-27.5 -128.5q0 -78 31 -130.5t83 -77.5t114 -25q63 0 115.5 25.5zM479 773l-30 38q-17 23 -30.5 39.5t-18.5 16.5q-7 0 -47 -46q-10 -10 -18 -19.5t-16 -17.5q-13 -13 -22 -19t-20 -6q-18 0 -32 13.5t-14 31.5q0 20 13 33l27 29
q40 44 70.5 70.5t54.5 26.5q28 0 49 -18t54 -58q23 -30 49 -57q13 -13 13 -32q0 -18 -12.5 -31t-29.5 -13q-25 0 -40 19z" />
    <glyph glyph-name="Otilde" unicode="&#xd5;" horiz-adv-x="805" 
d="M217 46.5q-78 39.5 -122 116t-44 182.5q0 105 43 187.5t120.5 129t177.5 46.5q102 0 184.5 -48t130 -132t47.5 -187t-47 -178.5t-128 -115.5t-183 -40q-101 0 -179 39.5zM516.5 142.5q52.5 25.5 84 77t31.5 126.5q0 73 -29.5 130.5t-83 89.5t-122.5 32
q-68 0 -118.5 -31.5t-78 -88t-27.5 -128.5q0 -78 31 -130.5t83 -77.5t114 -25q63 0 115.5 25.5zM219 814q0 16 12 31q27 32 49 45.5t52 13.5q49 0 95 -24q6 -3 18.5 -9.5t17.5 -8.5t10 -2q10 0 19 11q11 11 19 16t18 5q17 0 31.5 -15t14.5 -32q0 -19 -14 -33
q-22 -22 -43 -32.5t-45 -10.5q-19 0 -36 6t-31 13t-19 9q-36 19 -48 19q-7 0 -14 -6t-21 -21q-18 -20 -40 -20q-17 0 -31 12q-14 16 -14 33z" />
    <glyph glyph-name="Odieresis" unicode="&#xd6;" horiz-adv-x="805" 
d="M217 46.5q-78 39.5 -122 116t-44 182.5q0 105 43 187.5t120.5 129t177.5 46.5q102 0 184.5 -48t130 -132t47.5 -187t-47 -178.5t-128 -115.5t-183 -40q-101 0 -179 39.5zM516.5 142.5q52.5 25.5 84 77t31.5 126.5q0 73 -29.5 130.5t-83 89.5t-122.5 32
q-68 0 -118.5 -31.5t-78 -88t-27.5 -128.5q0 -78 31 -130.5t83 -77.5t114 -25q63 0 115.5 25.5zM216.5 786q-20.5 21 -20.5 50q0 28 20.5 48t49.5 20t50 -20t21 -48t-21.5 -49.5t-49.5 -21.5q-29 0 -49.5 21zM480.5 786q-20.5 21 -20.5 50q0 28 20.5 48t49.5 20t49.5 -20
t20.5 -48q0 -29 -21 -50t-49 -21q-29 0 -49.5 21z" />
    <glyph glyph-name="multiply" unicode="&#xd7;" horiz-adv-x="553" 
d="M466.5 180q2.5 -6 2.5 -14q0 -16 -14.5 -29.5t-34.5 -13.5q-16 0 -26.5 6t-23.5 19l-94 93q-47 -53 -92 -101q-9 -9 -19 -14.5t-24 -5.5q-20 0 -37.5 14.5t-17.5 26.5q0 9 2 15.5t10 15.5l40 44l67 75l-99 100q-12 13 -14.5 17.5t-2.5 14.5q0 16 15 31.5t40 15.5
q27 0 48 -25q29 -33 78 -82q49 54 69 79q21 25 47 25q27 0 42 -12t15 -32q0 -10 -2 -15.5t-10 -15.5l-91 -100q78 -78 116 -118q8 -8 10.5 -14z" />
    <glyph glyph-name="Oslash" unicode="&#xd8;" horiz-adv-x="824" 
d="M670 581q40 -48 62 -109.5t22 -130.5q0 -103 -47 -178.5t-128 -115.5t-183 -40q-100 0 -177 39l-51 -61q-19 -24 -44 -24q-19 0 -33.5 13t-14.5 31q0 13 9 26l58 69q-44 44 -68 106t-24 139q0 105 43 187.5t120.5 129t177.5 46.5q118 0 209 -64l75 89q19 25 44 25
q19 0 32.5 -13.5t13.5 -32.5q0 -17 -15 -35zM222 194l308 365q-58 39 -133 39q-68 0 -118.5 -31.5t-78 -88t-27.5 -128.5q0 -96 49 -156zM594 491l-297 -353q48 -21 104 -21q63 0 115.5 25.5t84 77t31.5 126.5q0 84 -38 145z" />
    <glyph glyph-name="Ugrave" unicode="&#xd9;" horiz-adv-x="692" 
d="M618 366q2 -158 2 -306q0 -33 -15.5 -48t-46.5 -15t-46 14t-15 46v39q-28 -42 -78 -68.5t-115 -26.5q-75 0 -127.5 34t-79 93t-26.5 134q0 133 3 263l3 125q1 24 16.5 38.5t45.5 14.5q60 0 60 -53q0 -76 -2 -192t-2 -196q0 -71 35 -110.5t92 -39.5q43 0 83.5 29t65 76.5
t24.5 101.5l-1 336q0 54 57 54q30 0 46.5 -14t16.5 -41q0 -104 3 -227q0 -39 1 -61zM373 757q-10 5 -20 17l-79 86q-21 23 -21 44q0 19 12.5 32t31.5 13q24 0 49 -29l73 -85q17 -19 17 -40q0 -18 -12 -30.5t-29 -12.5q-12 0 -22 5z" />
    <glyph glyph-name="Uacute" unicode="&#xda;" horiz-adv-x="692" 
d="M618 366q2 -158 2 -306q0 -33 -15.5 -48t-46.5 -15t-46 14t-15 46v39q-28 -42 -78 -68.5t-115 -26.5q-75 0 -127.5 34t-79 93t-26.5 134q0 133 3 263l3 125q1 24 16.5 38.5t45.5 14.5q60 0 60 -53q0 -76 -2 -192t-2 -196q0 -71 35 -110.5t92 -39.5q43 0 83.5 29t65 76.5
t24.5 101.5l-1 336q0 54 57 54q30 0 46.5 -14t16.5 -41q0 -104 3 -227q0 -39 1 -61zM273 764.5q-12 12.5 -12 30.5q0 10 4.5 21.5t13.5 18.5l89 85q15 15 26 22t23 7q20 0 32.5 -12.5t12.5 -32.5q0 -25 -21 -44l-96 -86q-23 -22 -42 -22q-18 0 -30 12.5z" />
    <glyph glyph-name="Ucircumflex" unicode="&#xdb;" horiz-adv-x="692" 
d="M618 366q2 -158 2 -306q0 -33 -15.5 -48t-46.5 -15t-46 14t-15 46v39q-28 -42 -78 -68.5t-115 -26.5q-75 0 -127.5 34t-79 93t-26.5 134q0 133 3 263l3 125q1 24 16.5 38.5t45.5 14.5q60 0 60 -53q0 -76 -2 -192t-2 -196q0 -71 35 -110.5t92 -39.5q43 0 83.5 29t65 76.5
t24.5 101.5l-1 336q0 54 57 54q30 0 46.5 -14t16.5 -41q0 -104 3 -227q0 -39 1 -61zM423 773l-30 38q-17 23 -30.5 39.5t-18.5 16.5q-7 0 -47 -46q-10 -10 -18 -19.5t-16 -17.5q-13 -13 -22 -19t-20 -6q-18 0 -32 13.5t-14 31.5q0 20 13 33l27 29q40 44 70.5 70.5t54.5 26.5
q28 0 49 -18t54 -58q23 -30 49 -57q13 -13 13 -32q0 -18 -12.5 -31t-29.5 -13q-25 0 -40 19z" />
    <glyph glyph-name="Udieresis" unicode="&#xdc;" horiz-adv-x="692" 
d="M618 366q2 -158 2 -306q0 -33 -15.5 -48t-46.5 -15t-46 14t-15 46v39q-28 -42 -78 -68.5t-115 -26.5q-75 0 -127.5 34t-79 93t-26.5 134q0 133 3 263l3 125q1 24 16.5 38.5t45.5 14.5q60 0 60 -53q0 -76 -2 -192t-2 -196q0 -71 35 -110.5t92 -39.5q43 0 83.5 29t65 76.5
t24.5 101.5l-1 336q0 54 57 54q30 0 46.5 -14t16.5 -41q0 -104 3 -227q0 -39 1 -61zM160.5 786q-20.5 21 -20.5 50q0 28 20.5 48t49.5 20t50 -20t21 -48t-21.5 -49.5t-49.5 -21.5q-29 0 -49.5 21zM424.5 786q-20.5 21 -20.5 50q0 28 20.5 48t49.5 20t49.5 -20t20.5 -48
q0 -29 -21 -50t-49 -21q-29 0 -49.5 21z" />
    <glyph glyph-name="Yacute" unicode="&#xdd;" horiz-adv-x="655" 
d="M285 17.5q-16 15.5 -16 41.5l-3 272q-18 3 -53.5 39.5t-62.5 77.5q-44 68 -91 183q-2 8 -2 15q0 21 20.5 38t48.5 17q20 0 34 -11.5t25 -34.5q21 -45 38.5 -81t39.5 -73q47 -78 67 -78t64 78q56 105 80 158q11 22 22 31t33 9q31 0 51 -14.5t20 -38.5q0 -6 -5 -24
q-16 -39 -43 -92.5t-47 -85.5q-28 -44 -64 -77.5t-53 -35.5l3 -269q0 -28 -15.5 -44t-44.5 -16q-30 0 -46 15.5zM262 764.5q-12 12.5 -12 30.5q0 10 4.5 21.5t13.5 18.5l89 85q15 15 26 22t23 7q20 0 32.5 -12.5t12.5 -32.5q0 -25 -21 -44l-96 -86q-23 -22 -42 -22
q-18 0 -30 12.5z" />
    <glyph glyph-name="Thorn" unicode="&#xde;" horiz-adv-x="668" 
d="M485 616.5q68 -30.5 107 -85t39 -121.5q0 -66 -36.5 -117.5t-100 -80t-141.5 -28.5q-50 0 -101 16l-2 -152q0 -24 -20 -40t-49 -16q-30 0 -50 17t-20 45l1 20q5 50 5 107q0 28 -2 112q-4 125 -7 188l-10 -5q-15 -6 -28 -6q-23 0 -36.5 15t-13.5 37q0 25 24 46
q18 15 58 32q-4 84 -4 110q0 25 19.5 40.5t48.5 15.5t49 -14.5t20 -41.5q0 -20 2 -72q59 9 96 9q84 0 152 -30.5zM451 327.5q41 33.5 41 89.5q0 54 -45.5 86.5t-139.5 32.5q-27 0 -64 -7q4 -58 6 -106t2 -78q1 -11 1 -35q54 -16 94 -16q64 0 105 33.5z" />
    <glyph glyph-name="germandbls" unicode="&#xdf;" horiz-adv-x="629" 
d="M255 20q-26 14 -26 40q0 19 12 37t29 18q7 0 14 -3q27 -12 45 -18t35 -6q50 0 72 17.5t22 55.5q0 23 -18 39t-54 36q-46 25 -70 48.5t-24 62.5q0 36 27.5 69t84.5 52q9 22 9 44q0 45 -31.5 77t-74.5 32q-60 0 -91.5 -50.5t-32.5 -163.5l-6 -349q0 -24 -14.5 -37
t-40.5 -13q-27 0 -42 14t-15 37l3 349q2 154 60.5 231t184.5 77q60 0 109.5 -27t78 -72t28.5 -98q0 -61 -26 -107q-45 -7 -72.5 -24.5t-27.5 -38.5q0 -11 13.5 -22t45.5 -31q54 -33 85 -63t31 -72q0 -82 -53 -124.5t-151 -42.5q-75 0 -119 26z" />
    <glyph glyph-name="agrave" unicode="&#xe0;" horiz-adv-x="617" 
d="M561.5 83.5q9.5 -9.5 9.5 -33.5q0 -21 -11 -35t-29 -14q-43 0 -65 11t-39 41q-42 -63 -152 -63q-115 0 -172 67.5t-57 177.5q0 73 29.5 132t84.5 93t127 34q41 0 74 -16.5t50 -43.5l3 21q1 14 13 24t38 10q30 0 43.5 -14t10.5 -35q-6 -32 -13 -113q-3 -40 -3 -103v-47
q0 -42 5 -60.5t27 -20.5q17 -3 26.5 -12.5zM386 303q0 46 -29.5 71t-67.5 25q-55 0 -88 -48t-33 -115q0 -65 29 -108t85 -43q46 0 74 24t29 69q1 43 1 125zM323 557q-10 5 -20 17l-79 86q-21 23 -21 44q0 19 12.5 32t31.5 13q24 0 49 -29l73 -85q17 -19 17 -40
q0 -18 -12 -30.5t-29 -12.5q-12 0 -22 5z" />
    <glyph glyph-name="aacute" unicode="&#xe1;" horiz-adv-x="617" 
d="M561.5 83.5q9.5 -9.5 9.5 -33.5q0 -21 -11 -35t-29 -14q-43 0 -65 11t-39 41q-42 -63 -152 -63q-115 0 -172 67.5t-57 177.5q0 73 29.5 132t84.5 93t127 34q41 0 74 -16.5t50 -43.5l3 21q1 14 13 24t38 10q30 0 43.5 -14t10.5 -35q-6 -32 -13 -113q-3 -40 -3 -103v-47
q0 -42 5 -60.5t27 -20.5q17 -3 26.5 -12.5zM386 303q0 46 -29.5 71t-67.5 25q-55 0 -88 -48t-33 -115q0 -65 29 -108t85 -43q46 0 74 24t29 69q1 43 1 125zM223 564.5q-12 12.5 -12 30.5q0 10 4.5 21.5t13.5 18.5l89 85q15 15 26 22t23 7q20 0 32.5 -12.5t12.5 -32.5
q0 -25 -21 -44l-96 -86q-23 -22 -42 -22q-18 0 -30 12.5z" />
    <glyph glyph-name="acircumflex" unicode="&#xe2;" horiz-adv-x="617" 
d="M561.5 83.5q9.5 -9.5 9.5 -33.5q0 -21 -11 -35t-29 -14q-43 0 -65 11t-39 41q-42 -63 -152 -63q-115 0 -172 67.5t-57 177.5q0 73 29.5 132t84.5 93t127 34q41 0 74 -16.5t50 -43.5l3 21q1 14 13 24t38 10q30 0 43.5 -14t10.5 -35q-6 -32 -13 -113q-3 -40 -3 -103v-47
q0 -42 5 -60.5t27 -20.5q17 -3 26.5 -12.5zM386 303q0 46 -29.5 71t-67.5 25q-55 0 -88 -48t-33 -115q0 -65 29 -108t85 -43q46 0 74 24t29 69q1 43 1 125zM373 573l-30 38q-17 23 -30.5 39.5t-18.5 16.5q-7 0 -47 -46q-10 -10 -18 -19.5t-16 -17.5q-13 -13 -22 -19t-20 -6
q-18 0 -32 13.5t-14 31.5q0 20 13 33l27 29q40 44 70.5 70.5t54.5 26.5q28 0 49 -18t54 -58q23 -30 49 -57q13 -13 13 -32q0 -18 -12.5 -31t-29.5 -13q-25 0 -40 19z" />
    <glyph glyph-name="atilde" unicode="&#xe3;" horiz-adv-x="617" 
d="M561.5 83.5q9.5 -9.5 9.5 -33.5q0 -21 -11 -35t-29 -14q-43 0 -65 11t-39 41q-42 -63 -152 -63q-115 0 -172 67.5t-57 177.5q0 73 29.5 132t84.5 93t127 34q41 0 74 -16.5t50 -43.5l3 21q1 14 13 24t38 10q30 0 43.5 -14t10.5 -35q-6 -32 -13 -113q-3 -40 -3 -103v-47
q0 -42 5 -60.5t27 -20.5q17 -3 26.5 -12.5zM386 303q0 46 -29.5 71t-67.5 25q-55 0 -88 -48t-33 -115q0 -65 29 -108t85 -43q46 0 74 24t29 69q1 43 1 125zM113 614q0 16 12 31q27 32 49 45.5t52 13.5q49 0 95 -24q6 -3 18.5 -9.5t17.5 -8.5t10 -2q10 0 19 11q11 11 19 16
t18 5q17 0 31.5 -15t14.5 -32q0 -19 -14 -33q-22 -22 -43 -32.5t-45 -10.5q-19 0 -36 6t-31 13t-19 9q-36 19 -48 19q-7 0 -14 -6t-21 -21q-18 -20 -40 -20q-17 0 -31 12q-14 16 -14 33z" />
    <glyph glyph-name="adieresis" unicode="&#xe4;" horiz-adv-x="617" 
d="M561.5 83.5q9.5 -9.5 9.5 -33.5q0 -21 -11 -35t-29 -14q-43 0 -65 11t-39 41q-42 -63 -152 -63q-115 0 -172 67.5t-57 177.5q0 73 29.5 132t84.5 93t127 34q41 0 74 -16.5t50 -43.5l3 21q1 14 13 24t38 10q30 0 43.5 -14t10.5 -35q-6 -32 -13 -113q-3 -40 -3 -103v-47
q0 -42 5 -60.5t27 -20.5q17 -3 26.5 -12.5zM386 303q0 46 -29.5 71t-67.5 25q-55 0 -88 -48t-33 -115q0 -65 29 -108t85 -43q46 0 74 24t29 69q1 43 1 125zM110.5 586q-20.5 21 -20.5 50q0 28 20.5 48t49.5 20t50 -20t21 -48t-21.5 -49.5t-49.5 -21.5q-29 0 -49.5 21z
M374.5 586q-20.5 21 -20.5 50q0 28 20.5 48t49.5 20t49.5 -20t20.5 -48q0 -29 -21 -50t-49 -21q-29 0 -49.5 21z" />
    <glyph glyph-name="aring" unicode="&#xe5;" horiz-adv-x="617" 
d="M561.5 83.5q9.5 -9.5 9.5 -33.5q0 -21 -11 -35t-29 -14q-43 0 -65 11t-39 41q-42 -63 -152 -63q-115 0 -172 67.5t-57 177.5q0 73 29.5 132t84.5 93t127 34q41 0 74 -16.5t50 -43.5l3 21q1 14 13 24t38 10q30 0 43.5 -14t10.5 -35q-6 -32 -13 -113q-3 -40 -3 -103v-47
q0 -42 5 -60.5t27 -20.5q17 -3 26.5 -12.5zM386 303q0 46 -29.5 71t-67.5 25q-55 0 -88 -48t-33 -115q0 -65 29 -108t85 -43q46 0 74 24t29 69q1 43 1 125zM205 573.5q-36 36.5 -36 88.5q0 51 36.5 86.5t90.5 35.5q34 0 62 -17.5t44 -45.5t16 -59q0 -54 -35 -89.5t-89 -35.5
q-53 0 -89 36.5zM330 626.5q14 14.5 14 36.5q0 18 -14 32.5t-36 14.5q-21 0 -35.5 -14t-14.5 -33q0 -22 14.5 -36.5t35.5 -14.5q22 0 36 14.5z" />
    <glyph glyph-name="ae" unicode="&#xe6;" horiz-adv-x="954" 
d="M878 169.5q17 -13.5 17 -30.5q0 -13 -12 -34q-33 -53 -93.5 -84t-136.5 -31q-72 0 -124.5 24.5t-74.5 68.5q-20 -44 -69.5 -68.5t-119.5 -24.5q-112 0 -165 35.5t-53 111.5q0 168 218 174l129 3v14q0 39 -33.5 64.5t-85.5 25.5q-82 0 -144 -49q-24 -20 -44 -20
q-15 0 -28 13t-13 28q0 16 21 37q86 86 208 86q68 0 114.5 -30.5t64.5 -78.5q26 49 83 81t126 32q66 0 121.5 -27.5t88 -74.5t32.5 -103q0 -42 -17 -60t-51 -19l-324 -7v-9q0 -73 35 -102.5t107 -29.5q57 0 90 19t59 56q16 23 40 23q17 0 34 -13.5zM572 391.5
q-40 -30.5 -53 -74.5l273 6v8q0 38 -38.5 64.5t-89.5 26.5q-52 0 -92 -30.5zM360.5 110.5q33.5 27.5 33.5 77.5v35l-129 -4q-50 -2 -74.5 -23t-24.5 -57q0 -29 24 -42.5t76 -13.5q61 0 94.5 27.5z" />
    <glyph glyph-name="ccedilla" unicode="&#xe7;" horiz-adv-x="595" 
d="M538 234q15 -11 15 -38q0 -44 -21.5 -85.5t-69 -71.5t-120.5 -37l-39 -58q84 -19 84 -76q0 -43 -33 -69t-93 -26q-41 0 -76 15q-15 7 -22.5 14t-7.5 19q0 18 9.5 26.5t25.5 8.5q10 0 22 -3q3 -1 20 -6t33 -5q24 0 35.5 6t11.5 19q0 12 -14 18t-47 11q-18 3 -28 13.5
t-10 24.5q0 4 2 14l35 55q-95 14 -150 80t-55 162q0 74 32.5 135.5t92 97.5t136.5 36q82 0 142.5 -40t85.5 -100q6 -15 6 -27q0 -28 -39 -38q-10 -3 -20 -3q-17 0 -28 9.5t-23 29.5q-17 32 -46 53t-71 21q-43 0 -76 -23.5t-51.5 -63.5t-18.5 -88q0 -68 36.5 -108.5
t106.5 -40.5q66 0 99.5 34.5t34.5 78.5q0 15 14 26t37 11q28 0 43 -11z" />
    <glyph glyph-name="egrave" unicode="&#xe8;" horiz-adv-x="604" 
d="M169.5 26.5q-61.5 34.5 -92.5 94t-31 133.5t34.5 133.5t95 93t136.5 33.5q69 0 124 -27t87 -77t32 -116q0 -39 -12.5 -55.5t-46.5 -16.5l-343 -3q0 -28 19 -58t56 -50.5t87 -20.5q34 0 57.5 8.5t38.5 20.5t35 33q15 15 33 15q19 0 36.5 -15t17.5 -34q0 -14 -11 -31
q-24 -36 -72.5 -65.5t-130.5 -29.5q-88 0 -149.5 34.5zM442 302q8 0 10.5 3t2.5 11q0 46 -41 76t-102 30q-47 0 -83.5 -20.5t-56 -50t-19.5 -52.5zM341 557q-10 5 -20 17l-79 86q-21 23 -21 44q0 19 12.5 32t31.5 13q24 0 49 -29l73 -85q17 -19 17 -40q0 -18 -12 -30.5
t-29 -12.5q-12 0 -22 5z" />
    <glyph glyph-name="eacute" unicode="&#xe9;" horiz-adv-x="604" 
d="M169.5 26.5q-61.5 34.5 -92.5 94t-31 133.5t34.5 133.5t95 93t136.5 33.5q69 0 124 -27t87 -77t32 -116q0 -39 -12.5 -55.5t-46.5 -16.5l-343 -3q0 -28 19 -58t56 -50.5t87 -20.5q34 0 57.5 8.5t38.5 20.5t35 33q15 15 33 15q19 0 36.5 -15t17.5 -34q0 -14 -11 -31
q-24 -36 -72.5 -65.5t-130.5 -29.5q-88 0 -149.5 34.5zM442 302q8 0 10.5 3t2.5 11q0 46 -41 76t-102 30q-47 0 -83.5 -20.5t-56 -50t-19.5 -52.5zM235 571q-12 10 -14 24q-1 3 -1 11q0 16 13 35l87 106q14 16 25.5 22.5t26.5 6.5q20 0 33.5 -14t13.5 -34q0 -23 -24 -50
l-89 -94q-12 -13 -21.5 -18t-22.5 -5q-15 0 -27 10z" />
    <glyph glyph-name="ecircumflex" unicode="&#xea;" horiz-adv-x="604" 
d="M169.5 26.5q-61.5 34.5 -92.5 94t-31 133.5t34.5 133.5t95 93t136.5 33.5q69 0 124 -27t87 -77t32 -116q0 -39 -12.5 -55.5t-46.5 -16.5l-343 -3q0 -28 19 -58t56 -50.5t87 -20.5q34 0 57.5 8.5t38.5 20.5t35 33q15 15 33 15q19 0 36.5 -15t17.5 -34q0 -14 -11 -31
q-24 -36 -72.5 -65.5t-130.5 -29.5q-88 0 -149.5 34.5zM442 302q8 0 10.5 3t2.5 11q0 46 -41 76t-102 30q-47 0 -83.5 -20.5t-56 -50t-19.5 -52.5zM391 573l-30 38q-17 23 -30.5 39.5t-18.5 16.5q-7 0 -47 -46q-10 -10 -18 -19.5t-16 -17.5q-13 -13 -22 -19t-20 -6
q-18 0 -32 13.5t-14 31.5q0 20 13 33l27 29q40 44 70.5 70.5t54.5 26.5q28 0 49 -18t54 -58q23 -30 49 -57q13 -13 13 -32q0 -18 -12.5 -31t-29.5 -13q-25 0 -40 19z" />
    <glyph glyph-name="edieresis" unicode="&#xeb;" horiz-adv-x="604" 
d="M169.5 26.5q-61.5 34.5 -92.5 94t-31 133.5t34.5 133.5t95 93t136.5 33.5q69 0 124 -27t87 -77t32 -116q0 -39 -12.5 -55.5t-46.5 -16.5l-343 -3q0 -28 19 -58t56 -50.5t87 -20.5q34 0 57.5 8.5t38.5 20.5t35 33q15 15 33 15q19 0 36.5 -15t17.5 -34q0 -14 -11 -31
q-24 -36 -72.5 -65.5t-130.5 -29.5q-88 0 -149.5 34.5zM442 302q8 0 10.5 3t2.5 11q0 46 -41 76t-102 30q-47 0 -83.5 -20.5t-56 -50t-19.5 -52.5zM128.5 586q-20.5 21 -20.5 50q0 28 20.5 48t49.5 20t50 -20t21 -48t-21.5 -49.5t-49.5 -21.5q-29 0 -49.5 21zM392.5 586
q-20.5 21 -20.5 50q0 28 20.5 48t49.5 20t49.5 -20t20.5 -48q0 -29 -21 -50t-49 -21q-29 0 -49.5 21z" />
    <glyph glyph-name="igrave" unicode="&#xec;" horiz-adv-x="338" 
d="M120.5 17.5q-17.5 14.5 -17.5 38.5l9 399q0 24 17 38t44 14q28 0 45.5 -14.5t17.5 -39.5l-13 -399q0 -22 -16 -36.5t-42 -14.5q-27 0 -44.5 14.5zM199 557q-10 5 -20 17l-79 86q-21 23 -21 44q0 19 12.5 32t31.5 13q24 0 49 -29l73 -85q17 -19 17 -40q0 -18 -12 -30.5
t-29 -12.5q-12 0 -22 5z" />
    <glyph glyph-name="iacute" unicode="&#xed;" horiz-adv-x="338" 
d="M120.5 17.5q-17.5 14.5 -17.5 38.5l9 399q0 24 17 38t44 14q28 0 45.5 -14.5t17.5 -39.5l-13 -399q0 -22 -16 -36.5t-42 -14.5q-27 0 -44.5 14.5zM99 564.5q-12 12.5 -12 30.5q0 10 4.5 21.5t13.5 18.5l89 85q15 15 26 22t23 7q20 0 32.5 -12.5t12.5 -32.5q0 -25 -21 -44
l-96 -86q-23 -22 -42 -22q-18 0 -30 12.5z" />
    <glyph glyph-name="icircumflex" unicode="&#xee;" horiz-adv-x="338" 
d="M120.5 17.5q-17.5 14.5 -17.5 38.5l9 399q0 24 17 38t44 14q28 0 45.5 -14.5t17.5 -39.5l-13 -399q0 -22 -16 -36.5t-42 -14.5q-27 0 -44.5 14.5zM249 573l-30 38q-17 23 -30.5 39.5t-18.5 16.5q-7 0 -47 -46q-10 -10 -18 -19.5t-16 -17.5q-13 -13 -22 -19t-20 -6
q-18 0 -32 13.5t-14 31.5q0 20 13 33l27 29q40 44 70.5 70.5t54.5 26.5q28 0 49 -18t54 -58q23 -30 49 -57q13 -13 13 -32q0 -18 -12.5 -31t-29.5 -13q-25 0 -40 19z" />
    <glyph glyph-name="idieresis" unicode="&#xef;" horiz-adv-x="338" 
d="M120.5 17.5q-17.5 14.5 -17.5 38.5l9 399q0 24 17 38t44 14q28 0 45.5 -14.5t17.5 -39.5l-13 -399q0 -22 -16 -36.5t-42 -14.5q-27 0 -44.5 14.5zM-13.5 586q-20.5 21 -20.5 50q0 28 20.5 48t49.5 20t50 -20t21 -48t-21.5 -49.5t-49.5 -21.5q-29 0 -49.5 21zM250.5 586
q-20.5 21 -20.5 50q0 28 20.5 48t49.5 20t49.5 -20t20.5 -48q0 -29 -21 -50t-49 -21q-29 0 -49.5 21z" />
    <glyph glyph-name="eth" unicode="&#xf0;" horiz-adv-x="604" 
d="M531 422q27 -79 27 -152q0 -82 -33.5 -143t-93 -93.5t-134.5 -32.5t-132 32t-88 87.5t-31 125.5q0 72 32.5 129t90 89t127.5 32q36 0 73 -10q-7 11 -25 33q-19 21 -42 43l-58 -33q-22 -11 -40 -11q-19 0 -33.5 13t-14.5 33q0 23 24 36l35 20q-14 8 -29 15q-18 9 -25.5 18
t-7.5 25q0 23 15 38t35 15t52 -15q36 -16 67 -35l63 36q5 4 15 7t17 3q15 0 32 -12.5t17 -35.5q0 -14 -7 -23.5t-22 -17.5l-33 -19q26 -24 48 -52q52 -66 79 -145zM396.5 143.5q37.5 45.5 37.5 132.5q0 24 -3 49q-51 76 -125 76q-38 0 -69.5 -19.5t-50 -55t-18.5 -80.5
q0 -64 36 -106t95 -42q60 0 97.5 45.5z" />
    <glyph glyph-name="ntilde" unicode="&#xf1;" horiz-adv-x="567" 
d="M465 449.5q47 -60.5 47 -180.5l-1 -229q0 -20 -17 -30t-43 -10t-44 9t-18 27v234q0 77 -17 110.5t-57 33.5q-38 0 -61 -31.5t-36 -103.5q-7 -44 -7 -100l1 -135q0 -22 -16.5 -33.5t-44.5 -11.5t-44.5 12t-16.5 33q0 168 -7 332q0 16 -5 28t-11.5 22t-8.5 14q-6 8 -6 19
q0 18 21.5 34t40.5 16q10 0 19 -6t20 -21q24 -32 24 -60v-8q18 41 55.5 68.5t99.5 27.5q86 0 133 -60.5zM115 614q0 16 12 31q27 32 49 45.5t52 13.5q49 0 95 -24q6 -3 18.5 -9.5t17.5 -8.5t10 -2q10 0 19 11q11 11 19 16t18 5q17 0 31.5 -15t14.5 -32q0 -19 -14 -33
q-22 -22 -43 -32.5t-45 -10.5q-19 0 -36 6t-31 13t-19 9q-36 19 -48 19q-7 0 -14 -6t-21 -21q-18 -20 -40 -20q-17 0 -31 12q-14 16 -14 33z" />
    <glyph glyph-name="ograve" unicode="&#xf2;" horiz-adv-x="602" 
d="M106.5 62q-74.5 64 -74.5 187q0 79 32 139.5t92 94.5t141 34q80 0 142.5 -34t97 -95.5t34.5 -142.5q0 -119 -73 -183t-195 -64t-196.5 64zM408.5 131.5q39.5 38.5 39.5 114.5t-39 126t-108 50q-67 0 -107 -47t-40 -126t40.5 -117.5t106.5 -38.5q68 0 107.5 38.5zM332 557
q-10 5 -20 17l-79 86q-21 23 -21 44q0 19 12.5 32t31.5 13q24 0 49 -29l73 -85q17 -19 17 -40q0 -18 -12 -30.5t-29 -12.5q-12 0 -22 5z" />
    <glyph glyph-name="oacute" unicode="&#xf3;" horiz-adv-x="602" 
d="M106.5 62q-74.5 64 -74.5 187q0 79 32 139.5t92 94.5t141 34q80 0 142.5 -34t97 -95.5t34.5 -142.5q0 -119 -73 -183t-195 -64t-196.5 64zM408.5 131.5q39.5 38.5 39.5 114.5t-39 126t-108 50q-67 0 -107 -47t-40 -126t40.5 -117.5t106.5 -38.5q68 0 107.5 38.5z
M231 564.5q-12 12.5 -12 30.5q0 10 4.5 21.5t13.5 18.5l89 85q15 15 26 22t23 7q20 0 32.5 -12.5t12.5 -32.5q0 -25 -21 -44l-96 -86q-23 -22 -42 -22q-18 0 -30 12.5z" />
    <glyph glyph-name="ocircumflex" unicode="&#xf4;" horiz-adv-x="602" 
d="M106.5 62q-74.5 64 -74.5 187q0 79 32 139.5t92 94.5t141 34q80 0 142.5 -34t97 -95.5t34.5 -142.5q0 -119 -73 -183t-195 -64t-196.5 64zM408.5 131.5q39.5 38.5 39.5 114.5t-39 126t-108 50q-67 0 -107 -47t-40 -126t40.5 -117.5t106.5 -38.5q68 0 107.5 38.5zM382 573
l-30 38q-17 23 -30.5 39.5t-18.5 16.5q-7 0 -47 -46q-10 -10 -18 -19.5t-16 -17.5q-13 -13 -22 -19t-20 -6q-18 0 -32 13.5t-14 31.5q0 20 13 33l27 29q40 44 70.5 70.5t54.5 26.5q28 0 49 -18t54 -58q23 -30 49 -57q13 -13 13 -32q0 -18 -12.5 -31t-29.5 -13q-25 0 -40 19z
" />
    <glyph glyph-name="otilde" unicode="&#xf5;" horiz-adv-x="602" 
d="M106.5 62q-74.5 64 -74.5 187q0 79 32 139.5t92 94.5t141 34q80 0 142.5 -34t97 -95.5t34.5 -142.5q0 -119 -73 -183t-195 -64t-196.5 64zM408.5 131.5q39.5 38.5 39.5 114.5t-39 126t-108 50q-67 0 -107 -47t-40 -126t40.5 -117.5t106.5 -38.5q68 0 107.5 38.5zM122 614
q0 16 12 31q27 32 49 45.5t52 13.5q49 0 95 -24q6 -3 18.5 -9.5t17.5 -8.5t10 -2q10 0 19 11q11 11 19 16t18 5q17 0 31.5 -15t14.5 -32q0 -19 -14 -33q-22 -22 -43 -32.5t-45 -10.5q-19 0 -36 6t-31 13t-19 9q-36 19 -48 19q-7 0 -14 -6t-21 -21q-18 -20 -40 -20
q-17 0 -31 12q-14 16 -14 33z" />
    <glyph glyph-name="odieresis" unicode="&#xf6;" horiz-adv-x="602" 
d="M106.5 62q-74.5 64 -74.5 187q0 79 32 139.5t92 94.5t141 34q80 0 142.5 -34t97 -95.5t34.5 -142.5q0 -119 -73 -183t-195 -64t-196.5 64zM408.5 131.5q39.5 38.5 39.5 114.5t-39 126t-108 50q-67 0 -107 -47t-40 -126t40.5 -117.5t106.5 -38.5q68 0 107.5 38.5z
M119.5 586q-20.5 21 -20.5 50q0 28 20.5 48t49.5 20t50 -20t21 -48t-21.5 -49.5t-49.5 -21.5q-29 0 -49.5 21zM383.5 586q-20.5 21 -20.5 50q0 28 20.5 48t49.5 20t49.5 -20t20.5 -48q0 -29 -21 -50t-49 -21q-29 0 -49.5 21z" />
    <glyph glyph-name="divide" unicode="&#xf7;" horiz-adv-x="553" 
d="M237.5 420q-18.5 17 -18.5 42q0 26 19 44.5t45 18.5q27 0 46 -17.5t19 -44.5q0 -26 -18.5 -43t-46.5 -17q-27 0 -45.5 17zM73.5 272q-12.5 12 -12.5 28q0 13 11 30q16 23 48 37t72 14q28 0 60.5 -5.5t50.5 -11.5q16 -5 42 -9.5t40 -4.5q13 0 22 3t20 9q7 4 15.5 7t17.5 3
q20 0 33 -14t13 -31q0 -23 -31 -43q-15 -9 -42.5 -16t-50.5 -7q-26 0 -58 6.5t-56 15.5q-38 12 -71 12q-21 0 -35.5 -9t-16.5 -10q-4 -2 -17 -9t-25 -7q-17 0 -29.5 12zM237 131q-19 18 -19 45q0 24 20.5 42.5t46.5 18.5q25 0 44.5 -18.5t19.5 -42.5q0 -27 -19.5 -45
t-46.5 -18t-46 18z" />
    <glyph glyph-name="oslash" unicode="&#xf8;" horiz-adv-x="605" 
d="M554.5 352q18.5 -49 18.5 -107q0 -119 -72.5 -183t-194.5 -64q-89 0 -153 34l-43 -51q-14 -18 -34 -18q-16 0 -29.5 12t-13.5 27q0 17 11 30l44 51q-54 65 -54 166q0 79 32 139.5t92 94.5t141 34q77 0 135 -30l38 45q17 18 38 18q17 0 29 -12.5t12 -29.5q0 -16 -11 -27
l-38 -44q34 -36 52.5 -85zM168 177l198 231q-28 14 -63 14q-67 0 -106.5 -47t-39.5 -126q0 -41 11 -72zM411 132q40 39 40 114q0 60 -24 103l-204 -237q34 -19 81 -19q67 0 107 39z" />
    <glyph glyph-name="ugrave" unicode="&#xf9;" horiz-adv-x="564" 
d="M484.5 95q5.5 -18 12.5 -29.5t7 -14.5q0 -20 -16 -34.5t-40 -14.5q-20 0 -41 23t-25 48q-39 -74 -140 -74q-87 0 -133.5 60.5t-46.5 161.5v240q0 19 17 31.5t43 12.5q25 0 43 -12.5t18 -31.5v-239q0 -57 18 -92.5t57 -35.5q49 0 72 45.5t23 141.5v179q0 24 16.5 37
t43.5 13q28 0 45.5 -13.5t17.5 -36.5l3 -318q0 -29 5.5 -47zM298 557q-10 5 -20 17l-79 86q-21 23 -21 44q0 19 12.5 32t31.5 13q24 0 49 -29l73 -85q17 -19 17 -40q0 -18 -12 -30.5t-29 -12.5q-12 0 -22 5z" />
    <glyph glyph-name="uacute" unicode="&#xfa;" horiz-adv-x="564" 
d="M484.5 95q5.5 -18 12.5 -29.5t7 -14.5q0 -20 -16 -34.5t-40 -14.5q-20 0 -41 23t-25 48q-39 -74 -140 -74q-87 0 -133.5 60.5t-46.5 161.5v240q0 19 17 31.5t43 12.5q25 0 43 -12.5t18 -31.5v-239q0 -57 18 -92.5t57 -35.5q49 0 72 45.5t23 141.5v179q0 24 16.5 37
t43.5 13q28 0 45.5 -13.5t17.5 -36.5l3 -318q0 -29 5.5 -47zM197 564.5q-12 12.5 -12 30.5q0 10 4.5 21.5t13.5 18.5l89 85q15 15 26 22t23 7q20 0 32.5 -12.5t12.5 -32.5q0 -25 -21 -44l-96 -86q-23 -22 -42 -22q-18 0 -30 12.5z" />
    <glyph glyph-name="ucircumflex" unicode="&#xfb;" horiz-adv-x="564" 
d="M484.5 95q5.5 -18 12.5 -29.5t7 -14.5q0 -20 -16 -34.5t-40 -14.5q-20 0 -41 23t-25 48q-39 -74 -140 -74q-87 0 -133.5 60.5t-46.5 161.5v240q0 19 17 31.5t43 12.5q25 0 43 -12.5t18 -31.5v-239q0 -57 18 -92.5t57 -35.5q49 0 72 45.5t23 141.5v179q0 24 16.5 37
t43.5 13q28 0 45.5 -13.5t17.5 -36.5l3 -318q0 -29 5.5 -47zM348 573l-30 38q-17 23 -30.5 39.5t-18.5 16.5q-7 0 -47 -46q-10 -10 -18 -19.5t-16 -17.5q-13 -13 -22 -19t-20 -6q-18 0 -32 13.5t-14 31.5q0 20 13 33l27 29q40 44 70.5 70.5t54.5 26.5q28 0 49 -18t54 -58
q23 -30 49 -57q13 -13 13 -32q0 -18 -12.5 -31t-29.5 -13q-25 0 -40 19z" />
    <glyph glyph-name="udieresis" unicode="&#xfc;" horiz-adv-x="564" 
d="M484.5 95q5.5 -18 12.5 -29.5t7 -14.5q0 -20 -16 -34.5t-40 -14.5q-20 0 -41 23t-25 48q-39 -74 -140 -74q-87 0 -133.5 60.5t-46.5 161.5v240q0 19 17 31.5t43 12.5q25 0 43 -12.5t18 -31.5v-239q0 -57 18 -92.5t57 -35.5q49 0 72 45.5t23 141.5v179q0 24 16.5 37
t43.5 13q28 0 45.5 -13.5t17.5 -36.5l3 -318q0 -29 5.5 -47zM85.5 586q-20.5 21 -20.5 50q0 28 20.5 48t49.5 20t50 -20t21 -48t-21.5 -49.5t-49.5 -21.5q-29 0 -49.5 21zM349.5 586q-20.5 21 -20.5 50q0 28 20.5 48t49.5 20t49.5 -20t20.5 -48q0 -29 -21 -50t-49 -21
q-29 0 -49.5 21z" />
    <glyph glyph-name="yacute" unicode="&#xfd;" horiz-adv-x="535" 
d="M182 -246.5q-18 15.5 -18 38.5q0 8 4 22q25 63 82 227q-46 32 -89 103t-74.5 153.5t-44.5 147.5q-2 8 -2 18q0 23 15.5 35t41.5 12q25 0 35 -9.5t14 -28.5q33 -122 70.5 -205.5t74.5 -109.5q25 85 56 205l30 114q5 20 16 28t33 8q29 0 47 -12.5t19 -33.5q0 -7 -1 -11
q-51 -205 -106 -375q-72 -223 -105 -305q-8 -18 -18.5 -27.5t-32.5 -9.5q-29 0 -47 15.5zM198 564.5q-12 12.5 -12 30.5q0 10 4.5 21.5t13.5 18.5l89 85q15 15 26 22t23 7q20 0 32.5 -12.5t12.5 -32.5q0 -25 -21 -44l-96 -86q-23 -22 -42 -22q-18 0 -30 12.5z" />
    <glyph glyph-name="thorn" unicode="&#xfe;" horiz-adv-x="600" 
d="M429 486q59 -30 93.5 -88.5t34.5 -140.5q0 -121 -71 -189t-196 -68q-34 0 -68.5 10t-60.5 27q-2 -110 -9 -190q-2 -21 -19.5 -33.5t-43.5 -12.5q-25 0 -41.5 14t-16.5 36q0 56 6 188q4 100 4 242q0 258 -1 322v63q0 25 16 39t42 14q27 0 45.5 -14t18.5 -35
q0 -130 -1 -207q29 24 66 38.5t71 14.5q72 0 131 -30zM396 137.5q39 42.5 39 120.5q0 52 -19 88.5t-51 55.5t-70 19q-31 0 -60 -14.5t-48.5 -35t-24.5 -37.5v-92l-1 -105q9 -14 48 -28t77 -14q71 0 110 42.5z" />
    <glyph glyph-name="ydieresis" unicode="&#xff;" horiz-adv-x="535" 
d="M182 -246.5q-18 15.5 -18 38.5q0 8 4 22q25 63 82 227q-46 32 -89 103t-74.5 153.5t-44.5 147.5q-2 8 -2 18q0 23 15.5 35t41.5 12q25 0 35 -9.5t14 -28.5q33 -122 70.5 -205.5t74.5 -109.5q25 85 56 205l30 114q5 20 16 28t33 8q29 0 47 -12.5t19 -33.5q0 -7 -1 -11
q-51 -205 -106 -375q-72 -223 -105 -305q-8 -18 -18.5 -27.5t-32.5 -9.5q-29 0 -47 15.5zM85.5 586q-20.5 21 -20.5 50q0 28 20.5 48t49.5 20t50 -20t21 -48t-21.5 -49.5t-49.5 -21.5q-29 0 -49.5 21zM349.5 586q-20.5 21 -20.5 50q0 28 20.5 48t49.5 20t49.5 -20t20.5 -48
q0 -29 -21 -50t-49 -21q-29 0 -49.5 21z" />
    <glyph glyph-name="Amacron" unicode="&#x100;" horiz-adv-x="695" 
d="M626 57q3 -9 3 -16q0 -25 -20.5 -38.5t-48.5 -13.5q-22 0 -38 9t-21 27l-38 138l-231 1q-7 -24 -13.5 -45.5t-11.5 -39.5l-15 -51q-6 -19 -21.5 -28.5t-36.5 -9.5q-28 0 -48.5 14t-20.5 37q0 5 2 17l142 426l35 107q21 65 46 93t65 28q39 0 62 -25t43 -87
q43 -130 101 -327h28q21 0 33 -14t12 -41q0 -56 -35 -56h-5zM432 275q-30 112 -52 186q-2 7 -4 12t-3 10q-8 28 -13 41t-10 13t-10 -13t-10 -32q-5 -20 -7 -26l-57 -190zM262.5 795q-11.5 -1 -21.5 -1q-26 0 -53 10q-33 12 -33 47q0 20 13 32t32 12q8 0 30 -3.5t47 -3.5
q22 0 66 4q50 4 78 4q23 0 65 -4q17 -2 30.5 -15.5t13.5 -31.5q0 -21 -14.5 -34t-30.5 -12q-8 1 -25.5 3t-32.5 2q-28 0 -72 -4q-42 -4 -67 -4q-14 0 -25.5 -1z" />
    <glyph glyph-name="amacron" unicode="&#x101;" horiz-adv-x="617" 
d="M561.5 83.5q9.5 -9.5 9.5 -33.5q0 -21 -11 -35t-29 -14q-43 0 -65 11t-39 41q-42 -63 -152 -63q-115 0 -172 67.5t-57 177.5q0 73 29.5 132t84.5 93t127 34q41 0 74 -16.5t50 -43.5l3 21q1 14 13 24t38 10q30 0 43.5 -14t10.5 -35q-6 -32 -13 -113q-3 -40 -3 -103v-47
q0 -42 5 -60.5t27 -20.5q17 -3 26.5 -12.5zM386 303q0 46 -29.5 71t-67.5 25q-55 0 -88 -48t-33 -115q0 -65 29 -108t85 -43q46 0 74 24t29 69q1 43 1 125zM97.5 588.5q-10.5 13.5 -10.5 34.5t11 33t31 15q71 11 169 15q21 1 61 1l83 -1q22 0 35.5 -14.5t13.5 -36.5
q0 -20 -13 -31.5t-35 -11.5t-38 1q-52 2 -96 2q-54 0 -92.5 -4.5t-89.5 -12.5q-19 -3 -29.5 10.5z" />
    <glyph glyph-name="Abreve" unicode="&#x102;" horiz-adv-x="695" 
d="M626 57q3 -9 3 -16q0 -25 -20.5 -38.5t-48.5 -13.5q-22 0 -38 9t-21 27l-38 138l-231 1q-7 -24 -13.5 -45.5t-11.5 -39.5l-15 -51q-6 -19 -21.5 -28.5t-36.5 -9.5q-28 0 -48.5 14t-20.5 37q0 5 2 17l142 426l35 107q21 65 46 93t65 28q39 0 62 -25t43 -87
q43 -130 101 -327h28q21 0 33 -14t12 -41q0 -56 -35 -56h-5zM432 275q-30 112 -52 186q-2 7 -4 12t-3 10q-8 28 -13 41t-10 13t-10 -13t-10 -32q-5 -20 -7 -26l-57 -190zM260 774.5q-40 19.5 -63 53t-23 74.5q0 17 13.5 30.5t31.5 13.5q16 0 28.5 -7.5t13.5 -20.5
q5 -41 28 -62.5t59 -21.5q31 0 55 21.5t25 58.5q0 17 13.5 26t30.5 9q18 0 31.5 -13t13.5 -31q0 -41 -23 -75.5t-61.5 -54.5t-83.5 -20q-49 0 -89 19.5z" />
    <glyph glyph-name="abreve" unicode="&#x103;" horiz-adv-x="617" 
d="M561.5 83.5q9.5 -9.5 9.5 -33.5q0 -21 -11 -35t-29 -14q-43 0 -65 11t-39 41q-42 -63 -152 -63q-115 0 -172 67.5t-57 177.5q0 73 29.5 132t84.5 93t127 34q41 0 74 -16.5t50 -43.5l3 21q1 14 13 24t38 10q30 0 43.5 -14t10.5 -35q-6 -32 -13 -113q-3 -40 -3 -103v-47
q0 -42 5 -60.5t27 -20.5q17 -3 26.5 -12.5zM386 303q0 46 -29.5 71t-67.5 25q-55 0 -88 -48t-33 -115q0 -65 29 -108t85 -43q46 0 74 24t29 69q1 43 1 125zM205 574.5q-40 19.5 -63 53t-23 74.5q0 17 13.5 30.5t31.5 13.5q16 0 28.5 -7.5t13.5 -20.5q5 -41 28 -62.5
t59 -21.5q31 0 55 21.5t25 58.5q0 17 13.5 26t30.5 9q18 0 31.5 -13t13.5 -31q0 -41 -23 -75.5t-61.5 -54.5t-83.5 -20q-49 0 -89 19.5z" />
    <glyph glyph-name="Aogonek" unicode="&#x104;" horiz-adv-x="695" 
d="M634.5 -106q7.5 -9 7.5 -25q0 -25 -19 -38.5t-52 -13.5q-52 0 -82 24.5t-30 70.5q0 52 47 102q-4 5 -5 11l-38 138l-231 1q-7 -24 -13.5 -45.5t-11.5 -39.5l-15 -51q-6 -19 -21.5 -28.5t-36.5 -9.5q-28 0 -48.5 14t-20.5 37q0 5 2 17l142 426l35 107q21 65 46 93t65 28
q39 0 62 -25t43 -87q43 -130 101 -327h28q21 0 33 -14t12 -41q0 -56 -35 -56h-5l32 -105q3 -9 3 -16q0 -28 -25 -41q-4 -7 -11 -12q-26 -21 -36.5 -36.5t-10.5 -30.5q0 -13 8 -20t22 -7q6 0 21 4.5t19 4.5q11 0 18.5 -9zM432 275q-30 112 -52 186q-2 7 -4 12t-3 10
q-8 28 -13 41t-10 13t-10 -13t-10 -32q-5 -20 -7 -26l-57 -190z" />
    <glyph glyph-name="aogonek" unicode="&#x105;" horiz-adv-x="617" 
d="M589.5 -92q7.5 -9 7.5 -25q0 -25 -18.5 -38.5t-52.5 -13.5q-51 0 -81.5 24.5t-30.5 70.5q0 49 40 94q-15 12 -27 33q-42 -63 -152 -63q-115 0 -172 67.5t-57 177.5q0 73 29.5 132t84.5 93t127 34q41 0 74 -16.5t50 -43.5l3 21q1 14 13 24t38 10q30 0 43.5 -14t10.5 -35
q-6 -32 -13 -113q-3 -40 -3 -103v-47q0 -42 5 -60.5t27 -20.5q17 -3 26.5 -12.5t9.5 -33.5q0 -27 -16 -40l-7 -7q-25 -22 -36 -37.5t-11 -29.5q0 -13 8 -20t23 -7q6 0 20 4q16 4 20 4q10 0 17.5 -9zM386 303q0 46 -29.5 71t-67.5 25q-55 0 -88 -48t-33 -115q0 -65 29 -108
t85 -43q46 0 74 24t29 69q1 43 1 125z" />
    <glyph glyph-name="Cacute" unicode="&#x106;" horiz-adv-x="733" 
d="M684 293.5q17 -15.5 17 -43.5q0 -71 -39 -129t-109 -91.5t-158 -33.5q-99 0 -177.5 40t-123 116.5t-44.5 180.5q0 107 43 194t116 137t160 50q117 0 181 -64v18q0 18 16 30.5t42 12.5q28 0 44 -14t16 -41l-1 -102q-1 -36 -15 -54.5t-45 -18.5q-34 0 -50 22
q-35 49 -70 74.5t-92 25.5t-108.5 -36t-83 -98t-31.5 -136q0 -69 31 -120.5t82.5 -78.5t111.5 -27q46 0 87 17t66.5 49.5t25.5 77.5q0 26 16 42t45 16q30 0 47 -15.5zM327 764.5q-12 12.5 -12 30.5q0 10 4.5 21.5t13.5 18.5l89 85q15 15 26 22t23 7q20 0 32.5 -12.5
t12.5 -32.5q0 -25 -21 -44l-96 -86q-23 -22 -42 -22q-18 0 -30 12.5z" />
    <glyph glyph-name="cacute" unicode="&#x107;" horiz-adv-x="595" 
d="M164.5 31.5q-57.5 31.5 -88.5 87t-31 126.5q0 74 32.5 135.5t92 97.5t136.5 36q82 0 142.5 -40t85.5 -100q6 -15 6 -27q0 -28 -39 -38q-10 -3 -20 -3q-17 0 -28 9.5t-23 29.5q-17 32 -46 53t-71 21q-43 0 -76 -23.5t-51.5 -63.5t-18.5 -88q0 -68 36.5 -108.5t106.5 -40.5
q66 0 99.5 34.5t34.5 78.5q0 15 14 26t37 11q28 0 43 -11t15 -38q0 -48 -26.5 -93t-83.5 -74t-145 -29q-76 0 -133.5 31.5zM233 564.5q-12 12.5 -12 30.5q0 10 4.5 21.5t13.5 18.5l89 85q15 15 26 22t23 7q20 0 32.5 -12.5t12.5 -32.5q0 -25 -21 -44l-96 -86
q-23 -22 -42 -22q-18 0 -30 12.5z" />
    <glyph glyph-name="Ccircumflex" unicode="&#x108;" horiz-adv-x="733" 
d="M684 293.5q17 -15.5 17 -43.5q0 -71 -39 -129t-109 -91.5t-158 -33.5q-99 0 -177.5 40t-123 116.5t-44.5 180.5q0 107 43 194t116 137t160 50q117 0 181 -64v18q0 18 16 30.5t42 12.5q28 0 44 -14t16 -41l-1 -102q-1 -36 -15 -54.5t-45 -18.5q-34 0 -50 22
q-35 49 -70 74.5t-92 25.5t-108.5 -36t-83 -98t-31.5 -136q0 -69 31 -120.5t82.5 -78.5t111.5 -27q46 0 87 17t66.5 49.5t25.5 77.5q0 26 16 42t45 16q30 0 47 -15.5zM478 773l-30 38q-17 23 -30.5 39.5t-18.5 16.5q-7 0 -47 -46q-10 -10 -18 -19.5t-16 -17.5
q-13 -13 -22 -19t-20 -6q-18 0 -32 13.5t-14 31.5q0 20 13 33l27 29q40 44 70.5 70.5t54.5 26.5q28 0 49 -18t54 -58q23 -30 49 -57q13 -13 13 -32q0 -18 -12.5 -31t-29.5 -13q-25 0 -40 19z" />
    <glyph glyph-name="ccircumflex" unicode="&#x109;" horiz-adv-x="595" 
d="M164.5 31.5q-57.5 31.5 -88.5 87t-31 126.5q0 74 32.5 135.5t92 97.5t136.5 36q82 0 142.5 -40t85.5 -100q6 -15 6 -27q0 -28 -39 -38q-10 -3 -20 -3q-17 0 -28 9.5t-23 29.5q-17 32 -46 53t-71 21q-43 0 -76 -23.5t-51.5 -63.5t-18.5 -88q0 -68 36.5 -108.5t106.5 -40.5
q66 0 99.5 34.5t34.5 78.5q0 15 14 26t37 11q28 0 43 -11t15 -38q0 -48 -26.5 -93t-83.5 -74t-145 -29q-76 0 -133.5 31.5zM384 573l-30 38q-17 23 -30.5 39.5t-18.5 16.5q-7 0 -47 -46q-10 -10 -18 -19.5t-16 -17.5q-13 -13 -22 -19t-20 -6q-18 0 -32 13.5t-14 31.5
q0 20 13 33l27 29q40 44 70.5 70.5t54.5 26.5q28 0 49 -18t54 -58q23 -30 49 -57q13 -13 13 -32q0 -18 -12.5 -31t-29.5 -13q-25 0 -40 19z" />
    <glyph glyph-name="Cdotaccent" unicode="&#x10a;" horiz-adv-x="733" 
d="M684 293.5q17 -15.5 17 -43.5q0 -71 -39 -129t-109 -91.5t-158 -33.5q-99 0 -177.5 40t-123 116.5t-44.5 180.5q0 107 43 194t116 137t160 50q117 0 181 -64v18q0 18 16 30.5t42 12.5q28 0 44 -14t16 -41l-1 -102q-1 -36 -15 -54.5t-45 -18.5q-34 0 -50 22
q-35 49 -70 74.5t-92 25.5t-108.5 -36t-83 -98t-31.5 -136q0 -69 31 -120.5t82.5 -78.5t111.5 -27q46 0 87 17t66.5 49.5t25.5 77.5q0 26 16 42t45 16q30 0 47 -15.5zM347 785q-20 20 -20 51q0 29 20 48.5t50 19.5t50 -19.5t20 -48.5q0 -31 -19.5 -51t-50.5 -20
q-30 0 -50 20z" />
    <glyph glyph-name="cdotaccent" unicode="&#x10b;" horiz-adv-x="595" 
d="M164.5 31.5q-57.5 31.5 -88.5 87t-31 126.5q0 74 32.5 135.5t92 97.5t136.5 36q82 0 142.5 -40t85.5 -100q6 -15 6 -27q0 -28 -39 -38q-10 -3 -20 -3q-17 0 -28 9.5t-23 29.5q-17 32 -46 53t-71 21q-43 0 -76 -23.5t-51.5 -63.5t-18.5 -88q0 -68 36.5 -108.5t106.5 -40.5
q66 0 99.5 34.5t34.5 78.5q0 15 14 26t37 11q28 0 43 -11t15 -38q0 -48 -26.5 -93t-83.5 -74t-145 -29q-76 0 -133.5 31.5zM254 585q-20 20 -20 51q0 29 20 48.5t50 19.5t50 -19.5t20 -48.5q0 -31 -19.5 -51t-50.5 -20q-30 0 -50 20z" />
    <glyph glyph-name="Ccaron" unicode="&#x10c;" horiz-adv-x="733" 
d="M684 293.5q17 -15.5 17 -43.5q0 -71 -39 -129t-109 -91.5t-158 -33.5q-99 0 -177.5 40t-123 116.5t-44.5 180.5q0 107 43 194t116 137t160 50q117 0 181 -64v18q0 18 16 30.5t42 12.5q28 0 44 -14t16 -41l-1 -102q-1 -36 -15 -54.5t-45 -18.5q-34 0 -50 22
q-35 49 -70 74.5t-92 25.5t-108.5 -36t-83 -98t-31.5 -136q0 -69 31 -120.5t82.5 -78.5t111.5 -27q46 0 87 17t66.5 49.5t25.5 77.5q0 26 16 42t45 16q30 0 47 -15.5zM547.5 951q12.5 -13 12.5 -31q0 -14 -13 -32q-40 -54 -59 -77.5t-42.5 -39.5t-50.5 -16t-61.5 31
t-75.5 79q-7 7 -15 17q-13 14 -13 32t14 31.5t32 13.5q11 0 20 -6t22 -19q8 -8 16 -17.5t18 -19.5q40 -46 47 -46q4 0 17.5 15.5t29.5 37.5q10 15 32 42q15 18 40 18q17 0 29.5 -13z" />
    <glyph glyph-name="ccaron" unicode="&#x10d;" horiz-adv-x="595" 
d="M164.5 31.5q-57.5 31.5 -88.5 87t-31 126.5q0 74 32.5 135.5t92 97.5t136.5 36q82 0 142.5 -40t85.5 -100q6 -15 6 -27q0 -28 -39 -38q-10 -3 -20 -3q-17 0 -28 9.5t-23 29.5q-17 32 -46 53t-71 21q-43 0 -76 -23.5t-51.5 -63.5t-18.5 -88q0 -68 36.5 -108.5t106.5 -40.5
q66 0 99.5 34.5t34.5 78.5q0 15 14 26t37 11q28 0 43 -11t15 -38q0 -48 -26.5 -93t-83.5 -74t-145 -29q-76 0 -133.5 31.5zM453.5 751q12.5 -13 12.5 -31q0 -14 -13 -32q-40 -54 -59 -77.5t-42.5 -39.5t-50.5 -16t-61.5 31t-75.5 79q-7 7 -15 17q-13 14 -13 32t14 31.5
t32 13.5q11 0 20 -6t22 -19q8 -8 16 -17.5t18 -19.5q40 -46 47 -46q4 0 17.5 15.5t29.5 37.5q10 15 32 42q15 18 40 18q17 0 29.5 -13z" />
    <glyph glyph-name="Dcaron" unicode="&#x10e;" horiz-adv-x="707" 
d="M547 596.5q109 -83.5 109 -234.5q0 -107 -54.5 -187.5t-156 -124.5t-236.5 -44h-67q-36 0 -52.5 12.5t-16.5 42.5q0 53 48 53h18l-13 479h-6q-22 0 -35 12.5t-13 39.5q0 30 14.5 43.5t37.5 13.5h12q14 17 49 17q38 0 52 -22q201 -17 310 -100.5zM400.5 154
q61.5 31 97.5 84.5t36 123.5q0 193 -285 225l12 -471q78 7 139.5 38zM493.5 951q12.5 -13 12.5 -31q0 -14 -13 -32q-40 -54 -59 -77.5t-42.5 -39.5t-50.5 -16t-61.5 31t-75.5 79q-7 7 -15 17q-13 14 -13 32t14 31.5t32 13.5q11 0 20 -6t22 -19q8 -8 16 -17.5t18 -19.5
q40 -46 47 -46q4 0 17.5 15.5t29.5 37.5q10 15 32 42q15 18 40 18q17 0 29.5 -13z" />
    <glyph glyph-name="dcaron" unicode="&#x10f;" horiz-adv-x="802" 
d="M174 23q-60 31 -94 90t-34 141q0 79 32.5 137t92 89.5t138.5 31.5q84 0 135 -40q8 244 15 338q1 21 17.5 33.5t42.5 12.5q28 0 46 -14.5t15 -37.5q-6 -59 -11.5 -233t-5.5 -307q0 -126 5 -145q7 -29 29 -51q5 -7 5 -18q0 -22 -20 -39.5t-44 -17.5q-20 0 -36 10
q-15 11 -26.5 25.5t-18.5 38.5q-25 -34 -62.5 -54.5t-84.5 -20.5q-76 0 -136 31zM374.5 107.5q30.5 16.5 49 44.5t18.5 58v150q-12 20 -50.5 38t-78.5 18q-68 0 -106.5 -43.5t-38.5 -120.5q0 -51 19.5 -87.5t52 -55t70.5 -18.5q34 0 64.5 16.5zM770.5 817.5
q21.5 -22.5 21.5 -53.5q0 -37 -24 -76t-68 -76q-12 -9 -27 -9q-17 0 -27.5 10.5t-10.5 24.5t10 25q3 4 14 15q14 14 26 29q-18 3 -30 21t-12 38q0 31 22 52.5t53 21.5t52.5 -22.5z" />
    <glyph glyph-name="Dcroat" unicode="&#x110;" horiz-adv-x="718" 
d="M465 650q95 -42 148.5 -117t53.5 -179q0 -105 -54.5 -183.5t-155.5 -121.5t-237 -43h-67q-35 0 -52 13t-17 44q0 49 58 51l-5 189l-31 1q-38 1 -58.5 17t-20.5 44q0 29 21 46t60 16l25 -1l-5 172q-45 11 -45 54q0 22 13 32.5t44 15.5q14 16 51 16q38 0 55 -16
q124 -8 219 -50zM464 193.5q67 63.5 67 166.5q0 197 -264 228l4 -165l57 -2q34 -2 54.5 -18.5t20.5 -44.5q0 -27 -20.5 -43t-55.5 -16l-52 1l5 -183q117 13 184 76.5z" />
    <glyph glyph-name="dcroat" unicode="&#x111;" horiz-adv-x="707" 
d="M655.5 715q14.5 -12 14.5 -33t-14.5 -34.5t-37.5 -13.5l-48 -1q-7 -201 -7 -368q0 -127 5 -146q7 -29 29 -51q5 -7 5 -18q0 -22 -20 -39.5t-44 -17.5q-20 0 -36 10q-15 11 -26.5 25.5t-18.5 38.5q-25 -34 -62.5 -54.5t-84.5 -20.5q-76 0 -136 31t-94 90t-34 141
q0 79 32.5 137t92 89.5t138.5 31.5q84 0 135 -40l6 159l-59 -1q-23 0 -36.5 12.5t-13.5 33.5q0 20 13.5 32.5t35.5 12.5l64 2q1 37 5 87q1 21 17.5 33.5t42.5 12.5q28 0 46 -14.5t15 -37.5q-3 -24 -6 -78l42 1q25 0 39.5 -12zM442 360q-12 20 -50.5 38t-78.5 18
q-68 0 -106.5 -43.5t-38.5 -120.5q0 -51 19.5 -87.5t52 -55t70.5 -18.5q34 0 64.5 16.5t49 44.5t18.5 58v150z" />
    <glyph glyph-name="Emacron" unicode="&#x112;" horiz-adv-x="618" 
d="M518 128q26 0 40 -15t14 -41q0 -23 -11 -35.5t-35 -17.5q-42 -9 -163 -9h-31q-59 0 -109 2.5t-121 11.5q-38 4 -38 51q0 22 9 37.5t26 16.5h12q13 83 13 185h-9q-43 0 -43 55q0 24 10 39.5t31 15.5h11v105v61q-32 11 -32 49q0 28 15 40.5t45 15.5q53 5 176 5
q129 0 197 -8q25 -3 39 -15t14 -38q0 -25 -13 -40.5t-35 -14.5q-94 8 -169 8q-69 0 -117 -3l3 -110l1 -57h37q76 -2 104 -2l77 -2q35 0 35 -53q0 -26 -10 -40.5t-29 -14.5q-31 0 -52 1l-126 1h-36q-3 -107 -14 -190q59 -4 115 -4q83 0 158 9zM136.5 788.5
q-10.5 13.5 -10.5 34.5t11 33t31 15q71 11 169 15q21 1 61 1l83 -1q22 0 35.5 -14.5t13.5 -36.5q0 -20 -13 -31.5t-35 -11.5t-38 1q-52 2 -96 2q-54 0 -92.5 -4.5t-89.5 -12.5q-19 -3 -29.5 10.5z" />
    <glyph glyph-name="emacron" unicode="&#x113;" horiz-adv-x="604" 
d="M169.5 26.5q-61.5 34.5 -92.5 94t-31 133.5t34.5 133.5t95 93t136.5 33.5q69 0 124 -27t87 -77t32 -116q0 -39 -12.5 -55.5t-46.5 -16.5l-343 -3q0 -28 19 -58t56 -50.5t87 -20.5q34 0 57.5 8.5t38.5 20.5t35 33q15 15 33 15q19 0 36.5 -15t17.5 -34q0 -14 -11 -31
q-24 -36 -72.5 -65.5t-130.5 -29.5q-88 0 -149.5 34.5zM442 302q8 0 10.5 3t2.5 11q0 46 -41 76t-102 30q-47 0 -83.5 -20.5t-56 -50t-19.5 -52.5zM115.5 588.5q-10.5 13.5 -10.5 34.5t11 33t31 15q71 11 169 15q21 1 61 1l83 -1q22 0 35.5 -14.5t13.5 -36.5
q0 -20 -13 -31.5t-35 -11.5t-38 1q-52 2 -96 2q-54 0 -92.5 -4.5t-89.5 -12.5q-19 -3 -29.5 10.5z" />
    <glyph glyph-name="Ebreve" unicode="&#x114;" horiz-adv-x="618" 
d="M518 128q26 0 40 -15t14 -41q0 -23 -11 -35.5t-35 -17.5q-42 -9 -163 -9h-31q-59 0 -109 2.5t-121 11.5q-38 4 -38 51q0 22 9 37.5t26 16.5h12q13 83 13 185h-9q-43 0 -43 55q0 24 10 39.5t31 15.5h11v105v61q-32 11 -32 49q0 28 15 40.5t45 15.5q53 5 176 5
q129 0 197 -8q25 -3 39 -15t14 -38q0 -25 -13 -40.5t-35 -14.5q-94 8 -169 8q-69 0 -117 -3l3 -110l1 -57h37q76 -2 104 -2l77 -2q35 0 35 -53q0 -26 -10 -40.5t-29 -14.5q-31 0 -52 1l-126 1h-36q-3 -107 -14 -190q59 -4 115 -4q83 0 158 9zM244 774.5q-40 19.5 -63 53
t-23 74.5q0 17 13.5 30.5t31.5 13.5q16 0 28.5 -7.5t13.5 -20.5q5 -41 28 -62.5t59 -21.5q31 0 55 21.5t25 58.5q0 17 13.5 26t30.5 9q18 0 31.5 -13t13.5 -31q0 -41 -23 -75.5t-61.5 -54.5t-83.5 -20q-49 0 -89 19.5z" />
    <glyph glyph-name="ebreve" unicode="&#x115;" horiz-adv-x="604" 
d="M169.5 26.5q-61.5 34.5 -92.5 94t-31 133.5t34.5 133.5t95 93t136.5 33.5q69 0 124 -27t87 -77t32 -116q0 -39 -12.5 -55.5t-46.5 -16.5l-343 -3q0 -28 19 -58t56 -50.5t87 -20.5q34 0 57.5 8.5t38.5 20.5t35 33q15 15 33 15q19 0 36.5 -15t17.5 -34q0 -14 -11 -31
q-24 -36 -72.5 -65.5t-130.5 -29.5q-88 0 -149.5 34.5zM442 302q8 0 10.5 3t2.5 11q0 46 -41 76t-102 30q-47 0 -83.5 -20.5t-56 -50t-19.5 -52.5zM223 574.5q-40 19.5 -63 53t-23 74.5q0 17 13.5 30.5t31.5 13.5q16 0 28.5 -7.5t13.5 -20.5q5 -41 28 -62.5t59 -21.5
q31 0 55 21.5t25 58.5q0 17 13.5 26t30.5 9q18 0 31.5 -13t13.5 -31q0 -41 -23 -75.5t-61.5 -54.5t-83.5 -20q-49 0 -89 19.5z" />
    <glyph glyph-name="Edotaccent" unicode="&#x116;" horiz-adv-x="618" 
d="M518 128q26 0 40 -15t14 -41q0 -23 -11 -35.5t-35 -17.5q-42 -9 -163 -9h-31q-59 0 -109 2.5t-121 11.5q-38 4 -38 51q0 22 9 37.5t26 16.5h12q13 83 13 185h-9q-43 0 -43 55q0 24 10 39.5t31 15.5h11v105v61q-32 11 -32 49q0 28 15 40.5t45 15.5q53 5 176 5
q129 0 197 -8q25 -3 39 -15t14 -38q0 -25 -13 -40.5t-35 -14.5q-94 8 -169 8q-69 0 -117 -3l3 -110l1 -57h37q76 -2 104 -2l77 -2q35 0 35 -53q0 -26 -10 -40.5t-29 -14.5q-31 0 -52 1l-126 1h-36q-3 -107 -14 -190q59 -4 115 -4q83 0 158 9zM282 785q-20 20 -20 51
q0 29 20 48.5t50 19.5t50 -19.5t20 -48.5q0 -31 -19.5 -51t-50.5 -20q-30 0 -50 20z" />
    <glyph glyph-name="edotaccent" unicode="&#x117;" horiz-adv-x="604" 
d="M169.5 26.5q-61.5 34.5 -92.5 94t-31 133.5t34.5 133.5t95 93t136.5 33.5q69 0 124 -27t87 -77t32 -116q0 -39 -12.5 -55.5t-46.5 -16.5l-343 -3q0 -28 19 -58t56 -50.5t87 -20.5q34 0 57.5 8.5t38.5 20.5t35 33q15 15 33 15q19 0 36.5 -15t17.5 -34q0 -14 -11 -31
q-24 -36 -72.5 -65.5t-130.5 -29.5q-88 0 -149.5 34.5zM442 302q8 0 10.5 3t2.5 11q0 46 -41 76t-102 30q-47 0 -83.5 -20.5t-56 -50t-19.5 -52.5zM260 585q-20 20 -20 51q0 29 20 48.5t50 19.5t50 -19.5t20 -48.5q0 -31 -19.5 -51t-50.5 -20q-30 0 -50 20z" />
    <glyph glyph-name="Eogonek" unicode="&#x118;" horiz-adv-x="618" 
d="M589.5 -71q7.5 -9 7.5 -25q0 -25 -18.5 -38.5t-52.5 -13.5q-52 0 -82 24.5t-30 70.5q0 34 18 64q-35 -1 -100 -1q-59 0 -109 2.5t-121 11.5q-38 4 -38 51q0 22 9 37.5t26 16.5h12q13 83 13 185h-9q-43 0 -43 55q0 24 10 39.5t31 15.5h11v105v61q-32 11 -32 49
q0 28 15 40.5t45 15.5q53 5 176 5q129 0 197 -8q25 -3 39 -15t14 -38q0 -25 -13 -40.5t-35 -14.5q-94 8 -169 8q-69 0 -117 -3l3 -110l1 -57h37q76 -2 104 -2l77 -2q35 0 35 -53q0 -26 -10 -40.5t-29 -14.5q-31 0 -52 1l-126 1h-36q-3 -107 -14 -190q59 -4 115 -4
q83 0 158 9l11 1q26 0 40 -15t14 -41t-15 -40l-9 -9q-25 -21 -36 -36.5t-11 -29.5q0 -27 31 -27q6 0 20 4q16 4 20 4q10 0 17.5 -9z" />
    <glyph glyph-name="eogonek" unicode="&#x119;" horiz-adv-x="604" 
d="M536.5 -38q7.5 -9 7.5 -25q0 -25 -18.5 -38.5t-52.5 -13.5q-52 0 -82 24.5t-30 70.5q0 10 1 15q-19 -3 -43 -3q-88 0 -149.5 34.5t-92.5 94t-31 133.5t34.5 133.5t95 93t136.5 33.5q69 0 124 -27t87 -77t32 -116q0 -39 -12.5 -55.5t-46.5 -16.5l-343 -3q0 -28 19 -58
t56 -50.5t87 -20.5q34 0 57.5 8.5t38.5 20.5t35 33q15 15 33 15q19 0 36.5 -15t17.5 -34q0 -14 -11 -31q-18 -27 -44 -47q-30 -27 -30 -51q0 -13 8 -20t23 -7q6 0 20 4q13 5 20 5q10 0 17.5 -9zM228.5 401.5q-36.5 -20.5 -56 -50t-19.5 -52.5l289 3q8 0 10.5 3t2.5 11
q0 46 -41 76t-102 30q-47 0 -83.5 -20.5z" />
    <glyph glyph-name="Ecaron" unicode="&#x11a;" horiz-adv-x="618" 
d="M518 128q26 0 40 -15t14 -41q0 -23 -11 -35.5t-35 -17.5q-42 -9 -163 -9h-31q-59 0 -109 2.5t-121 11.5q-38 4 -38 51q0 22 9 37.5t26 16.5h12q13 83 13 185h-9q-43 0 -43 55q0 24 10 39.5t31 15.5h11v105v61q-32 11 -32 49q0 28 15 40.5t45 15.5q53 5 176 5
q129 0 197 -8q25 -3 39 -15t14 -38q0 -25 -13 -40.5t-35 -14.5q-94 8 -169 8q-69 0 -117 -3l3 -110l1 -57h37q76 -2 104 -2l77 -2q35 0 35 -53q0 -26 -10 -40.5t-29 -14.5q-31 0 -52 1l-126 1h-36q-3 -107 -14 -190q59 -4 115 -4q83 0 158 9zM481.5 951q12.5 -13 12.5 -31
q0 -14 -13 -32q-40 -54 -59 -77.5t-42.5 -39.5t-50.5 -16t-61.5 31t-75.5 79q-7 7 -15 17q-13 14 -13 32t14 31.5t32 13.5q11 0 20 -6t22 -19q8 -8 16 -17.5t18 -19.5q40 -46 47 -46q4 0 17.5 15.5t29.5 37.5q10 15 32 42q15 18 40 18q17 0 29.5 -13z" />
    <glyph glyph-name="ecaron" unicode="&#x11b;" horiz-adv-x="604" 
d="M169.5 26.5q-61.5 34.5 -92.5 94t-31 133.5t34.5 133.5t95 93t136.5 33.5q69 0 124 -27t87 -77t32 -116q0 -39 -12.5 -55.5t-46.5 -16.5l-343 -3q0 -28 19 -58t56 -50.5t87 -20.5q34 0 57.5 8.5t38.5 20.5t35 33q15 15 33 15q19 0 36.5 -15t17.5 -34q0 -14 -11 -31
q-24 -36 -72.5 -65.5t-130.5 -29.5q-88 0 -149.5 34.5zM442 302q8 0 10.5 3t2.5 11q0 46 -41 76t-102 30q-47 0 -83.5 -20.5t-56 -50t-19.5 -52.5zM460.5 751q12.5 -13 12.5 -31q0 -14 -13 -32q-40 -54 -59 -77.5t-42.5 -39.5t-50.5 -16t-61.5 31t-75.5 79q-7 7 -15 17
q-13 14 -13 32t14 31.5t32 13.5q11 0 20 -6t22 -19q8 -8 16 -17.5t18 -19.5q40 -46 47 -46q4 0 17.5 15.5t29.5 37.5q10 15 32 42q15 18 40 18q17 0 29.5 -13z" />
    <glyph glyph-name="Gcircumflex" unicode="&#x11c;" horiz-adv-x="760" 
d="M712.5 362q16.5 -14 16.5 -39t-16 -41t-44 -15h-6q-9 -128 -77 -197.5t-190 -69.5q-100 0 -179.5 46t-123.5 125.5t-44 176.5q0 96 43 174.5t118 123.5t166 45q73 0 123 -27.5t75 -63.5v23q0 18 15 31t41 13q27 0 41.5 -12t15.5 -31q2 -78 -13 -109q-8 -15 -23.5 -22
t-33.5 -7q-17 0 -30 6.5t-34 25.5q-33 29 -64.5 45.5t-84.5 16.5q-68 0 -121 -30t-82.5 -83t-29.5 -120t30 -121.5t80.5 -85t111.5 -30.5q137 0 152 158l-115 2q-30 1 -43.5 15.5t-13.5 38.5q0 27 16 42.5t44 14.5l231 -5q32 0 48.5 -14zM472 773l-30 38q-17 23 -30.5 39.5
t-18.5 16.5q-7 0 -47 -46q-10 -10 -18 -19.5t-16 -17.5q-13 -13 -22 -19t-20 -6q-18 0 -32 13.5t-14 31.5q0 20 13 33l27 29q40 44 70.5 70.5t54.5 26.5q28 0 49 -18t54 -58q23 -30 49 -57q13 -13 13 -32q0 -18 -12.5 -31t-29.5 -13q-25 0 -40 19z" />
    <glyph glyph-name="gcircumflex" unicode="&#x11d;" horiz-adv-x="591" 
d="M545 75.5q5 -44.5 5 -74.5q0 -71 -31 -128.5t-87.5 -90t-130.5 -32.5q-58 0 -106.5 22t-77 59.5t-28.5 81.5q0 24 14 35t43 11q39 0 45 -33q15 -77 107 -77q63 0 97 38.5t34 116.5q0 21 -3 45q-23 -22 -60 -36t-83 -14q-71 0 -126 33.5t-85 91t-30 126.5q0 71 30.5 129.5
t85.5 92t126 33.5q72 0 113 -35q7 20 17 37q11 22 40 22q23 0 44 -12.5t22 -32.5q0 -2 -2 -12q-6 -16 -19 -60q19 -126 34 -240q7 -52 12 -96.5zM369 115q35 20 43 45q-12 101 -29 203q-9 17 -33.5 31t-55.5 14q-57 0 -94 -46t-37 -114q0 -64 34 -108.5t98 -44.5q39 0 74 20
zM377 573l-30 38q-17 23 -30.5 39.5t-18.5 16.5q-7 0 -47 -46q-10 -10 -18 -19.5t-16 -17.5q-13 -13 -22 -19t-20 -6q-18 0 -32 13.5t-14 31.5q0 20 13 33l27 29q40 44 70.5 70.5t54.5 26.5q28 0 49 -18t54 -58q23 -30 49 -57q13 -13 13 -32q0 -18 -12.5 -31t-29.5 -13
q-25 0 -40 19z" />
    <glyph glyph-name="Gbreve" unicode="&#x11e;" horiz-adv-x="760" 
d="M712.5 362q16.5 -14 16.5 -39t-16 -41t-44 -15h-6q-9 -128 -77 -197.5t-190 -69.5q-100 0 -179.5 46t-123.5 125.5t-44 176.5q0 96 43 174.5t118 123.5t166 45q73 0 123 -27.5t75 -63.5v23q0 18 15 31t41 13q27 0 41.5 -12t15.5 -31q2 -78 -13 -109q-8 -15 -23.5 -22
t-33.5 -7q-17 0 -30 6.5t-34 25.5q-33 29 -64.5 45.5t-84.5 16.5q-68 0 -121 -30t-82.5 -83t-29.5 -120t30 -121.5t80.5 -85t111.5 -30.5q137 0 152 158l-115 2q-30 1 -43.5 15.5t-13.5 38.5q0 27 16 42.5t44 14.5l231 -5q32 0 48.5 -14zM304 774.5q-40 19.5 -63 53
t-23 74.5q0 17 13.5 30.5t31.5 13.5q16 0 28.5 -7.5t13.5 -20.5q5 -41 28 -62.5t59 -21.5q31 0 55 21.5t25 58.5q0 17 13.5 26t30.5 9q18 0 31.5 -13t13.5 -31q0 -41 -23 -75.5t-61.5 -54.5t-83.5 -20q-49 0 -89 19.5z" />
    <glyph glyph-name="gbreve" unicode="&#x11f;" horiz-adv-x="591" 
d="M545 75.5q5 -44.5 5 -74.5q0 -71 -31 -128.5t-87.5 -90t-130.5 -32.5q-58 0 -106.5 22t-77 59.5t-28.5 81.5q0 24 14 35t43 11q39 0 45 -33q15 -77 107 -77q63 0 97 38.5t34 116.5q0 21 -3 45q-23 -22 -60 -36t-83 -14q-71 0 -126 33.5t-85 91t-30 126.5q0 71 30.5 129.5
t85.5 92t126 33.5q72 0 113 -35q7 20 17 37q11 22 40 22q23 0 44 -12.5t22 -32.5q0 -2 -2 -12q-6 -16 -19 -60q19 -126 34 -240q7 -52 12 -96.5zM369 115q35 20 43 45q-12 101 -29 203q-9 17 -33.5 31t-55.5 14q-57 0 -94 -46t-37 -114q0 -64 34 -108.5t98 -44.5q39 0 74 20
zM209 574.5q-40 19.5 -63 53t-23 74.5q0 17 13.5 30.5t31.5 13.5q16 0 28.5 -7.5t13.5 -20.5q5 -41 28 -62.5t59 -21.5q31 0 55 21.5t25 58.5q0 17 13.5 26t30.5 9q18 0 31.5 -13t13.5 -31q0 -41 -23 -75.5t-61.5 -54.5t-83.5 -20q-49 0 -89 19.5z" />
    <glyph glyph-name="Gdotaccent" unicode="&#x120;" horiz-adv-x="760" 
d="M712.5 362q16.5 -14 16.5 -39t-16 -41t-44 -15h-6q-9 -128 -77 -197.5t-190 -69.5q-100 0 -179.5 46t-123.5 125.5t-44 176.5q0 96 43 174.5t118 123.5t166 45q73 0 123 -27.5t75 -63.5v23q0 18 15 31t41 13q27 0 41.5 -12t15.5 -31q2 -78 -13 -109q-8 -15 -23.5 -22
t-33.5 -7q-17 0 -30 6.5t-34 25.5q-33 29 -64.5 45.5t-84.5 16.5q-68 0 -121 -30t-82.5 -83t-29.5 -120t30 -121.5t80.5 -85t111.5 -30.5q137 0 152 158l-115 2q-30 1 -43.5 15.5t-13.5 38.5q0 27 16 42.5t44 14.5l231 -5q32 0 48.5 -14zM341 785q-20 20 -20 51
q0 29 20 48.5t50 19.5t50 -19.5t20 -48.5q0 -31 -19.5 -51t-50.5 -20q-30 0 -50 20z" />
    <glyph glyph-name="gdotaccent" unicode="&#x121;" horiz-adv-x="591" 
d="M545 75.5q5 -44.5 5 -74.5q0 -71 -31 -128.5t-87.5 -90t-130.5 -32.5q-58 0 -106.5 22t-77 59.5t-28.5 81.5q0 24 14 35t43 11q39 0 45 -33q15 -77 107 -77q63 0 97 38.5t34 116.5q0 21 -3 45q-23 -22 -60 -36t-83 -14q-71 0 -126 33.5t-85 91t-30 126.5q0 71 30.5 129.5
t85.5 92t126 33.5q72 0 113 -35q7 20 17 37q11 22 40 22q23 0 44 -12.5t22 -32.5q0 -2 -2 -12q-6 -16 -19 -60q19 -126 34 -240q7 -52 12 -96.5zM369 115q35 20 43 45q-12 101 -29 203q-9 17 -33.5 31t-55.5 14q-57 0 -94 -46t-37 -114q0 -64 34 -108.5t98 -44.5q39 0 74 20
zM246 585q-20 20 -20 51q0 29 20 48.5t50 19.5t50 -19.5t20 -48.5q0 -31 -19.5 -51t-50.5 -20q-30 0 -50 20z" />
    <glyph glyph-name="uni0122" unicode="&#x122;" horiz-adv-x="760" 
d="M712.5 362q16.5 -14 16.5 -39t-16 -41t-44 -15h-6q-9 -128 -77 -197.5t-190 -69.5q-100 0 -179.5 46t-123.5 125.5t-44 176.5q0 96 43 174.5t118 123.5t166 45q73 0 123 -27.5t75 -63.5v23q0 18 15 31t41 13q27 0 41.5 -12t15.5 -31q2 -78 -13 -109q-8 -15 -23.5 -22
t-33.5 -7q-17 0 -30 6.5t-34 25.5q-33 29 -64.5 45.5t-84.5 16.5q-68 0 -121 -30t-82.5 -83t-29.5 -120t30 -121.5t80.5 -85t111.5 -30.5q137 0 152 158l-115 2q-30 1 -43.5 15.5t-13.5 38.5q0 27 16 42.5t44 14.5l231 -5q32 0 48.5 -14zM452 -85.5q22 -21.5 22 -52.5
q0 -37 -24.5 -77t-67.5 -77q-12 -9 -28 -9t-27.5 10t-11.5 25q0 12 7 21q3 4 16 17q26 29 29 33q-18 5 -30 21t-12 36q0 31 22 52.5t53 21.5q30 0 52 -21.5z" />
    <glyph glyph-name="uni0123" unicode="&#x123;" horiz-adv-x="591" 
d="M545 75.5q5 -44.5 5 -74.5q0 -71 -31 -128.5t-87.5 -90t-130.5 -32.5q-58 0 -106.5 22t-77 59.5t-28.5 81.5q0 24 14 35t43 11q39 0 45 -33q15 -77 107 -77q63 0 97 38.5t34 116.5q0 21 -3 45q-23 -22 -60 -36t-83 -14q-71 0 -126 33.5t-85 91t-30 126.5q0 71 30.5 129.5
t85.5 92t126 33.5q72 0 113 -35q7 20 17 37q11 22 40 22q23 0 44 -12.5t22 -32.5q0 -2 -2 -12q-6 -16 -19 -60q19 -126 34 -240q7 -52 12 -96.5zM369 115q35 20 43 45q-12 101 -29 203q-9 17 -33.5 31t-55.5 14q-57 0 -94 -46t-37 -114q0 -64 34 -108.5t98 -44.5q39 0 74 20
zM356 662.5q14 -15.5 14 -39.5q0 -31 -22 -50.5t-54 -19.5q-31 0 -52.5 21.5t-21.5 52.5q0 40 24 81.5t70 73.5q12 9 25 9t25 -11t12 -25q0 -16 -12 -28q-15 -13 -43 -44q21 -5 35 -20.5z" />
    <glyph glyph-name="Hcircumflex" unicode="&#x124;" horiz-adv-x="774" 
d="M696.5 360q14.5 -14 14.5 -42q0 -29 -14.5 -42t-34.5 -13h-11l6 -206q1 -27 -15.5 -43t-44.5 -16q-29 0 -45.5 15t-17.5 41l-6 211l-280 4l-19 -232q-3 -44 -60 -44q-31 0 -47.5 13.5t-15.5 39.5l18 225h-10q-22 0 -35 15t-13 41t14 40t37 14h16l23 289q2 25 19.5 39
t45.5 14q30 0 45 -17.5t13 -44.5l-23 -282l269 -3l-9 289q-1 25 15.5 41.5t45.5 16.5q28 0 45 -16t17 -39l9 -294h15q19 0 33.5 -14zM475 773l-30 38q-17 23 -30.5 39.5t-18.5 16.5q-7 0 -47 -46q-10 -10 -18 -19.5t-16 -17.5q-13 -13 -22 -19t-20 -6q-18 0 -32 13.5
t-14 31.5q0 20 13 33l27 29q40 44 70.5 70.5t54.5 26.5q28 0 49 -18t54 -58q23 -30 49 -57q13 -13 13 -32q0 -18 -12.5 -31t-29.5 -13q-25 0 -40 19z" />
    <glyph glyph-name="hcircumflex" unicode="&#x125;" horiz-adv-x="575" 
d="M535 49q0 -21 -17 -33.5t-43 -12.5q-27 0 -44.5 13.5t-17.5 38.5q0 123 -3.5 198t-13.5 114q-15 56 -66 56q-63 0 -94 -48.5t-31 -120.5v-208q0 -18 -18 -30.5t-43 -12.5t-42.5 12.5t-17.5 31.5q0 197 5 385q4 119 12 264l2 39q2 23 18 37t43 14q26 0 41.5 -12.5
t14.5 -33.5l-14 -257l-1 -21q24 26 60.5 42t84.5 16q67 0 105.5 -34t55.5 -106q24 -96 24 -331zM246 859l-30 38q-17 23 -30.5 39.5t-18.5 16.5q-7 0 -47 -46q-10 -10 -18 -19.5t-16 -17.5q-13 -13 -22 -19t-20 -6q-18 0 -32 13.5t-14 31.5q0 20 13 33l27 29
q40 44 70.5 70.5t54.5 26.5q28 0 49 -18t54 -58q23 -30 49 -57q13 -13 13 -32q0 -18 -12.5 -31t-29.5 -13q-25 0 -40 19z" />
    <glyph glyph-name="Hbar" unicode="&#x126;" horiz-adv-x="806" 
d="M659 479l3 -105h15q19 0 33.5 -14t14.5 -42q0 -29 -14.5 -42t-34.5 -13h-11l6 -206q1 -27 -15.5 -43t-44.5 -16q-29 0 -45.5 15t-17.5 41l-6 211l-280 4l-19 -232q-3 -44 -60 -44q-31 0 -47.5 13.5t-15.5 39.5l18 225h-10q-22 0 -35 15t-13 41t14 40t37 14h16l8 107h-21
q-29 1 -48.5 13.5t-19.5 34.5t21 35.5t50 12.5h26l7 86q2 25 19.5 39t45.5 14q30 0 45 -17.5t13 -44.5l-6 -79l246 -3l-3 86q-1 25 15.5 41.5t45.5 16.5q28 0 45 -16t17 -39l3 -91h16q32 -1 51.5 -13t19.5 -36t-20 -36.5t-51 -12.5h-13zM535 481l-256 5l-9 -107l269 -3z" />
    <glyph glyph-name="hbar" unicode="&#x127;" horiz-adv-x="587" 
d="M547 49q0 -21 -17.5 -33.5t-43.5 -12.5t-43.5 13.5t-17.5 38.5q0 241 -18 312q-8 32 -25 44t-41 12q-63 0 -94 -48.5t-31 -120.5v-208q0 -19 -17.5 -31t-42.5 -12q-26 0 -43.5 12.5t-17.5 31.5q0 197 5 385q1 14 1 39l5 106l-33 1q-19 0 -33 14t-14 33t14.5 32t35.5 13
l35 -1l4 66q2 23 17.5 37t42.5 14q26 0 41.5 -12.5t14.5 -33.5q-2 -24 -4 -75l77 -3q22 0 36 -13t14 -33q0 -21 -13.5 -33.5t-35.5 -12.5l-83 3l-6 -112q53 59 146 59q66 0 104.5 -34t56.5 -106q24 -101 24 -331z" />
    <glyph glyph-name="Itilde" unicode="&#x128;" horiz-adv-x="486" 
d="M449 59q0 -56 -55 -56l-301 4q-27 1 -39 17t-12 38q0 28 15 42t36 14l93 -1q14 227 16 482l-83 -6q-24 -3 -35 -3q-22 0 -34.5 15t-12.5 41q0 27 13 39.5t36 15.5q19 3 79 6t119 3q54 0 116 -6q24 -2 36.5 -16t12.5 -38q0 -25 -13 -40t-41 -14q-26 2 -71 3
q-2 -291 -15 -484l86 -1q54 -1 54 -55zM72 814q0 16 12 31q27 32 49 45.5t52 13.5q49 0 95 -24q6 -3 18.5 -9.5t17.5 -8.5t10 -2q10 0 19 11q11 11 19 16t18 5q17 0 31.5 -15t14.5 -32q0 -19 -14 -33q-22 -22 -43 -32.5t-45 -10.5q-19 0 -36 6t-31 13t-19 9q-36 19 -48 19
q-7 0 -14 -6t-21 -21q-18 -20 -40 -20q-17 0 -31 12q-14 16 -14 33z" />
    <glyph glyph-name="itilde" unicode="&#x129;" horiz-adv-x="338" 
d="M120.5 17.5q-17.5 14.5 -17.5 38.5l9 399q0 24 17 38t44 14q28 0 45.5 -14.5t17.5 -39.5l-13 -399q0 -22 -16 -36.5t-42 -14.5q-27 0 -44.5 14.5zM-11 614q0 16 12 31q27 32 49 45.5t52 13.5q49 0 95 -24q6 -3 18.5 -9.5t17.5 -8.5t10 -2q10 0 19 11q11 11 19 16t18 5
q17 0 31.5 -15t14.5 -32q0 -19 -14 -33q-22 -22 -43 -32.5t-45 -10.5q-19 0 -36 6t-31 13t-19 9q-36 19 -48 19q-7 0 -14 -6t-21 -21q-18 -20 -40 -20q-17 0 -31 12q-14 16 -14 33z" />
    <glyph glyph-name="Imacron" unicode="&#x12a;" horiz-adv-x="486" 
d="M449 59q0 -56 -55 -56l-301 4q-27 1 -39 17t-12 38q0 28 15 42t36 14l93 -1q14 227 16 482l-83 -6q-24 -3 -35 -3q-22 0 -34.5 15t-12.5 41q0 27 13 39.5t36 15.5q19 3 79 6t119 3q54 0 116 -6q24 -2 36.5 -16t12.5 -38q0 -25 -13 -40t-41 -14q-26 2 -71 3
q-2 -291 -15 -484l86 -1q54 -1 54 -55zM56.5 788.5q-10.5 13.5 -10.5 34.5t11 33t31 15q71 11 169 15q21 1 61 1l83 -1q22 0 35.5 -14.5t13.5 -36.5q0 -20 -13 -31.5t-35 -11.5t-38 1q-52 2 -96 2q-54 0 -92.5 -4.5t-89.5 -12.5q-19 -3 -29.5 10.5z" />
    <glyph glyph-name="imacron" unicode="&#x12b;" horiz-adv-x="338" 
d="M120.5 17.5q-17.5 14.5 -17.5 38.5l9 399q0 24 17 38t44 14q28 0 45.5 -14.5t17.5 -39.5l-13 -399q0 -22 -16 -36.5t-42 -14.5q-27 0 -44.5 14.5zM-26.5 588.5q-10.5 13.5 -10.5 34.5t11 33t31 15q71 11 169 15q21 1 61 1l83 -1q22 0 35.5 -14.5t13.5 -36.5
q0 -20 -13 -31.5t-35 -11.5t-38 1q-52 2 -96 2q-54 0 -92.5 -4.5t-89.5 -12.5q-19 -3 -29.5 10.5z" />
    <glyph glyph-name="Ibreve" unicode="&#x12c;" horiz-adv-x="486" 
d="M449 59q0 -56 -55 -56l-301 4q-27 1 -39 17t-12 38q0 28 15 42t36 14l93 -1q14 227 16 482l-83 -6q-24 -3 -35 -3q-22 0 -34.5 15t-12.5 41q0 27 13 39.5t36 15.5q19 3 79 6t119 3q54 0 116 -6q24 -2 36.5 -16t12.5 -38q0 -25 -13 -40t-41 -14q-26 2 -71 3
q-2 -291 -15 -484l86 -1q54 -1 54 -55zM164 774.5q-40 19.5 -63 53t-23 74.5q0 17 13.5 30.5t31.5 13.5q16 0 28.5 -7.5t13.5 -20.5q5 -41 28 -62.5t59 -21.5q31 0 55 21.5t25 58.5q0 17 13.5 26t30.5 9q18 0 31.5 -13t13.5 -31q0 -41 -23 -75.5t-61.5 -54.5t-83.5 -20
q-49 0 -89 19.5z" />
    <glyph glyph-name="ibreve" unicode="&#x12d;" horiz-adv-x="338" 
d="M120.5 17.5q-17.5 14.5 -17.5 38.5l9 399q0 24 17 38t44 14q28 0 45.5 -14.5t17.5 -39.5l-13 -399q0 -22 -16 -36.5t-42 -14.5q-27 0 -44.5 14.5zM81 574.5q-40 19.5 -63 53t-23 74.5q0 17 13.5 30.5t31.5 13.5q16 0 28.5 -7.5t13.5 -20.5q5 -41 28 -62.5t59 -21.5
q31 0 55 21.5t25 58.5q0 17 13.5 26t30.5 9q18 0 31.5 -13t13.5 -31q0 -41 -23 -75.5t-61.5 -54.5t-83.5 -20q-49 0 -89 19.5z" />
    <glyph glyph-name="Iogonek" unicode="&#x12e;" horiz-adv-x="486" 
d="M469.5 -83q7.5 -9 7.5 -25q0 -25 -18.5 -38.5t-52.5 -13.5q-51 0 -81.5 24.5t-30.5 70.5q0 33 21 69l-222 3q-27 1 -39 17t-12 38q0 28 15 42t36 14l93 -1q14 227 16 482l-83 -6q-24 -3 -35 -3q-22 0 -34.5 15t-12.5 41q0 27 13 39.5t36 15.5q19 3 79 6t119 3
q54 0 116 -6q24 -2 36.5 -16t12.5 -38q0 -25 -13 -40t-41 -14q-26 2 -71 3q-2 -291 -15 -484l86 -1q54 -1 54 -55q0 -37 -24 -50q-24 -20 -34 -35t-10 -29q0 -13 8 -20t23 -7q6 0 20 4q16 4 20 4q10 0 17.5 -9z" />
    <glyph glyph-name="iogonek" unicode="&#x12f;" horiz-adv-x="338" 
d="M119 585q-20 20 -20 51q0 29 20 48.5t50 19.5t50 -19.5t20 -48.5q0 -31 -19.5 -51t-50.5 -20q-30 0 -50 20zM243.5 -84q7.5 -9 7.5 -25q0 -25 -19 -38.5t-52 -13.5q-52 0 -82 24.5t-30 70.5q0 49 42 96q-7 11 -7 26l9 399q0 24 17 38t44 14q28 0 45.5 -14.5t17.5 -39.5
l-13 -399q0 -14 -6 -25q-5 -12 -15 -19q-26 -21 -36.5 -36.5t-10.5 -30.5q0 -13 8 -20t22 -7q6 0 21 4.5t19 4.5q11 0 18.5 -9z" />
    <glyph glyph-name="Idotaccent" unicode="&#x130;" horiz-adv-x="486" 
d="M449 59q0 -56 -55 -56l-301 4q-27 1 -39 17t-12 38q0 28 15 42t36 14l93 -1q14 227 16 482l-83 -6q-24 -3 -35 -3q-22 0 -34.5 15t-12.5 41q0 27 13 39.5t36 15.5q19 3 79 6t119 3q54 0 116 -6q24 -2 36.5 -16t12.5 -38q0 -25 -13 -40t-41 -14q-26 2 -71 3
q-2 -291 -15 -484l86 -1q54 -1 54 -55zM201 785q-20 20 -20 51q0 29 20 48.5t50 19.5t50 -19.5t20 -48.5q0 -31 -19.5 -51t-50.5 -20q-30 0 -50 20z" />
    <glyph glyph-name="dotlessi" unicode="&#x131;" horiz-adv-x="338" 
d="M120.5 17.5q-17.5 14.5 -17.5 38.5l9 399q0 24 17 38t44 14q28 0 45.5 -14.5t17.5 -39.5l-13 -399q0 -22 -16 -36.5t-42 -14.5q-27 0 -44.5 14.5z" />
    <glyph glyph-name="IJ" unicode="&#x132;" horiz-adv-x="1108" 
d="M449 59q0 -56 -55 -56l-301 4q-27 1 -39 17t-12 38q0 28 15 42t36 14l93 -1q14 227 16 482l-83 -6q-24 -3 -35 -3q-22 0 -34.5 15t-12.5 41q0 27 13 39.5t36 15.5q19 3 79 6t119 3q54 0 116 -6q24 -2 36.5 -16t12.5 -38q0 -25 -13 -40t-41 -14q-26 2 -71 3
q-2 -291 -15 -484l86 -1q54 -1 54 -55zM1065 648q0 -24 -13 -39t-40 -15h-36q-1 -42 -1 -116l1 -211q0 -126 -61 -197t-170 -71q-105 0 -165 66.5t-60 192.5q0 63 63 63q30 0 45 -16t15 -44q2 -72 25 -111.5t74 -39.5q48 0 78 39t30 119q0 202 4 326h-50q-29 0 -42 12.5
t-13 40.5q0 25 11 38.5t28 14.5q66 3 122 3q63 0 103 -2q52 -3 52 -53z" />
    <glyph glyph-name="ij" unicode="&#x133;" horiz-adv-x="689" 
d="M110 559.5q-23 22.5 -23 57.5t23 57.5t60 22.5q35 0 58 -22.5t23 -56.5q0 -35 -23 -58t-59 -23t-59 22.5zM109.5 19.5q-17.5 13.5 -16.5 36.5l8 388q1 24 18 37t44 13q28 0 45.5 -13.5t16.5 -38.5l-8 -386q-1 -23 -18.5 -36.5t-44.5 -13.5t-44.5 13.5zM478.5 563.5
q-24.5 23.5 -24.5 55.5t23.5 54.5t59.5 22.5q35 0 58.5 -22t23.5 -56t-24 -56t-57 -22q-35 0 -59.5 23.5zM292.5 -194.5q-45.5 41.5 -45.5 107.5q0 30 13 43.5t43 13.5q54 0 57 -45q4 -36 14 -50.5t29 -14.5q32 0 47 38.5t16 126.5q5 247 5 432q0 18 17 30t44 12t43 -12
t16 -33q0 -230 -4 -429q-4 -131 -48 -196t-130 -65q-71 0 -116.5 41.5z" />
    <glyph glyph-name="Jcircumflex" unicode="&#x134;" horiz-adv-x="622" 
d="M579 648q0 -24 -13 -39t-40 -15h-36q-1 -42 -1 -116l1 -211q0 -126 -61 -197t-170 -71q-105 0 -165 66.5t-60 192.5q0 63 63 63q30 0 45 -16t15 -44q2 -72 25 -111.5t74 -39.5q48 0 78 39t30 119q0 202 4 326h-50q-29 0 -42 12.5t-13 40.5q0 25 11 38.5t28 14.5
q66 3 122 3q63 0 103 -2q52 -3 52 -53zM506 773l-30 38q-17 23 -30.5 39.5t-18.5 16.5q-7 0 -47 -46q-10 -10 -18 -19.5t-16 -17.5q-13 -13 -22 -19t-20 -6q-18 0 -32 13.5t-14 31.5q0 20 13 33l27 29q40 44 70.5 70.5t54.5 26.5q28 0 49 -18t54 -58q23 -30 49 -57
q13 -13 13 -32q0 -18 -12.5 -31t-29.5 -13q-25 0 -40 19z" />
    <glyph glyph-name="jcircumflex" unicode="&#x135;" horiz-adv-x="334" 
d="M-6.5 -215q-36.5 21 -55 55t-18.5 73q0 30 13.5 43.5t42.5 13.5q33 0 44.5 -13t12.5 -32q3 -33 12.5 -49t30.5 -16q33 0 47 39.5t16 125.5q5 247 5 432q0 18 17 30t44 12t43 -12t16 -33q0 -230 -4 -429q-4 -139 -50 -200t-128 -61q-52 0 -88.5 21zM288 573l-30 38
q-17 23 -30.5 39.5t-18.5 16.5q-7 0 -47 -46q-10 -10 -18 -19.5t-16 -17.5q-13 -13 -22 -19t-20 -6q-18 0 -32 13.5t-14 31.5q0 20 13 33l27 29q40 44 70.5 70.5t54.5 26.5q28 0 49 -18t54 -58q23 -30 49 -57q13 -13 13 -32q0 -18 -12.5 -31t-29.5 -13q-25 0 -40 19z" />
    <glyph glyph-name="uni0136" unicode="&#x136;" horiz-adv-x="641" 
d="M527 555.5q-37 -24.5 -73 -47.5l-46 -30q-42 -28 -136 -87l-31 -20q38 -31 100 -85l54 -46q23 -20 37 -30q74 -62 134 -108q24 -20 24 -45t-17.5 -42.5t-43.5 -17.5q-20 0 -37 12q-68 56 -164 139q-65 56 -130 117l-1 -55q-3 -79 -3 -150q0 -28 -16.5 -44.5t-44.5 -16.5
q-32 0 -46.5 13.5t-14.5 45.5q0 44 2 136q3 77 3 168q0 60 -2 152l-1 132q0 24 17.5 39t45.5 15t44.5 -16t16.5 -41l1 -177l136 96l48 34q71 51 125 91q17 12 39 12q28 0 44.5 -16t16.5 -42q0 -25 -19 -41q-25 -20 -62 -44.5zM380 -85.5q22 -21.5 22 -52.5q0 -37 -24.5 -77
t-67.5 -77q-12 -9 -28 -9t-27.5 10t-11.5 25q0 12 7 21q3 4 16 17q26 29 29 33q-18 5 -30 21t-12 36q0 31 22 52.5t53 21.5q30 0 52 -21.5z" />
    <glyph glyph-name="uni0137" unicode="&#x137;" horiz-adv-x="536" 
d="M88.5 5.5q-17.5 12.5 -17.5 31.5v661q0 24 16.5 37.5t43.5 13.5t44.5 -14t17.5 -37l-2 -305q129 79 226 137q16 10 33 10q19 0 34 -18.5t15 -41.5q0 -13 -7 -21t-23 -18l-258 -156l265 -197q15 -11 15 -33q0 -23 -17 -38.5t-39 -15.5q-21 0 -44 16q-27 20 -101 80
q-19 15 -43.5 34.5t-55.5 43.5v-137q0 -20 -16.5 -32.5t-42.5 -12.5t-43.5 12.5zM339 -85.5q22 -21.5 22 -52.5q0 -37 -24.5 -77t-67.5 -77q-12 -9 -28 -9t-27.5 10t-11.5 25q0 12 7 21q3 4 16 17q26 29 29 33q-18 5 -30 21t-12 36q0 31 22 52.5t53 21.5q30 0 52 -21.5z" />
    <glyph glyph-name="kgreenlandic" unicode="&#x138;" horiz-adv-x="536" 
d="M88.5 5.5q-17.5 12.5 -17.5 31.5v440q0 24 16.5 37.5t43.5 13.5t45 -13.5t17 -37.5l-2 -92q51 31 116 75q22 14 48.5 31t61.5 39q16 10 33 10q19 0 34 -18.5t15 -41.5q0 -13 -6.5 -20.5t-23.5 -18.5l-248 -156l255 -197q15 -11 15 -33q0 -23 -17 -38.5t-39 -15.5
q-21 0 -44 16q-33 27 -59 50q-80 70 -141 117v-146q0 -20 -16.5 -32.5t-42.5 -12.5t-43.5 12.5z" />
    <glyph glyph-name="Lacute" unicode="&#x139;" horiz-adv-x="562" 
d="M133 18q-44 20 -58.5 67.5t-14.5 146.5q0 113 10.5 210t30.5 217q3 20 20 32.5t45 12.5t42.5 -14t14.5 -37q0 -11 -1 -16q-23 -140 -33.5 -225t-10.5 -183q0 -54 5.5 -79.5t22 -35.5t52.5 -10q74 0 215 27q4 1 13 1q23 0 35.5 -16t12.5 -39q0 -44 -65 -57
q-55 -11 -99 -16.5t-98 -5.5q-95 0 -139 20zM100 764.5q-12 12.5 -12 30.5q0 10 4.5 21.5t13.5 18.5l89 85q15 15 26 22t23 7q20 0 32.5 -12.5t12.5 -32.5q0 -25 -21 -44l-96 -86q-23 -22 -42 -22q-18 0 -30 12.5z" />
    <glyph glyph-name="lacute" unicode="&#x13a;" horiz-adv-x="264" 
d="M87.5 23.5q-16.5 14.5 -16.5 37.5l-6 678q0 24 17.5 38.5t45.5 14.5q27 0 43.5 -14t16.5 -38l5 -679q0 -24 -18 -38t-44 -14q-27 0 -43.5 14.5zM58 856.5q-12 12.5 -12 30.5q0 10 4.5 21.5t13.5 18.5l89 85q15 15 26 22t23 7q20 0 32.5 -12.5t12.5 -32.5q0 -25 -21 -44
l-96 -86q-23 -22 -42 -22q-18 0 -30 12.5z" />
    <glyph glyph-name="uni013B" unicode="&#x13b;" horiz-adv-x="562" 
d="M133 18q-44 20 -58.5 67.5t-14.5 146.5q0 113 10.5 210t30.5 217q3 20 20 32.5t45 12.5t42.5 -14t14.5 -37q0 -11 -1 -16q-23 -140 -33.5 -225t-10.5 -183q0 -54 5.5 -79.5t22 -35.5t52.5 -10q74 0 215 27q4 1 13 1q23 0 35.5 -16t12.5 -39q0 -44 -65 -57
q-55 -11 -99 -16.5t-98 -5.5q-95 0 -139 20zM334 -85.5q22 -21.5 22 -52.5q0 -37 -24.5 -77t-67.5 -77q-12 -9 -28 -9t-27.5 10t-11.5 25q0 12 7 21q3 4 16 17q26 29 29 33q-18 5 -30 21t-12 36q0 31 22 52.5t53 21.5q30 0 52 -21.5z" />
    <glyph glyph-name="uni013C" unicode="&#x13c;" horiz-adv-x="264" 
d="M87.5 23.5q-16.5 14.5 -16.5 37.5l-6 678q0 24 17.5 38.5t45.5 14.5q27 0 43.5 -14t16.5 -38l5 -679q0 -24 -18 -38t-44 -14q-27 0 -43.5 14.5zM189 -85.5q22 -21.5 22 -52.5q0 -37 -24.5 -77t-67.5 -77q-12 -9 -28 -9t-27.5 10t-11.5 25q0 12 7 21q3 4 16 17
q26 29 29 33q-18 5 -30 21t-12 36q0 31 22 52.5t53 21.5q30 0 52 -21.5z" />
    <glyph glyph-name="Lcaron" unicode="&#x13d;" horiz-adv-x="562" 
d="M133 18q-44 20 -58.5 67.5t-14.5 146.5q0 113 10.5 210t30.5 217q3 20 20 32.5t45 12.5t42.5 -14t14.5 -37q0 -11 -1 -16q-23 -140 -33.5 -225t-10.5 -183q0 -54 5.5 -79.5t22 -35.5t52.5 -10q74 0 215 27q4 1 13 1q23 0 35.5 -16t12.5 -39q0 -44 -65 -57
q-55 -11 -99 -16.5t-98 -5.5q-95 0 -139 20zM484.5 686.5q21.5 -22.5 21.5 -53.5q0 -37 -24 -76t-68 -76q-12 -9 -27 -9q-17 0 -27.5 10.5t-10.5 24.5t10 25q3 4 14 15q14 14 26 29q-18 3 -30 21t-12 38q0 31 22 52.5t53 21.5t52.5 -22.5z" />
    <glyph glyph-name="lcaron" unicode="&#x13e;" horiz-adv-x="430" 
d="M87.5 23.5q-16.5 14.5 -16.5 37.5l-6 678q0 24 17.5 38.5t45.5 14.5q27 0 43.5 -14t16.5 -38l5 -679q0 -24 -18 -38t-44 -14q-27 0 -43.5 14.5zM384.5 772.5q21.5 -22.5 21.5 -53.5q0 -37 -24 -76t-68 -76q-12 -9 -27 -9q-17 0 -27.5 10.5t-10.5 24.5t10 25q3 4 14 15
q14 14 26 29q-18 3 -30 21t-12 38q0 31 22 52.5t53 21.5t52.5 -22.5z" />
    <glyph glyph-name="Ldot" unicode="&#x13f;" horiz-adv-x="562" 
d="M133 18q-44 20 -58.5 67.5t-14.5 146.5q0 113 10.5 210t30.5 217q3 20 20 32.5t45 12.5t42.5 -14t14.5 -37q0 -11 -1 -16q-23 -140 -33.5 -225t-10.5 -183q0 -54 5.5 -79.5t22 -35.5t52.5 -10q74 0 215 27q4 1 13 1q23 0 35.5 -16t12.5 -39q0 -44 -65 -57
q-55 -11 -99 -16.5t-98 -5.5q-95 0 -139 20zM289.5 282q-27.5 26 -27.5 64t27.5 64.5t64.5 26.5t63.5 -26.5t26.5 -64.5q0 -41 -26.5 -65.5t-63.5 -24.5t-64.5 26z" />
    <glyph glyph-name="ldot" unicode="&#x140;" horiz-adv-x="427" 
d="M87.5 23.5q-16.5 14.5 -16.5 37.5l-6 678q0 24 17.5 38.5t45.5 14.5q27 0 43.5 -14t16.5 -38l5 -679q0 -24 -18 -38t-44 -14q-27 0 -43.5 14.5zM262.5 193q-27.5 26 -27.5 64t27.5 64.5t64.5 26.5t63.5 -26.5t26.5 -64.5q0 -41 -26.5 -65.5t-63.5 -24.5t-64.5 26z" />
    <glyph glyph-name="Lslash" unicode="&#x141;" horiz-adv-x="562" 
d="M486 132q23 0 35.5 -16t12.5 -39q0 -44 -65 -57q-55 -11 -99 -16.5t-98 -5.5q-95 0 -139 20t-58.5 67.5t-14.5 146.5v6h-6q-27 0 -38 14q-16 17 -16 37q0 27 34 55l30 24q9 122 37 291q3 20 20 32.5t45 12.5t42.5 -14t14.5 -37q0 -11 -1 -16q-18 -109 -26 -165l80 63
q17 13 38 13q31 0 47 -21q13 -16 13 -34q0 -33 -34 -61l-160 -127q-2 -48 -2 -76q0 -54 5.5 -79.5t22 -35.5t52.5 -10q74 0 215 27q4 1 13 1z" />
    <glyph glyph-name="lslash" unicode="&#x142;" horiz-adv-x="343" 
d="M318.5 545q14.5 -15 14.5 -35q0 -18 -9.5 -28t-22.5 -17l-61 -34l3 -370q0 -24 -18 -38t-44 -14q-27 0 -43.5 14.5t-16.5 37.5l-3 302l-34 -19q-15 -8 -27 -8q-19 0 -33 14t-14 34q0 26 28 42l79 45l-2 268q0 24 17.5 38.5t45.5 14.5q27 0 43.5 -14t16.5 -38l1 -200
l23 13q10 7 23 7q19 0 33.5 -15z" />
    <glyph glyph-name="Nacute" unicode="&#x143;" horiz-adv-x="752" 
d="M679 649q0 -98 -1 -144l-1 -156q0 -142 -8 -213t-28 -98t-60 -27q-34 0 -65.5 26t-71.5 81.5t-111 169.5l-12 19q-81 133 -125 199q2 -94 2 -174l1 -271q0 -22 -17.5 -37t-44.5 -15t-44.5 14.5t-17.5 37.5v275l-1 123q-1 36 -1 101q0 57 6 88t21.5 45t44.5 14
q34 0 63.5 -25t66 -78t116.5 -181l85 -135q51 -82 75 -116q3 117 3 178l1 311q0 24 15.5 38.5t46.5 14.5q62 0 62 -65zM313 764.5q-12 12.5 -12 30.5q0 10 4.5 21.5t13.5 18.5l89 85q15 15 26 22t23 7q20 0 32.5 -12.5t12.5 -32.5q0 -25 -21 -44l-96 -86q-23 -22 -42 -22
q-18 0 -30 12.5z" />
    <glyph glyph-name="nacute" unicode="&#x144;" horiz-adv-x="567" 
d="M465 449.5q47 -60.5 47 -180.5l-1 -229q0 -20 -17 -30t-43 -10t-44 9t-18 27v234q0 77 -17 110.5t-57 33.5q-38 0 -61 -31.5t-36 -103.5q-7 -44 -7 -100l1 -135q0 -22 -16.5 -33.5t-44.5 -11.5t-44.5 12t-16.5 33q0 168 -7 332q0 16 -5 28t-11.5 22t-8.5 14q-6 8 -6 19
q0 18 21.5 34t40.5 16q10 0 19 -6t20 -21q24 -32 24 -60v-8q18 41 55.5 68.5t99.5 27.5q86 0 133 -60.5zM224 564.5q-12 12.5 -12 30.5q0 10 4.5 21.5t13.5 18.5l89 85q15 15 26 22t23 7q20 0 32.5 -12.5t12.5 -32.5q0 -25 -21 -44l-96 -86q-23 -22 -42 -22q-18 0 -30 12.5z
" />
    <glyph glyph-name="uni0145" unicode="&#x145;" horiz-adv-x="752" 
d="M679 649q0 -98 -1 -144l-1 -156q0 -142 -8 -213t-28 -98t-60 -27q-34 0 -65.5 26t-71.5 81.5t-111 169.5l-12 19q-81 133 -125 199q2 -94 2 -174l1 -271q0 -22 -17.5 -37t-44.5 -15t-44.5 14.5t-17.5 37.5v275l-1 123q-1 36 -1 101q0 57 6 88t21.5 45t44.5 14
q34 0 63.5 -25t66 -78t116.5 -181l85 -135q51 -82 75 -116q3 117 3 178l1 311q0 24 15.5 38.5t46.5 14.5q62 0 62 -65zM444 -85.5q22 -21.5 22 -52.5q0 -37 -24.5 -77t-67.5 -77q-12 -9 -28 -9t-27.5 10t-11.5 25q0 12 7 21q3 4 16 17q26 29 29 33q-18 5 -30 21t-12 36
q0 31 22 52.5t53 21.5q30 0 52 -21.5z" />
    <glyph glyph-name="uni0146" unicode="&#x146;" horiz-adv-x="567" 
d="M465 449.5q47 -60.5 47 -180.5l-1 -229q0 -20 -17 -30t-43 -10t-44 9t-18 27v234q0 77 -17 110.5t-57 33.5q-38 0 -61 -31.5t-36 -103.5q-7 -44 -7 -100l1 -135q0 -22 -16.5 -33.5t-44.5 -11.5t-44.5 12t-16.5 33q0 168 -7 332q0 16 -5 28t-11.5 22t-8.5 14q-6 8 -6 19
q0 18 21.5 34t40.5 16q10 0 19 -6t20 -21q24 -32 24 -60v-8q18 41 55.5 68.5t99.5 27.5q86 0 133 -60.5zM355 -85.5q22 -21.5 22 -52.5q0 -37 -24.5 -77t-67.5 -77q-12 -9 -28 -9t-27.5 10t-11.5 25q0 12 7 21q3 4 16 17q26 29 29 33q-18 5 -30 21t-12 36q0 31 22 52.5
t53 21.5q30 0 52 -21.5z" />
    <glyph glyph-name="Ncaron" unicode="&#x147;" horiz-adv-x="752" 
d="M679 649q0 -98 -1 -144l-1 -156q0 -142 -8 -213t-28 -98t-60 -27q-34 0 -65.5 26t-71.5 81.5t-111 169.5l-12 19q-81 133 -125 199q2 -94 2 -174l1 -271q0 -22 -17.5 -37t-44.5 -15t-44.5 14.5t-17.5 37.5v275l-1 123q-1 36 -1 101q0 57 6 88t21.5 45t44.5 14
q34 0 63.5 -25t66 -78t116.5 -181l85 -135q51 -82 75 -116q3 117 3 178l1 311q0 24 15.5 38.5t46.5 14.5q62 0 62 -65zM533.5 951q12.5 -13 12.5 -31q0 -14 -13 -32q-40 -54 -59 -77.5t-42.5 -39.5t-50.5 -16t-61.5 31t-75.5 79q-7 7 -15 17q-13 14 -13 32t14 31.5t32 13.5
q11 0 20 -6t22 -19q8 -8 16 -17.5t18 -19.5q40 -46 47 -46q4 0 17.5 15.5t29.5 37.5q10 15 32 42q15 18 40 18q17 0 29.5 -13z" />
    <glyph glyph-name="ncaron" unicode="&#x148;" horiz-adv-x="567" 
d="M465 449.5q47 -60.5 47 -180.5l-1 -229q0 -20 -17 -30t-43 -10t-44 9t-18 27v234q0 77 -17 110.5t-57 33.5q-38 0 -61 -31.5t-36 -103.5q-7 -44 -7 -100l1 -135q0 -22 -16.5 -33.5t-44.5 -11.5t-44.5 12t-16.5 33q0 168 -7 332q0 16 -5 28t-11.5 22t-8.5 14q-6 8 -6 19
q0 18 21.5 34t40.5 16q10 0 19 -6t20 -21q24 -32 24 -60v-8q18 41 55.5 68.5t99.5 27.5q86 0 133 -60.5zM444.5 751q12.5 -13 12.5 -31q0 -14 -13 -32q-40 -54 -59 -77.5t-42.5 -39.5t-50.5 -16t-61.5 31t-75.5 79q-7 7 -15 17q-13 14 -13 32t14 31.5t32 13.5q11 0 20 -6
t22 -19q8 -8 16 -17.5t18 -19.5q40 -46 47 -46q4 0 17.5 15.5t29.5 37.5q10 15 32 42q15 18 40 18q17 0 29.5 -13z" />
    <glyph glyph-name="napostrophe" unicode="&#x149;" horiz-adv-x="690" 
d="M587 449.5q47 -60.5 47 -180.5l-1 -229q0 -20 -17 -30t-43 -10t-44 9t-18 27v234q0 77 -17 110.5t-57 33.5q-38 0 -61 -31.5t-36 -103.5q-7 -44 -7 -100l1 -135q0 -22 -16.5 -33.5t-44.5 -11.5t-44.5 12t-16.5 33q0 168 -7 332q0 16 -5 28t-11.5 22t-8.5 14q-6 8 -6 19
q0 18 21.5 34t40.5 16q10 0 19 -6t20 -21q24 -32 24 -60v-8q18 41 55.5 68.5t99.5 27.5q86 0 133 -60.5zM145.5 734.5q21.5 -22.5 21.5 -53.5q0 -37 -24 -76t-68 -76q-12 -9 -27 -9q-17 0 -27.5 10.5t-10.5 24.5t10 25q3 4 14 15q14 14 26 29q-18 3 -30 21t-12 38
q0 31 22 52.5t53 21.5t52.5 -22.5z" />
    <glyph glyph-name="Eng" unicode="&#x14a;" horiz-adv-x="752" 
d="M677 347q0 -48 -2 -114l-3 -236q-2 -137 -54 -196t-143 -59q-44 0 -82 19t-60.5 53t-22.5 75q0 30 18 45.5t48 15.5q26 0 41.5 -14t15.5 -35q0 -32 13.5 -47.5t34.5 -15.5q32 0 50 42.5t20 117.5v18q-39 13 -83.5 70.5t-134.5 201.5l-12 19q-81 133 -125 199
q2 -94 2 -174l1 -271q0 -22 -17.5 -37t-44.5 -15t-44.5 14.5t-17.5 37.5v275l-1 123q-1 36 -1 101q0 57 6 88t21.5 45t44.5 14q34 0 63.5 -25t66 -78t116.5 -181l85 -135q51 -82 75 -116q3 117 3 178l1 311q0 24 15.5 38.5t46.5 14.5q62 0 62 -65q0 -67 -2 -199v-25
q1 -2 1 -8z" />
    <glyph glyph-name="eng" unicode="&#x14b;" horiz-adv-x="584" 
d="M514 135q0 -91 -12 -151.5t-51 -99t-117 -38.5q-29 0 -45.5 13t-16.5 35q0 23 13 35.5t40 12.5q35 0 48 41t13 137l-1 136q0 84 -19 121t-59 37q-24 0 -39 -12t-27 -43.5t-25 -93.5q-7 -42 -7 -100l1 -126q0 -22 -17.5 -36t-43.5 -14q-27 0 -44 14t-17 38l-11 342
q0 9 -7 21t-10 18q-8 12 -8 26q0 20 16.5 33t43.5 13q19 0 27 -7.5t22 -32.5q9 -15 15 -30q43 85 133 85q101 0 152.5 -65t51.5 -185z" />
    <glyph glyph-name="Omacron" unicode="&#x14c;" horiz-adv-x="805" 
d="M217 46.5q-78 39.5 -122 116t-44 182.5q0 105 43 187.5t120.5 129t177.5 46.5q102 0 184.5 -48t130 -132t47.5 -187t-47 -178.5t-128 -115.5t-183 -40q-101 0 -179 39.5zM516.5 142.5q52.5 25.5 84 77t31.5 126.5q0 73 -29.5 130.5t-83 89.5t-122.5 32
q-68 0 -118.5 -31.5t-78 -88t-27.5 -128.5q0 -78 31 -130.5t83 -77.5t114 -25q63 0 115.5 25.5zM203.5 788.5q-10.5 13.5 -10.5 34.5t11 33t31 15q71 11 169 15q21 1 61 1l83 -1q22 0 35.5 -14.5t13.5 -36.5q0 -20 -13 -31.5t-35 -11.5t-38 1q-52 2 -96 2q-54 0 -92.5 -4.5
t-89.5 -12.5q-19 -3 -29.5 10.5z" />
    <glyph glyph-name="omacron" unicode="&#x14d;" horiz-adv-x="602" 
d="M106.5 62q-74.5 64 -74.5 187q0 79 32 139.5t92 94.5t141 34q80 0 142.5 -34t97 -95.5t34.5 -142.5q0 -119 -73 -183t-195 -64t-196.5 64zM408.5 131.5q39.5 38.5 39.5 114.5t-39 126t-108 50q-67 0 -107 -47t-40 -126t40.5 -117.5t106.5 -38.5q68 0 107.5 38.5z
M106.5 588.5q-10.5 13.5 -10.5 34.5t11 33t31 15q71 11 169 15q21 1 61 1l83 -1q22 0 35.5 -14.5t13.5 -36.5q0 -20 -13 -31.5t-35 -11.5t-38 1q-52 2 -96 2q-54 0 -92.5 -4.5t-89.5 -12.5q-19 -3 -29.5 10.5z" />
    <glyph glyph-name="Obreve" unicode="&#x14e;" horiz-adv-x="805" 
d="M217 46.5q-78 39.5 -122 116t-44 182.5q0 105 43 187.5t120.5 129t177.5 46.5q102 0 184.5 -48t130 -132t47.5 -187t-47 -178.5t-128 -115.5t-183 -40q-101 0 -179 39.5zM516.5 142.5q52.5 25.5 84 77t31.5 126.5q0 73 -29.5 130.5t-83 89.5t-122.5 32
q-68 0 -118.5 -31.5t-78 -88t-27.5 -128.5q0 -78 31 -130.5t83 -77.5t114 -25q63 0 115.5 25.5zM311 774.5q-40 19.5 -63 53t-23 74.5q0 17 13.5 30.5t31.5 13.5q16 0 28.5 -7.5t13.5 -20.5q5 -41 28 -62.5t59 -21.5q31 0 55 21.5t25 58.5q0 17 13.5 26t30.5 9
q18 0 31.5 -13t13.5 -31q0 -41 -23 -75.5t-61.5 -54.5t-83.5 -20q-49 0 -89 19.5z" />
    <glyph glyph-name="obreve" unicode="&#x14f;" horiz-adv-x="602" 
d="M106.5 62q-74.5 64 -74.5 187q0 79 32 139.5t92 94.5t141 34q80 0 142.5 -34t97 -95.5t34.5 -142.5q0 -119 -73 -183t-195 -64t-196.5 64zM408.5 131.5q39.5 38.5 39.5 114.5t-39 126t-108 50q-67 0 -107 -47t-40 -126t40.5 -117.5t106.5 -38.5q68 0 107.5 38.5z
M214 574.5q-40 19.5 -63 53t-23 74.5q0 17 13.5 30.5t31.5 13.5q16 0 28.5 -7.5t13.5 -20.5q5 -41 28 -62.5t59 -21.5q31 0 55 21.5t25 58.5q0 17 13.5 26t30.5 9q18 0 31.5 -13t13.5 -31q0 -41 -23 -75.5t-61.5 -54.5t-83.5 -20q-49 0 -89 19.5z" />
    <glyph glyph-name="Ohungarumlaut" unicode="&#x150;" horiz-adv-x="805" 
d="M217 46.5q-78 39.5 -122 116t-44 182.5q0 105 43 187.5t120.5 129t177.5 46.5q102 0 184.5 -48t130 -132t47.5 -187t-47 -178.5t-128 -115.5t-183 -40q-101 0 -179 39.5zM516.5 142.5q52.5 25.5 84 77t31.5 126.5q0 73 -29.5 130.5t-83 89.5t-122.5 32
q-68 0 -118.5 -31.5t-78 -88t-27.5 -128.5q0 -78 31 -130.5t83 -77.5t114 -25q63 0 115.5 25.5zM232 764.5q-12 12.5 -12 30.5q0 20 17 40l73 85q25 29 49 29q19 0 32 -12.5t13 -32.5q0 -21 -21 -44l-80 -87q-18 -21 -41 -21q-18 0 -30 12.5zM436 764.5q-12 12.5 -12 30.5
q0 20 17 40l72 85q26 29 50 29q20 0 32.5 -12.5t12.5 -32.5q0 -22 -22 -44l-79 -86q-18 -22 -42 -22q-17 0 -29 12.5z" />
    <glyph glyph-name="ohungarumlaut" unicode="&#x151;" horiz-adv-x="602" 
d="M106.5 62q-74.5 64 -74.5 187q0 79 32 139.5t92 94.5t141 34q80 0 142.5 -34t97 -95.5t34.5 -142.5q0 -119 -73 -183t-195 -64t-196.5 64zM408.5 131.5q39.5 38.5 39.5 114.5t-39 126t-108 50q-67 0 -107 -47t-40 -126t40.5 -117.5t106.5 -38.5q68 0 107.5 38.5z
M135 564.5q-12 12.5 -12 30.5q0 20 17 40l73 85q25 29 49 29q19 0 32 -12.5t13 -32.5q0 -21 -21 -44l-80 -87q-18 -21 -41 -21q-18 0 -30 12.5zM339 564.5q-12 12.5 -12 30.5q0 20 17 40l72 85q26 29 50 29q20 0 32.5 -12.5t12.5 -32.5q0 -22 -22 -44l-79 -86
q-18 -22 -42 -22q-17 0 -29 12.5z" />
    <glyph glyph-name="OE" unicode="&#x152;" horiz-adv-x="1004" 
d="M949 95q10 -13 10 -31q0 -39 -36 -45q-37 -5 -124 -5h-51q-106 0 -166 2q-29 1 -41.5 10t-12.5 27t13 30t32 12l3 53q-26 -55 -88.5 -96.5t-157.5 -41.5q-77 0 -140.5 38t-101 114.5t-37.5 187.5q0 114 37 195t101.5 123t144.5 42q98 0 165 -53t89 -132v36l-2 43
q-12 0 -19 11t-7 31q0 44 45 44l53 2q72 4 124 4q78 0 153 -5q15 -1 22.5 -15.5t7.5 -38.5q0 -21 -13.5 -31t-31.5 -9q-50 3 -110 3h-38q-54 0 -77 -2q4 -75 4 -106l-1 -67q-1 -7 -1 -23h142q27 0 41.5 -13t14.5 -37q0 -23 -13 -37t-36 -14h-71q-53 0 -84 -1q-2 -92 -7 -197
q18 -2 75 -2q15 -1 40 -1q34 0 74 4q30 4 46 4q20 0 30 -13zM453.5 142q43.5 30 69 87.5t25.5 136.5q0 72 -27.5 129.5t-73.5 89.5t-99 32q-46 0 -87.5 -32.5t-66.5 -92t-25 -135.5q0 -119 47.5 -182t138.5 -63q55 0 98.5 30z" />
    <glyph glyph-name="oe" unicode="&#x153;" horiz-adv-x="1014" 
d="M571 214q-1 -28 18 -56t52.5 -46.5t74.5 -18.5q50 0 81.5 19t60.5 51q23 23 42 23q15 0 30.5 -15.5t15.5 -32.5q0 -12 -6 -23q-34 -56 -90.5 -86.5t-127.5 -30.5q-67 0 -122.5 31t-86.5 83q-29 -53 -86 -83.5t-130 -30.5q-75 0 -135.5 28.5t-95 83t-34.5 129.5
q0 131 71.5 204.5t199.5 73.5q70 0 125.5 -34t83.5 -93q31 57 86 91t123 34q69 0 124.5 -27t87.5 -74t32 -107q0 -39 -16.5 -57.5t-55.5 -18.5l-322 -8v-9zM410.5 131.5q36.5 38.5 36.5 122.5q0 76 -40 122t-104 46q-72 0 -110.5 -46t-38.5 -137q0 -68 41 -107t102 -39
q77 0 113.5 38.5zM634 389q-40 -31 -55 -76l270 7v7q0 41 -35.5 67t-92.5 26q-47 0 -87 -31z" />
    <glyph glyph-name="Racute" unicode="&#x154;" horiz-adv-x="675" 
d="M610 71q0 -25 -15.5 -43t-40.5 -18q-13 0 -27 4.5t-22 10.5l-282 176q-1 -53 -1 -152q0 -25 -15.5 -40t-43.5 -15q-31 0 -47 17t-16 46q0 153 -2 320q0 59 -2 137l-6 -2q-6 -2 -9 -2q-37 0 -37 62q0 20 13.5 34t37.5 27v15q0 55 70 55q46 0 48 -20v-4q74 22 121 22
q88 0 153 -27.5t100 -76.5t35 -113q0 -67 -38.5 -114.5t-104.5 -71.5t-148 -24h-18l266 -157q31 -17 31 -46zM219 566q4 -108 4 -189q36 -7 98 -7q77 0 120.5 29.5t43.5 81.5q0 49 -40 79t-108 30q-55 0 -118 -24zM271 764.5q-12 12.5 -12 30.5q0 10 4.5 21.5t13.5 18.5
l89 85q15 15 26 22t23 7q20 0 32.5 -12.5t12.5 -32.5q0 -25 -21 -44l-96 -86q-23 -22 -42 -22q-18 0 -30 12.5z" />
    <glyph glyph-name="racute" unicode="&#x155;" horiz-adv-x="515" 
d="M430 476q41 -41 41 -105q0 -62 -39.5 -96t-101.5 -34q-30 0 -42 9.5t-12 30.5q0 20 8.5 28.5t24.5 10.5q61 7 61 54q0 22 -11.5 36t-33.5 14q-31 0 -56.5 -31.5t-41 -75.5t-19.5 -79q-6 -61 -6 -162q0 -50 -13 -67.5t-46 -17.5q-32 0 -47 13t-16 41v172q0 55 -2.5 98
t-8.5 104l-6 62q-2 22 14 35.5t44 13.5q47 0 51 -44q2 -35 4 -86q19 52 58 84.5t93 32.5q62 0 103 -41zM203 564.5q-12 12.5 -12 30.5q0 10 4.5 21.5t13.5 18.5l89 85q15 15 26 22t23 7q20 0 32.5 -12.5t12.5 -32.5q0 -25 -21 -44l-96 -86q-23 -22 -42 -22q-18 0 -30 12.5z
" />
    <glyph glyph-name="uni0156" unicode="&#x156;" horiz-adv-x="675" 
d="M610 71q0 -25 -15.5 -43t-40.5 -18q-13 0 -27 4.5t-22 10.5l-282 176q-1 -53 -1 -152q0 -25 -15.5 -40t-43.5 -15q-31 0 -47 17t-16 46q0 153 -2 320q0 59 -2 137l-6 -2q-6 -2 -9 -2q-37 0 -37 62q0 20 13.5 34t37.5 27v15q0 55 70 55q46 0 48 -20v-4q74 22 121 22
q88 0 153 -27.5t100 -76.5t35 -113q0 -67 -38.5 -114.5t-104.5 -71.5t-148 -24h-18l266 -157q31 -17 31 -46zM219 566q4 -108 4 -189q36 -7 98 -7q77 0 120.5 29.5t43.5 81.5q0 49 -40 79t-108 30q-55 0 -118 -24zM402 -85.5q22 -21.5 22 -52.5q0 -37 -24.5 -77t-67.5 -77
q-12 -9 -28 -9t-27.5 10t-11.5 25q0 12 7 21q3 4 16 17q26 29 29 33q-18 5 -30 21t-12 36q0 31 22 52.5t53 21.5q30 0 52 -21.5z" />
    <glyph glyph-name="uni0157" unicode="&#x157;" horiz-adv-x="515" 
d="M430 476q41 -41 41 -105q0 -62 -39.5 -96t-101.5 -34q-30 0 -42 9.5t-12 30.5q0 20 8.5 28.5t24.5 10.5q61 7 61 54q0 22 -11.5 36t-33.5 14q-31 0 -56.5 -31.5t-41 -75.5t-19.5 -79q-6 -61 -6 -162q0 -50 -13 -67.5t-46 -17.5q-32 0 -47 13t-16 41v172q0 55 -2.5 98
t-8.5 104l-6 62q-2 22 14 35.5t44 13.5q47 0 51 -44q2 -35 4 -86q19 52 58 84.5t93 32.5q62 0 103 -41zM200 -85.5q22 -21.5 22 -52.5q0 -37 -24.5 -77t-67.5 -77q-12 -9 -28 -9t-27.5 10t-11.5 25q0 12 7 21q3 4 16 17q26 29 29 33q-18 5 -30 21t-12 36q0 31 22 52.5
t53 21.5q30 0 52 -21.5z" />
    <glyph glyph-name="Rcaron" unicode="&#x158;" horiz-adv-x="675" 
d="M610 71q0 -25 -15.5 -43t-40.5 -18q-13 0 -27 4.5t-22 10.5l-282 176q-1 -53 -1 -152q0 -25 -15.5 -40t-43.5 -15q-31 0 -47 17t-16 46q0 153 -2 320q0 59 -2 137l-6 -2q-6 -2 -9 -2q-37 0 -37 62q0 20 13.5 34t37.5 27v15q0 55 70 55q46 0 48 -20v-4q74 22 121 22
q88 0 153 -27.5t100 -76.5t35 -113q0 -67 -38.5 -114.5t-104.5 -71.5t-148 -24h-18l266 -157q31 -17 31 -46zM219 566q4 -108 4 -189q36 -7 98 -7q77 0 120.5 29.5t43.5 81.5q0 49 -40 79t-108 30q-55 0 -118 -24zM491.5 951q12.5 -13 12.5 -31q0 -14 -13 -32
q-40 -54 -59 -77.5t-42.5 -39.5t-50.5 -16t-61.5 31t-75.5 79q-7 7 -15 17q-13 14 -13 32t14 31.5t32 13.5q11 0 20 -6t22 -19q8 -8 16 -17.5t18 -19.5q40 -46 47 -46q4 0 17.5 15.5t29.5 37.5q10 15 32 42q15 18 40 18q17 0 29.5 -13z" />
    <glyph glyph-name="rcaron" unicode="&#x159;" horiz-adv-x="515" 
d="M430 476q41 -41 41 -105q0 -62 -39.5 -96t-101.5 -34q-30 0 -42 9.5t-12 30.5q0 20 8.5 28.5t24.5 10.5q61 7 61 54q0 22 -11.5 36t-33.5 14q-31 0 -56.5 -31.5t-41 -75.5t-19.5 -79q-6 -61 -6 -162q0 -50 -13 -67.5t-46 -17.5q-32 0 -47 13t-16 41v172q0 55 -2.5 98
t-8.5 104l-6 62q-2 22 14 35.5t44 13.5q47 0 51 -44q2 -35 4 -86q19 52 58 84.5t93 32.5q62 0 103 -41zM422.5 751q12.5 -13 12.5 -31q0 -14 -13 -32q-40 -54 -59 -77.5t-42.5 -39.5t-50.5 -16t-61.5 31t-75.5 79q-7 7 -15 17q-13 14 -13 32t14 31.5t32 13.5q11 0 20 -6
t22 -19q8 -8 16 -17.5t18 -19.5q40 -46 47 -46q4 0 17.5 15.5t29.5 37.5q10 15 32 42q15 18 40 18q17 0 29.5 -13z" />
    <glyph glyph-name="Sacute" unicode="&#x15a;" horiz-adv-x="605" 
d="M181.5 31q-57.5 31 -88.5 81.5t-31 109.5q0 31 16 45.5t43 14.5q62 0 64 -51q2 -58 39.5 -89.5t88.5 -31.5q45 0 78 20.5t33 60.5q0 30 -20 50t-49 32t-75 25q-60 17 -102.5 35t-80 59.5t-37.5 107.5q0 60 32 107.5t87 74t120 26.5q68 0 123.5 -28.5t87 -75.5t31.5 -100
q0 -31 -15.5 -44t-45.5 -13q-28 0 -41 13t-19 41q-6 40 -37.5 69t-83.5 29q-50 0 -83.5 -28t-33.5 -73q0 -27 17 -43t42 -25.5t91 -29.5q53 -16 98 -37.5t80.5 -63.5t35.5 -106q0 -57 -31 -101t-84.5 -68t-117.5 -24q-74 0 -131.5 31zM238 764.5q-12 12.5 -12 30.5
q0 10 4.5 21.5t13.5 18.5l89 85q15 15 26 22t23 7q20 0 32.5 -12.5t12.5 -32.5q0 -25 -21 -44l-96 -86q-23 -22 -42 -22q-18 0 -30 12.5z" />
    <glyph glyph-name="sacute" unicode="&#x15b;" horiz-adv-x="498" 
d="M128 25q-52 33 -76 86q-7 17 -6 26q2 18 20 33t39 15q14 0 22 -6.5t18 -18.5q28 -36 50 -52.5t55 -16.5q31 0 52.5 14t21.5 37q0 25 -23.5 38.5t-75.5 31.5q-53 18 -85.5 34t-56 46.5t-23.5 77.5q0 46 26 81t70.5 54t97.5 19q56 0 97.5 -21t63.5 -55.5t22 -74.5
q0 -25 -12.5 -37t-41.5 -12q-28 0 -37.5 9t-12.5 25q-7 67 -79 67q-36 0 -54 -15.5t-18 -36.5q0 -25 24 -39t77 -32q51 -16 84 -32t56.5 -46t23.5 -77q0 -53 -29.5 -87.5t-75 -51t-93.5 -16.5q-69 0 -121 33zM177 571q-12 10 -14 24q-1 3 -1 11q0 16 13 35l87 106
q14 16 25.5 22.5t26.5 6.5q20 0 33.5 -14t13.5 -34q0 -23 -24 -50l-89 -94q-12 -13 -21.5 -18t-22.5 -5q-15 0 -27 10z" />
    <glyph glyph-name="Scircumflex" unicode="&#x15c;" horiz-adv-x="605" 
d="M181.5 31q-57.5 31 -88.5 81.5t-31 109.5q0 31 16 45.5t43 14.5q62 0 64 -51q2 -58 39.5 -89.5t88.5 -31.5q45 0 78 20.5t33 60.5q0 30 -20 50t-49 32t-75 25q-60 17 -102.5 35t-80 59.5t-37.5 107.5q0 60 32 107.5t87 74t120 26.5q68 0 123.5 -28.5t87 -75.5t31.5 -100
q0 -31 -15.5 -44t-45.5 -13q-28 0 -41 13t-19 41q-6 40 -37.5 69t-83.5 29q-50 0 -83.5 -28t-33.5 -73q0 -27 17 -43t42 -25.5t91 -29.5q53 -16 98 -37.5t80.5 -63.5t35.5 -106q0 -57 -31 -101t-84.5 -68t-117.5 -24q-74 0 -131.5 31zM388 773l-30 38q-17 23 -30.5 39.5
t-18.5 16.5q-7 0 -47 -46q-10 -10 -18 -19.5t-16 -17.5q-13 -13 -22 -19t-20 -6q-18 0 -32 13.5t-14 31.5q0 20 13 33l27 29q40 44 70.5 70.5t54.5 26.5q28 0 49 -18t54 -58q23 -30 49 -57q13 -13 13 -32q0 -18 -12.5 -31t-29.5 -13q-25 0 -40 19z" />
    <glyph glyph-name="scircumflex" unicode="&#x15d;" horiz-adv-x="498" 
d="M128 25q-52 33 -76 86q-7 17 -6 26q2 18 20 33t39 15q14 0 22 -6.5t18 -18.5q28 -36 50 -52.5t55 -16.5q31 0 52.5 14t21.5 37q0 25 -23.5 38.5t-75.5 31.5q-53 18 -85.5 34t-56 46.5t-23.5 77.5q0 46 26 81t70.5 54t97.5 19q56 0 97.5 -21t63.5 -55.5t22 -74.5
q0 -25 -12.5 -37t-41.5 -12q-28 0 -37.5 9t-12.5 25q-7 67 -79 67q-36 0 -54 -15.5t-18 -36.5q0 -25 24 -39t77 -32q51 -16 84 -32t56.5 -46t23.5 -77q0 -53 -29.5 -87.5t-75 -51t-93.5 -16.5q-69 0 -121 33zM332 573l-30 38q-17 23 -30.5 39.5t-18.5 16.5q-7 0 -47 -46
q-10 -10 -18 -19.5t-16 -17.5q-13 -13 -22 -19t-20 -6q-18 0 -32 13.5t-14 31.5q0 20 13 33l27 29q40 44 70.5 70.5t54.5 26.5q28 0 49 -18t54 -58q23 -30 49 -57q13 -13 13 -32q0 -18 -12.5 -31t-29.5 -13q-25 0 -40 19z" />
    <glyph glyph-name="Scedilla" unicode="&#x15e;" horiz-adv-x="605" 
d="M489.5 63q-56.5 -52 -143.5 -61l-39 -58q84 -18 84 -76q0 -43 -33 -69t-93 -26q-41 0 -76 15q-15 6 -22.5 13.5t-7.5 19.5q0 18 10 26.5t26 8.5q11 0 21 -3q37 -11 53 -11q24 0 35.5 6t11.5 19q0 12 -14 18t-47 11q-18 3 -28 13.5t-10 24.5q0 4 2 14l37 57
q-59 11 -103 43t-67.5 77.5t-23.5 96.5q0 31 16 45.5t43 14.5q62 0 64 -51q2 -58 39.5 -89.5t88.5 -31.5q45 0 78 20.5t33 60.5q0 30 -20 50t-49 32t-75 25q-60 17 -102.5 35t-80 59.5t-37.5 107.5q0 60 32 107.5t87 74t120 26.5q68 0 123.5 -28.5t87 -75.5t31.5 -100
q0 -31 -15.5 -44t-45.5 -13q-28 0 -41 13t-19 41q-6 40 -37.5 69t-83.5 29q-50 0 -83.5 -28t-33.5 -73q0 -27 17 -43t42 -25.5t91 -29.5q53 -16 98 -37.5t80.5 -63.5t35.5 -106q0 -78 -56.5 -130z" />
    <glyph glyph-name="scedilla" unicode="&#x15f;" horiz-adv-x="498" 
d="M259 -58q44 -11 68.5 -34t24.5 -66q0 -50 -39 -78t-98 -28q-25 0 -49 4.5t-39 11.5q-15 6 -24 17.5t-9 23.5q0 16 11 27t28 11q3 0 25 -6q35 -11 58 -11q24 0 36 10t12 25q0 19 -15.5 25t-57.5 13q-17 3 -25.5 12.5t-8.5 21.5t6 21l34 55q-51 11 -88.5 41.5t-56.5 72.5
q-7 17 -6 26q2 18 20 33t39 15q14 0 22 -6.5t18 -18.5q28 -36 50 -52.5t55 -16.5q31 0 52.5 14t21.5 37q0 25 -23.5 38.5t-75.5 31.5q-53 18 -85.5 34t-56 46.5t-23.5 77.5q0 46 26 81t70.5 54t97.5 19q56 0 97.5 -21t63.5 -55.5t22 -74.5q0 -25 -12.5 -37t-41.5 -12
q-28 0 -37.5 9t-12.5 25q-7 67 -79 67q-36 0 -54 -15.5t-18 -36.5q0 -25 24 -39t77 -32q51 -16 84 -32t56.5 -46t23.5 -77q0 -66 -45 -104t-111 -48z" />
    <glyph glyph-name="Scaron" unicode="&#x160;" horiz-adv-x="605" 
d="M181.5 31q-57.5 31 -88.5 81.5t-31 109.5q0 31 16 45.5t43 14.5q62 0 64 -51q2 -58 39.5 -89.5t88.5 -31.5q45 0 78 20.5t33 60.5q0 30 -20 50t-49 32t-75 25q-60 17 -102.5 35t-80 59.5t-37.5 107.5q0 60 32 107.5t87 74t120 26.5q68 0 123.5 -28.5t87 -75.5t31.5 -100
q0 -31 -15.5 -44t-45.5 -13q-28 0 -41 13t-19 41q-6 40 -37.5 69t-83.5 29q-50 0 -83.5 -28t-33.5 -73q0 -27 17 -43t42 -25.5t91 -29.5q53 -16 98 -37.5t80.5 -63.5t35.5 -106q0 -57 -31 -101t-84.5 -68t-117.5 -24q-74 0 -131.5 31zM457.5 951q12.5 -13 12.5 -31
q0 -14 -13 -32q-40 -54 -59 -77.5t-42.5 -39.5t-50.5 -16t-61.5 31t-75.5 79q-7 7 -15 17q-13 14 -13 32t14 31.5t32 13.5q11 0 20 -6t22 -19q8 -8 16 -17.5t18 -19.5q40 -46 47 -46q4 0 17.5 15.5t29.5 37.5q10 15 32 42q15 18 40 18q17 0 29.5 -13z" />
    <glyph glyph-name="scaron" unicode="&#x161;" horiz-adv-x="498" 
d="M128 25q-52 33 -76 86q-7 17 -6 26q2 18 20 33t39 15q14 0 22 -6.5t18 -18.5q28 -36 50 -52.5t55 -16.5q31 0 52.5 14t21.5 37q0 25 -23.5 38.5t-75.5 31.5q-53 18 -85.5 34t-56 46.5t-23.5 77.5q0 46 26 81t70.5 54t97.5 19q56 0 97.5 -21t63.5 -55.5t22 -74.5
q0 -25 -12.5 -37t-41.5 -12q-28 0 -37.5 9t-12.5 25q-7 67 -79 67q-36 0 -54 -15.5t-18 -36.5q0 -25 24 -39t77 -32q51 -16 84 -32t56.5 -46t23.5 -77q0 -53 -29.5 -87.5t-75 -51t-93.5 -16.5q-69 0 -121 33zM401.5 751q12.5 -13 12.5 -31q0 -14 -13 -32q-40 -54 -59 -77.5
t-42.5 -39.5t-50.5 -16t-61.5 31t-75.5 79q-7 7 -15 17q-13 14 -13 32t14 31.5t32 13.5q11 0 20 -6t22 -19q8 -8 16 -17.5t18 -19.5q40 -46 47 -46q4 0 17.5 15.5t29.5 37.5q10 15 32 42q15 18 40 18q17 0 29.5 -13z" />
    <glyph glyph-name="uni0162" unicode="&#x162;" horiz-adv-x="580" 
d="M533.5 675.5q14.5 -12.5 14.5 -40.5q0 -29 -16.5 -43t-46.5 -12q-83 5 -132 6q-8 -103 -13 -248q-4 -164 -4 -290q0 -25 -7 -38t-25 -17l-33 -49q84 -19 84 -76q0 -42 -33.5 -68.5t-92.5 -26.5q-41 0 -76 15q-15 7 -22.5 14t-7.5 19q0 18 10 26.5t25 8.5q11 0 21 -3
q4 -1 21.5 -6t32.5 -5q24 0 35 6t11 19q0 12 -14 18t-46 11q-19 3 -29 13.5t-10 25.5q0 5 2 13l39 60q-13 14 -13 44q0 121 8 286l8 145q1 41 5 102q-41 -1 -109 -6l-24 -2l-10 -1q-25 0 -39.5 16t-14.5 42q0 45 49 52q78 11 222 11q130 0 191 -6q25 -3 39.5 -15.5z" />
    <glyph glyph-name="uni0163" unicode="&#x163;" horiz-adv-x="443" 
d="M299 -5l-32 -53q44 -11 68.5 -34t24.5 -66q0 -50 -39 -78t-98 -28q-25 0 -49 4.5t-39 11.5q-15 6 -24 17.5t-9 23.5q0 16 11 27t28 11q3 0 25 -6q35 -11 58 -11q24 0 36 10t12 25q0 19 -15.5 25t-57.5 13q-17 3 -25.5 12.5t-8.5 21.5t6 21l40 66q-54 20 -78.5 87.5
t-24.5 189.5q0 31 2 85l-36 2q-48 2 -48 47q0 25 13 36.5t43 10.5l36 -2q7 71 23 163q8 43 59 43q31 0 47.5 -16t12.5 -38q-16 -108 -21 -158l61 -1q44 -1 44 -45q0 -23 -12 -34t-41 -11h-60q-2 -52 -2 -82q0 -106 10 -148t35 -42q16 0 23 11.5t8 38.5q1 22 12 32t36 10
q28 0 40.5 -12t12.5 -38q0 -51 -28 -87t-75 -47z" />
    <glyph glyph-name="Tcaron" unicode="&#x164;" horiz-adv-x="580" 
d="M533.5 675.5q14.5 -12.5 14.5 -40.5q0 -29 -16.5 -43t-46.5 -12q-83 5 -132 6q-8 -103 -13 -248q-4 -164 -4 -290q0 -32 -12.5 -45t-47.5 -13q-36 0 -52 14t-16 48q0 121 8 286l8 145q1 41 5 102q-41 -1 -109 -6l-24 -2l-10 -1q-25 0 -39.5 16t-14.5 42q0 45 49 52
q78 11 222 11q130 0 191 -6q25 -3 39.5 -15.5zM426.5 951q12.5 -13 12.5 -31q0 -14 -13 -32q-40 -54 -59 -77.5t-42.5 -39.5t-50.5 -16t-61.5 31t-75.5 79q-7 7 -15 17q-13 14 -13 32t14 31.5t32 13.5q11 0 20 -6t22 -19q8 -8 16 -17.5t18 -19.5q40 -46 47 -46
q4 0 17.5 15.5t29.5 37.5q10 15 32 42q15 18 40 18q17 0 29.5 -13z" />
    <glyph glyph-name="tcaron" unicode="&#x165;" horiz-adv-x="523" 
d="M393.5 175q12.5 -12 12.5 -38q0 -61 -39.5 -99.5t-100.5 -38.5q-83 0 -120.5 68.5t-37.5 217.5q0 31 2 85l-36 2q-48 2 -48 47q0 25 13 36.5t43 10.5l36 -2q7 71 23 163q8 43 59 43q31 0 47.5 -16t12.5 -38q-16 -108 -21 -158l61 -1q44 -1 44 -45q0 -23 -12 -34t-41 -11
h-60q-2 -52 -2 -82q0 -106 10 -148t35 -42q16 0 23 11.5t8 38.5q1 22 12 32t36 10q28 0 40.5 -12zM484.5 674.5q21.5 -22.5 21.5 -53.5q0 -37 -24 -76t-68 -76q-12 -9 -27 -9q-17 0 -27.5 10.5t-10.5 24.5t10 25q3 4 14 15q14 14 26 29q-18 3 -30 21t-12 38q0 31 22 52.5
t53 21.5t52.5 -22.5z" />
    <glyph glyph-name="Tbar" unicode="&#x166;" horiz-adv-x="580" 
d="M533.5 675.5q14.5 -12.5 14.5 -40.5q0 -29 -16.5 -43t-46.5 -12q-83 5 -132 6q-7 -82 -10 -165l80 -2q22 -1 35.5 -13t13.5 -33t-13.5 -34.5t-35.5 -13.5l-83 3q-4 -157 -4 -280q0 -32 -12.5 -45t-47.5 -13q-36 0 -52 14t-16 48q0 119 8 280l-76 3q-20 1 -33.5 14.5
t-13.5 32.5t14.5 32.5t34.5 12.5l79 -2l3 56q1 41 5 104q-41 -1 -109 -6l-24 -2l-10 -1q-25 0 -39.5 16t-14.5 42q0 45 49 52q78 11 222 11q130 0 191 -6q25 -3 39.5 -15.5z" />
    <glyph glyph-name="tbar" unicode="&#x167;" horiz-adv-x="449" 
d="M399.5 177.5q12.5 -11.5 12.5 -37.5q0 -62 -39 -100.5t-100 -38.5q-76 0 -113 59.5t-42 183.5l-38 1q-27 1 -38 12t-11 32q0 23 12.5 33t43.5 9l30 -1q2 62 4 93q-30 2 -46 2q-25 1 -36.5 9t-11.5 27q0 22 11 32.5t36 10.5q10 0 32 -2q14 -2 21 -2q9 118 23 187
q7 43 56 43q28 0 42 -13t14 -32l-1 -9q-10 -57 -22 -180l59 -2q26 0 36 -9.5t10 -30.5q0 -20 -12 -28t-41 -8q-38 0 -59 1q-4 -64 -5 -94l74 -3q26 -1 36.5 -11.5t10.5 -31.5t-12.5 -30.5t-41.5 -8.5l-66 2q7 -144 52 -144q32 0 32 50q0 22 11.5 31.5t35.5 9.5
q28 0 40.5 -11.5z" />
    <glyph glyph-name="Utilde" unicode="&#x168;" horiz-adv-x="692" 
d="M618 366q2 -158 2 -306q0 -33 -15.5 -48t-46.5 -15t-46 14t-15 46v39q-28 -42 -78 -68.5t-115 -26.5q-75 0 -127.5 34t-79 93t-26.5 134q0 133 3 263l3 125q1 24 16.5 38.5t45.5 14.5q60 0 60 -53q0 -76 -2 -192t-2 -196q0 -71 35 -110.5t92 -39.5q43 0 83.5 29t65 76.5
t24.5 101.5l-1 336q0 54 57 54q30 0 46.5 -14t16.5 -41q0 -104 3 -227q0 -39 1 -61zM163 814q0 16 12 31q27 32 49 45.5t52 13.5q49 0 95 -24q6 -3 18.5 -9.5t17.5 -8.5t10 -2q10 0 19 11q11 11 19 16t18 5q17 0 31.5 -15t14.5 -32q0 -19 -14 -33q-22 -22 -43 -32.5
t-45 -10.5q-19 0 -36 6t-31 13t-19 9q-36 19 -48 19q-7 0 -14 -6t-21 -21q-18 -20 -40 -20q-17 0 -31 12q-14 16 -14 33z" />
    <glyph glyph-name="utilde" unicode="&#x169;" horiz-adv-x="564" 
d="M484.5 95q5.5 -18 12.5 -29.5t7 -14.5q0 -20 -16 -34.5t-40 -14.5q-20 0 -41 23t-25 48q-39 -74 -140 -74q-87 0 -133.5 60.5t-46.5 161.5v240q0 19 17 31.5t43 12.5q25 0 43 -12.5t18 -31.5v-239q0 -57 18 -92.5t57 -35.5q49 0 72 45.5t23 141.5v179q0 24 16.5 37
t43.5 13q28 0 45.5 -13.5t17.5 -36.5l3 -318q0 -29 5.5 -47zM88 614q0 16 12 31q27 32 49 45.5t52 13.5q49 0 95 -24q6 -3 18.5 -9.5t17.5 -8.5t10 -2q10 0 19 11q11 11 19 16t18 5q17 0 31.5 -15t14.5 -32q0 -19 -14 -33q-22 -22 -43 -32.5t-45 -10.5q-19 0 -36 6t-31 13
t-19 9q-36 19 -48 19q-7 0 -14 -6t-21 -21q-18 -20 -40 -20q-17 0 -31 12q-14 16 -14 33z" />
    <glyph glyph-name="Umacron" unicode="&#x16a;" horiz-adv-x="692" 
d="M618 366q2 -158 2 -306q0 -33 -15.5 -48t-46.5 -15t-46 14t-15 46v39q-28 -42 -78 -68.5t-115 -26.5q-75 0 -127.5 34t-79 93t-26.5 134q0 133 3 263l3 125q1 24 16.5 38.5t45.5 14.5q60 0 60 -53q0 -76 -2 -192t-2 -196q0 -71 35 -110.5t92 -39.5q43 0 83.5 29t65 76.5
t24.5 101.5l-1 336q0 54 57 54q30 0 46.5 -14t16.5 -41q0 -104 3 -227q0 -39 1 -61zM147.5 788.5q-10.5 13.5 -10.5 34.5t11 33t31 15q71 11 169 15q21 1 61 1l83 -1q22 0 35.5 -14.5t13.5 -36.5q0 -20 -13 -31.5t-35 -11.5t-38 1q-52 2 -96 2q-54 0 -92.5 -4.5t-89.5 -12.5
q-19 -3 -29.5 10.5z" />
    <glyph glyph-name="umacron" unicode="&#x16b;" horiz-adv-x="564" 
d="M484.5 95q5.5 -18 12.5 -29.5t7 -14.5q0 -20 -16 -34.5t-40 -14.5q-20 0 -41 23t-25 48q-39 -74 -140 -74q-87 0 -133.5 60.5t-46.5 161.5v240q0 19 17 31.5t43 12.5q25 0 43 -12.5t18 -31.5v-239q0 -57 18 -92.5t57 -35.5q49 0 72 45.5t23 141.5v179q0 24 16.5 37
t43.5 13q28 0 45.5 -13.5t17.5 -36.5l3 -318q0 -29 5.5 -47zM72.5 588.5q-10.5 13.5 -10.5 34.5t11 33t31 15q71 11 169 15q21 1 61 1l83 -1q22 0 35.5 -14.5t13.5 -36.5q0 -20 -13 -31.5t-35 -11.5t-38 1q-52 2 -96 2q-54 0 -92.5 -4.5t-89.5 -12.5q-19 -3 -29.5 10.5z" />
    <glyph glyph-name="Ubreve" unicode="&#x16c;" horiz-adv-x="692" 
d="M618 366q2 -158 2 -306q0 -33 -15.5 -48t-46.5 -15t-46 14t-15 46v39q-28 -42 -78 -68.5t-115 -26.5q-75 0 -127.5 34t-79 93t-26.5 134q0 133 3 263l3 125q1 24 16.5 38.5t45.5 14.5q60 0 60 -53q0 -76 -2 -192t-2 -196q0 -71 35 -110.5t92 -39.5q43 0 83.5 29t65 76.5
t24.5 101.5l-1 336q0 54 57 54q30 0 46.5 -14t16.5 -41q0 -104 3 -227q0 -39 1 -61zM255 774.5q-40 19.5 -63 53t-23 74.5q0 17 13.5 30.5t31.5 13.5q16 0 28.5 -7.5t13.5 -20.5q5 -41 28 -62.5t59 -21.5q31 0 55 21.5t25 58.5q0 17 13.5 26t30.5 9q18 0 31.5 -13t13.5 -31
q0 -41 -23 -75.5t-61.5 -54.5t-83.5 -20q-49 0 -89 19.5z" />
    <glyph glyph-name="ubreve" unicode="&#x16d;" horiz-adv-x="564" 
d="M484.5 95q5.5 -18 12.5 -29.5t7 -14.5q0 -20 -16 -34.5t-40 -14.5q-20 0 -41 23t-25 48q-39 -74 -140 -74q-87 0 -133.5 60.5t-46.5 161.5v240q0 19 17 31.5t43 12.5q25 0 43 -12.5t18 -31.5v-239q0 -57 18 -92.5t57 -35.5q49 0 72 45.5t23 141.5v179q0 24 16.5 37
t43.5 13q28 0 45.5 -13.5t17.5 -36.5l3 -318q0 -29 5.5 -47zM180 574.5q-40 19.5 -63 53t-23 74.5q0 17 13.5 30.5t31.5 13.5q16 0 28.5 -7.5t13.5 -20.5q5 -41 28 -62.5t59 -21.5q31 0 55 21.5t25 58.5q0 17 13.5 26t30.5 9q18 0 31.5 -13t13.5 -31q0 -41 -23 -75.5
t-61.5 -54.5t-83.5 -20q-49 0 -89 19.5z" />
    <glyph glyph-name="Uring" unicode="&#x16e;" horiz-adv-x="692" 
d="M618 366q2 -158 2 -306q0 -33 -15.5 -48t-46.5 -15t-46 14t-15 46v39q-28 -42 -78 -68.5t-115 -26.5q-75 0 -127.5 34t-79 93t-26.5 134q0 133 3 263l3 125q1 24 16.5 38.5t45.5 14.5q60 0 60 -53q0 -76 -2 -192t-2 -196q0 -71 35 -110.5t92 -39.5q43 0 83.5 29t65 76.5
t24.5 101.5l-1 336q0 54 57 54q30 0 46.5 -14t16.5 -41q0 -104 3 -227q0 -39 1 -61zM255 773.5q-36 36.5 -36 88.5q0 51 36.5 86.5t90.5 35.5q34 0 62 -17.5t44 -45.5t16 -59q0 -54 -35 -89.5t-89 -35.5q-53 0 -89 36.5zM380 826.5q14 14.5 14 36.5q0 18 -14 32.5t-36 14.5
q-21 0 -35.5 -14t-14.5 -33q0 -22 14.5 -36.5t35.5 -14.5q22 0 36 14.5z" />
    <glyph glyph-name="uring" unicode="&#x16f;" horiz-adv-x="564" 
d="M484.5 95q5.5 -18 12.5 -29.5t7 -14.5q0 -20 -16 -34.5t-40 -14.5q-20 0 -41 23t-25 48q-39 -74 -140 -74q-87 0 -133.5 60.5t-46.5 161.5v240q0 19 17 31.5t43 12.5q25 0 43 -12.5t18 -31.5v-239q0 -57 18 -92.5t57 -35.5q49 0 72 45.5t23 141.5v179q0 24 16.5 37
t43.5 13q28 0 45.5 -13.5t17.5 -36.5l3 -318q0 -29 5.5 -47zM180 573.5q-36 36.5 -36 88.5q0 51 36.5 86.5t90.5 35.5q34 0 62 -17.5t44 -45.5t16 -59q0 -54 -35 -89.5t-89 -35.5q-53 0 -89 36.5zM305 626.5q14 14.5 14 36.5q0 18 -14 32.5t-36 14.5q-21 0 -35.5 -14
t-14.5 -33q0 -22 14.5 -36.5t35.5 -14.5q22 0 36 14.5z" />
    <glyph glyph-name="Uhungarumlaut" unicode="&#x170;" horiz-adv-x="692" 
d="M618 366q2 -158 2 -306q0 -33 -15.5 -48t-46.5 -15t-46 14t-15 46v39q-28 -42 -78 -68.5t-115 -26.5q-75 0 -127.5 34t-79 93t-26.5 134q0 133 3 263l3 125q1 24 16.5 38.5t45.5 14.5q60 0 60 -53q0 -76 -2 -192t-2 -196q0 -71 35 -110.5t92 -39.5q43 0 83.5 29t65 76.5
t24.5 101.5l-1 336q0 54 57 54q30 0 46.5 -14t16.5 -41q0 -104 3 -227q0 -39 1 -61zM176 764.5q-12 12.5 -12 30.5q0 20 17 40l73 85q25 29 49 29q19 0 32 -12.5t13 -32.5q0 -21 -21 -44l-80 -87q-18 -21 -41 -21q-18 0 -30 12.5zM380 764.5q-12 12.5 -12 30.5q0 20 17 40
l72 85q26 29 50 29q20 0 32.5 -12.5t12.5 -32.5q0 -22 -22 -44l-79 -86q-18 -22 -42 -22q-17 0 -29 12.5z" />
    <glyph glyph-name="uhungarumlaut" unicode="&#x171;" horiz-adv-x="564" 
d="M484.5 95q5.5 -18 12.5 -29.5t7 -14.5q0 -20 -16 -34.5t-40 -14.5q-20 0 -41 23t-25 48q-39 -74 -140 -74q-87 0 -133.5 60.5t-46.5 161.5v240q0 19 17 31.5t43 12.5q25 0 43 -12.5t18 -31.5v-239q0 -57 18 -92.5t57 -35.5q49 0 72 45.5t23 141.5v179q0 24 16.5 37
t43.5 13q28 0 45.5 -13.5t17.5 -36.5l3 -318q0 -29 5.5 -47zM101 564.5q-12 12.5 -12 30.5q0 20 17 40l73 85q25 29 49 29q19 0 32 -12.5t13 -32.5q0 -21 -21 -44l-80 -87q-18 -21 -41 -21q-18 0 -30 12.5zM305 564.5q-12 12.5 -12 30.5q0 20 17 40l72 85q26 29 50 29
q20 0 32.5 -12.5t12.5 -32.5q0 -22 -22 -44l-79 -86q-18 -22 -42 -22q-17 0 -29 12.5z" />
    <glyph glyph-name="Uogonek" unicode="&#x172;" horiz-adv-x="692" 
d="M640.5 -89q7.5 -9 7.5 -25q0 -25 -19 -38.5t-52 -13.5q-51 0 -81.5 24.5t-30.5 70.5q0 49 39 93q-7 13 -7 35v39q-28 -42 -78 -68.5t-115 -26.5q-75 0 -127.5 34t-79 93t-26.5 134q0 133 3 263l3 125q1 24 16.5 38.5t45.5 14.5q60 0 60 -53q0 -76 -2 -192t-2 -196
q0 -71 35 -110.5t92 -39.5q43 0 83.5 29t65 76.5t24.5 101.5l-1 336q0 54 57 54q30 0 46.5 -14t16.5 -41q0 -104 3 -227q0 -39 1 -61q2 -158 2 -306q0 -19 -5 -32q-5 -12 -16 -22q-26 -21 -36.5 -36.5t-10.5 -30.5q0 -13 8 -20t22 -7q6 0 21 4t19 4q11 0 18.5 -9z" />
    <glyph glyph-name="uogonek" unicode="&#x173;" horiz-adv-x="564" 
d="M525.5 -80q7.5 -9 7.5 -25q0 -25 -18.5 -38.5t-52.5 -13.5q-52 0 -82 24.5t-30 70.5q0 53 46 101q-11 17 -14 34q-39 -74 -140 -74q-87 0 -133.5 60.5t-46.5 161.5v240q0 19 17 31.5t43 12.5q25 0 43 -12.5t18 -31.5v-239q0 -57 18 -92.5t57 -35.5q49 0 72 45.5t23 141.5
v179q0 24 16.5 37t43.5 13q28 0 45.5 -13.5t17.5 -36.5l3 -318q0 -43 18 -76l3 -5q4 -8 4 -10q0 -12 -6.5 -23t-18.5 -18q-22 -19 -32 -33.5t-10 -28.5q0 -27 31 -27q6 0 20 4q16 4 20 4q10 0 17.5 -9z" />
    <glyph glyph-name="Wcircumflex" unicode="&#x174;" horiz-adv-x="861" 
d="M228.5 15q-22.5 14 -28.5 36q-14 58 -24 102q-26 121 -56 225q-36 133 -35 128l-34 124q-3 9 -3 19q0 25 19.5 40.5t49.5 15.5q21 0 34 -9t19 -31l25 -94q31 -113 43 -166l20 -93q11 -52 21 -95t14 -43q3 0 12 21t19 49q5 13 11 30.5t15 39.5q3 7 18.5 46t31 56t32.5 17
q24 0 42 -27.5t48 -96.5q30 -75 43.5 -104.5t18.5 -29.5q3 0 11 37.5t16 83.5l21 108l8 37q26 128 48 224q9 39 57 39q29 0 48.5 -15t19.5 -40q0 -7 -3 -16q-25 -95 -61 -254q-9 -41 -44 -209q-2 -11 -23 -113q-6 -26 -25.5 -40t-50.5 -14q-33 0 -58 22t-52 75
q-16 31 -30 66q-10 23 -19 41t-12 18q-4 0 -24 -54q-19 -51 -30 -75q-25 -53 -48.5 -74t-53.5 -21q-28 0 -50.5 14zM515 773l-30 38q-17 23 -30.5 39.5t-18.5 16.5q-7 0 -47 -46q-10 -10 -18 -19.5t-16 -17.5q-13 -13 -22 -19t-20 -6q-18 0 -32 13.5t-14 31.5q0 20 13 33
l27 29q40 44 70.5 70.5t54.5 26.5q28 0 49 -18t54 -58q23 -30 49 -57q13 -13 13 -32q0 -18 -12.5 -31t-29.5 -13q-25 0 -40 19z" />
    <glyph glyph-name="wcircumflex" unicode="&#x175;" horiz-adv-x="772" 
d="M177.5 43.5q-34.5 42.5 -61.5 125.5q-21 69 -36 155.5t-15 132.5q0 36 14.5 50t43.5 14q27 0 42.5 -10.5t18.5 -35.5q6 -69 12 -114t21 -113q12 -53 20.5 -80.5t16.5 -27.5t23 52.5t39 153.5l7 28q7 30 21.5 45.5t39.5 15.5q24 0 39 -14.5t25 -46.5l21 -68
q25 -84 40 -124.5t25 -40.5q7 0 13.5 26.5t17.5 89.5q13 79 17 119.5t7 96.5q3 48 61 48q32 0 46 -17t14 -55q0 -44 -12 -125t-30 -149q-45 -174 -126 -174q-52 0 -91.5 72.5t-64.5 207.5q-38 -280 -136 -280q-38 0 -72.5 42.5zM468 573l-30 38q-17 23 -30.5 39.5
t-18.5 16.5q-7 0 -47 -46q-10 -10 -18 -19.5t-16 -17.5q-13 -13 -22 -19t-20 -6q-18 0 -32 13.5t-14 31.5q0 20 13 33l27 29q40 44 70.5 70.5t54.5 26.5q28 0 49 -18t54 -58q23 -30 49 -57q13 -13 13 -32q0 -18 -12.5 -31t-29.5 -13q-25 0 -40 19z" />
    <glyph glyph-name="Ycircumflex" unicode="&#x176;" horiz-adv-x="655" 
d="M285 17.5q-16 15.5 -16 41.5l-3 272q-18 3 -53.5 39.5t-62.5 77.5q-44 68 -91 183q-2 8 -2 15q0 21 20.5 38t48.5 17q20 0 34 -11.5t25 -34.5q21 -45 38.5 -81t39.5 -73q47 -78 67 -78t64 78q56 105 80 158q11 22 22 31t33 9q31 0 51 -14.5t20 -38.5q0 -6 -5 -24
q-16 -39 -43 -92.5t-47 -85.5q-28 -44 -64 -77.5t-53 -35.5l3 -269q0 -28 -15.5 -44t-44.5 -16q-30 0 -46 15.5zM413 773l-30 38q-17 23 -30.5 39.5t-18.5 16.5q-7 0 -47 -46q-10 -10 -18 -19.5t-16 -17.5q-13 -13 -22 -19t-20 -6q-18 0 -32 13.5t-14 31.5q0 20 13 33l27 29
q40 44 70.5 70.5t54.5 26.5q28 0 49 -18t54 -58q23 -30 49 -57q13 -13 13 -32q0 -18 -12.5 -31t-29.5 -13q-25 0 -40 19z" />
    <glyph glyph-name="ycircumflex" unicode="&#x177;" horiz-adv-x="535" 
d="M182 -246.5q-18 15.5 -18 38.5q0 8 4 22q25 63 82 227q-46 32 -89 103t-74.5 153.5t-44.5 147.5q-2 8 -2 18q0 23 15.5 35t41.5 12q25 0 35 -9.5t14 -28.5q33 -122 70.5 -205.5t74.5 -109.5q25 85 56 205l30 114q5 20 16 28t33 8q29 0 47 -12.5t19 -33.5q0 -7 -1 -11
q-51 -205 -106 -375q-72 -223 -105 -305q-8 -18 -18.5 -27.5t-32.5 -9.5q-29 0 -47 15.5zM348 573l-30 38q-17 23 -30.5 39.5t-18.5 16.5q-7 0 -47 -46q-10 -10 -18 -19.5t-16 -17.5q-13 -13 -22 -19t-20 -6q-18 0 -32 13.5t-14 31.5q0 20 13 33l27 29q40 44 70.5 70.5
t54.5 26.5q28 0 49 -18t54 -58q23 -30 49 -57q13 -13 13 -32q0 -18 -12.5 -31t-29.5 -13q-25 0 -40 19z" />
    <glyph glyph-name="Ydieresis" unicode="&#x178;" horiz-adv-x="655" 
d="M285 17.5q-16 15.5 -16 41.5l-3 272q-18 3 -53.5 39.5t-62.5 77.5q-44 68 -91 183q-2 8 -2 15q0 21 20.5 38t48.5 17q20 0 34 -11.5t25 -34.5q21 -45 38.5 -81t39.5 -73q47 -78 67 -78t64 78q56 105 80 158q11 22 22 31t33 9q31 0 51 -14.5t20 -38.5q0 -6 -5 -24
q-16 -39 -43 -92.5t-47 -85.5q-28 -44 -64 -77.5t-53 -35.5l3 -269q0 -28 -15.5 -44t-44.5 -16q-30 0 -46 15.5zM150.5 786q-20.5 21 -20.5 50q0 28 20.5 48t49.5 20t50 -20t21 -48t-21.5 -49.5t-49.5 -21.5q-29 0 -49.5 21zM414.5 786q-20.5 21 -20.5 50q0 28 20.5 48
t49.5 20t49.5 -20t20.5 -48q0 -29 -21 -50t-49 -21q-29 0 -49.5 21z" />
    <glyph glyph-name="Zacute" unicode="&#x179;" horiz-adv-x="698" 
d="M339 26q-36 0 -66 -1t-49 -2l-77 -2q-51 0 -78.5 7.5t-27.5 35.5q0 29 37 74t128 138q78 81 118 123l113 121q44 45 60 64q-103 -9 -144 -9q-56 0 -121.5 5.5t-98.5 13.5q-31 7 -44.5 20.5t-13.5 34.5q0 24 14.5 39t42.5 15q15 0 71 -6q80 -12 155 -12q35 0 72 2.5
t86 6.5q35 2 51 4t35 -3t32 -14q26 -18 26 -49q0 -32 -43 -83.5t-132 -141.5q-15 -16 -28 -29t-23 -24q-127 -131 -153 -159l-65 -67q9 1 24 1q79 6 151 6q53 0 89.5 -2.5t95.5 -10.5q26 -3 40 -16.5t14 -35.5q0 -25 -16 -41t-39 -15q-156 12 -236 12zM276 764.5
q-12 12.5 -12 30.5q0 10 4.5 21.5t13.5 18.5l89 85q15 15 26 22t23 7q20 0 32.5 -12.5t12.5 -32.5q0 -25 -21 -44l-96 -86q-23 -22 -42 -22q-18 0 -30 12.5z" />
    <glyph glyph-name="zacute" unicode="&#x17a;" horiz-adv-x="562" 
d="M423 -2q-68 6 -122 6q-47 0 -121 -4q-39 -3 -64 -3q-82 0 -82 46q0 23 21 44q177 185 310 320q-12 0 -23.5 -1t-21.5 -2q-68 -5 -88 -5q-31 0 -64 3t-53 7q-49 11 -49 52q0 22 12 36.5t35 11.5q108 -12 170 -12q41 0 105 6q54 4 72 4q40 0 54.5 -10.5t14.5 -31.5
q0 -32 -28 -61l-74 -75q-121 -121 -228 -231l36 1q81 3 91 3q77 0 135 -9q39 -7 39 -47q0 -23 -13.5 -37.5t-40.5 -12.5zM224 564.5q-12 12.5 -12 30.5q0 10 4.5 21.5t13.5 18.5l89 85q15 15 26 22t23 7q20 0 32.5 -12.5t12.5 -32.5q0 -25 -21 -44l-96 -86q-23 -22 -42 -22
q-18 0 -30 12.5z" />
    <glyph glyph-name="Zdotaccent" unicode="&#x17b;" horiz-adv-x="698" 
d="M339 26q-36 0 -66 -1t-49 -2l-77 -2q-51 0 -78.5 7.5t-27.5 35.5q0 29 37 74t128 138q78 81 118 123l113 121q44 45 60 64q-103 -9 -144 -9q-56 0 -121.5 5.5t-98.5 13.5q-31 7 -44.5 20.5t-13.5 34.5q0 24 14.5 39t42.5 15q15 0 71 -6q80 -12 155 -12q35 0 72 2.5
t86 6.5q35 2 51 4t35 -3t32 -14q26 -18 26 -49q0 -32 -43 -83.5t-132 -141.5q-15 -16 -28 -29t-23 -24q-127 -131 -153 -159l-65 -67q9 1 24 1q79 6 151 6q53 0 89.5 -2.5t95.5 -10.5q26 -3 40 -16.5t14 -35.5q0 -25 -16 -41t-39 -15q-156 12 -236 12zM296 785
q-20 20 -20 51q0 29 20 48.5t50 19.5t50 -19.5t20 -48.5q0 -31 -19.5 -51t-50.5 -20q-30 0 -50 20z" />
    <glyph glyph-name="zdotaccent" unicode="&#x17c;" horiz-adv-x="562" 
d="M423 -2q-68 6 -122 6q-47 0 -121 -4q-39 -3 -64 -3q-82 0 -82 46q0 23 21 44q177 185 310 320q-12 0 -23.5 -1t-21.5 -2q-68 -5 -88 -5q-31 0 -64 3t-53 7q-49 11 -49 52q0 22 12 36.5t35 11.5q108 -12 170 -12q41 0 105 6q54 4 72 4q40 0 54.5 -10.5t14.5 -31.5
q0 -32 -28 -61l-74 -75q-121 -121 -228 -231l36 1q81 3 91 3q77 0 135 -9q39 -7 39 -47q0 -23 -13.5 -37.5t-40.5 -12.5zM244 585q-20 20 -20 51q0 29 20 48.5t50 19.5t50 -19.5t20 -48.5q0 -31 -19.5 -51t-50.5 -20q-30 0 -50 20z" />
    <glyph glyph-name="Zcaron" unicode="&#x17d;" horiz-adv-x="698" 
d="M339 26q-36 0 -66 -1t-49 -2l-77 -2q-51 0 -78.5 7.5t-27.5 35.5q0 29 37 74t128 138q78 81 118 123l113 121q44 45 60 64q-103 -9 -144 -9q-56 0 -121.5 5.5t-98.5 13.5q-31 7 -44.5 20.5t-13.5 34.5q0 24 14.5 39t42.5 15q15 0 71 -6q80 -12 155 -12q35 0 72 2.5
t86 6.5q35 2 51 4t35 -3t32 -14q26 -18 26 -49q0 -32 -43 -83.5t-132 -141.5q-15 -16 -28 -29t-23 -24q-127 -131 -153 -159l-65 -67q9 1 24 1q79 6 151 6q53 0 89.5 -2.5t95.5 -10.5q26 -3 40 -16.5t14 -35.5q0 -25 -16 -41t-39 -15q-156 12 -236 12zM496.5 951
q12.5 -13 12.5 -31q0 -14 -13 -32q-40 -54 -59 -77.5t-42.5 -39.5t-50.5 -16t-61.5 31t-75.5 79q-7 7 -15 17q-13 14 -13 32t14 31.5t32 13.5q11 0 20 -6t22 -19q8 -8 16 -17.5t18 -19.5q40 -46 47 -46q4 0 17.5 15.5t29.5 37.5q10 15 32 42q15 18 40 18q17 0 29.5 -13z" />
    <glyph glyph-name="zcaron" unicode="&#x17e;" horiz-adv-x="562" 
d="M423 -2q-68 6 -122 6q-47 0 -121 -4q-39 -3 -64 -3q-82 0 -82 46q0 23 21 44q177 185 310 320q-12 0 -23.5 -1t-21.5 -2q-68 -5 -88 -5q-31 0 -64 3t-53 7q-49 11 -49 52q0 22 12 36.5t35 11.5q108 -12 170 -12q41 0 105 6q54 4 72 4q40 0 54.5 -10.5t14.5 -31.5
q0 -32 -28 -61l-74 -75q-121 -121 -228 -231l36 1q81 3 91 3q77 0 135 -9q39 -7 39 -47q0 -23 -13.5 -37.5t-40.5 -12.5zM444.5 751q12.5 -13 12.5 -31q0 -14 -13 -32q-40 -54 -59 -77.5t-42.5 -39.5t-50.5 -16t-61.5 31t-75.5 79q-7 7 -15 17q-13 14 -13 32t14 31.5
t32 13.5q11 0 20 -6t22 -19q8 -8 16 -17.5t18 -19.5q40 -46 47 -46q4 0 17.5 15.5t29.5 37.5q10 15 32 42q15 18 40 18q17 0 29.5 -13z" />
    <glyph glyph-name="uni018F" unicode="&#x18f;" horiz-adv-x="783" 
d="M212 29.5q-77 38.5 -121.5 103.5t-44.5 141q0 50 20.5 71.5t67.5 22.5l462 4q8 0 10.5 2.5t2.5 11.5q0 58 -30 103t-82.5 69.5t-117.5 24.5q-54 0 -90.5 -17t-57 -40.5t-42.5 -58.5q-15 -23 -47 -23q-27 0 -52 14t-25 37q0 15 13 39q42 73 124 116.5t182 43.5
q102 0 182 -45.5t124.5 -125t44.5 -176.5q0 -99 -45.5 -180.5t-126.5 -128.5t-183 -47q-91 0 -168 38.5zM494 114q52 26 83.5 67t31.5 84q0 8 -3.5 10.5t-12.5 2.5l-400 -5q-13 0 -17.5 -5t-4.5 -16q0 -47 29.5 -84.5t78.5 -58.5t104 -21q59 0 111 26z" />
    <glyph glyph-name="florin" unicode="&#x192;" horiz-adv-x="677" 
d="M636.5 780q10.5 -12 10.5 -33q0 -19 -9.5 -31t-26.5 -12q-8 0 -17 3q-31 7 -63 7q-56 0 -91 -54t-42 -160h95q27 0 43.5 -13t16.5 -35q0 -23 -15.5 -37t-43.5 -14h-98q-4 -173 -31.5 -304.5t-78 -205.5t-121.5 -77q-24 -1 -68 4q-31 4 -49 19.5t-18 38.5q0 26 17 42.5
t45 12.5q48 -9 71 -9q49 1 80 138t39 341h-83q-25 0 -40.5 14t-15.5 35q0 23 15.5 36.5t42.5 13.5h84q11 165 68.5 239.5t173.5 74.5q38 0 73 -12q26 -10 36.5 -22z" />
    <glyph glyph-name="Ohorn" unicode="&#x1a0;" horiz-adv-x="869" 
d="M823.5 554.5q-35.5 -48.5 -95.5 -72.5q26 -66 26 -141q0 -103 -47 -178.5t-128 -115.5t-183 -40q-101 0 -179 39.5t-122 116t-44 182.5q0 105 43 187.5t120.5 129t177.5 46.5q98 0 178 -44t128 -121q36 16 59 47t23 81q0 41 39 41q20 0 30 -11.5t10 -31.5
q0 -66 -35.5 -114.5zM516.5 142.5q52.5 25.5 84 77t31.5 126.5q0 73 -29.5 130.5t-83 89.5t-122.5 32q-68 0 -118.5 -31.5t-78 -88t-27.5 -128.5q0 -78 31 -130.5t83 -77.5t114 -25q63 0 115.5 25.5z" />
    <glyph glyph-name="ohorn" unicode="&#x1a1;" horiz-adv-x="602" 
d="M638.5 376q-26.5 -44 -72.5 -71q5 -32 5 -60q0 -119 -73 -183t-195 -64t-196.5 64t-74.5 187q0 79 32 139.5t92 94.5t141 34q85 0 149 -37.5t97 -104.5q44 39 44 103q0 41 38 41q20 0 30 -11.5t10 -31.5q0 -56 -26.5 -100zM408.5 131.5q39.5 38.5 39.5 114.5t-39 126
t-108 50q-67 0 -107 -47t-40 -126t40.5 -117.5t106.5 -38.5q68 0 107.5 38.5z" />
    <glyph glyph-name="Uhorn" unicode="&#x1af;" horiz-adv-x="791" 
d="M735 545q-46 -52 -119 -71l1 -47q0 -39 1 -61q2 -158 2 -306q0 -33 -15.5 -48t-46.5 -15t-46 14t-15 46v39q-28 -42 -78 -68.5t-115 -26.5q-75 0 -127.5 34t-79 93t-26.5 134q0 133 3 263l3 125q1 24 16.5 38.5t45.5 14.5q60 0 60 -53q0 -76 -2 -192t-2 -196
q0 -71 35 -110.5t92 -39.5q43 0 83.5 29t65 76.5t24.5 101.5l-1 336q0 54 57 54q30 0 46.5 -14t16.5 -41q0 -74 1 -110q37 15 62 46.5t25 83.5q0 41 39 41q20 0 30 -11.5t10 -31.5q0 -75 -46 -127z" />
    <glyph glyph-name="uhorn" unicode="&#x1b0;" horiz-adv-x="564" 
d="M579 355.5q-38 -49.5 -101 -72.5l1 -141q0 -29 5.5 -47t12.5 -29.5t7 -14.5q0 -20 -16 -34.5t-40 -14.5q-20 0 -41 23t-25 48q-39 -74 -140 -74q-87 0 -133.5 60.5t-46.5 161.5v240q0 19 17 31.5t43 12.5q25 0 43 -12.5t18 -31.5v-239q0 -57 18 -92.5t57 -35.5
q49 0 72 45.5t23 141.5v179q0 24 16.5 37t43.5 13q28 0 45.5 -13.5t17.5 -36.5l1 -102q28 17 45 46t17 71q0 41 38 41q20 0 30 -11.5t10 -31.5q0 -68 -38 -117.5z" />
    <glyph glyph-name="uni01CD" unicode="&#x1cd;" horiz-adv-x="695" 
d="M626 57q3 -9 3 -16q0 -25 -20.5 -38.5t-48.5 -13.5q-22 0 -38 9t-21 27l-38 138l-231 1q-7 -24 -13.5 -45.5t-11.5 -39.5l-15 -51q-6 -19 -21.5 -28.5t-36.5 -9.5q-28 0 -48.5 14t-20.5 37q0 5 2 17l142 426l35 107q21 65 46 93t65 28q39 0 62 -25t43 -87
q43 -130 101 -327h28q21 0 33 -14t12 -41q0 -56 -35 -56h-5zM432 275q-30 112 -52 186q-2 7 -4 12t-3 10q-8 28 -13 41t-10 13t-10 -13t-10 -32q-5 -20 -7 -26l-57 -190zM497.5 951q12.5 -13 12.5 -31q0 -14 -13 -32q-40 -54 -59 -77.5t-42.5 -39.5t-50.5 -16t-61.5 31
t-75.5 79q-7 7 -15 17q-13 14 -13 32t14 31.5t32 13.5q11 0 20 -6t22 -19q8 -8 16 -17.5t18 -19.5q40 -46 47 -46q4 0 17.5 15.5t29.5 37.5q10 15 32 42q15 18 40 18q17 0 29.5 -13z" />
    <glyph glyph-name="uni01CE" unicode="&#x1ce;" horiz-adv-x="617" 
d="M561.5 83.5q9.5 -9.5 9.5 -33.5q0 -21 -11 -35t-29 -14q-43 0 -65 11t-39 41q-42 -63 -152 -63q-115 0 -172 67.5t-57 177.5q0 73 29.5 132t84.5 93t127 34q41 0 74 -16.5t50 -43.5l3 21q1 14 13 24t38 10q30 0 43.5 -14t10.5 -35q-6 -32 -13 -113q-3 -40 -3 -103v-47
q0 -42 5 -60.5t27 -20.5q17 -3 26.5 -12.5zM386 303q0 46 -29.5 71t-67.5 25q-55 0 -88 -48t-33 -115q0 -65 29 -108t85 -43q46 0 74 24t29 69q1 43 1 125zM442.5 751q12.5 -13 12.5 -31q0 -14 -13 -32q-40 -54 -59 -77.5t-42.5 -39.5t-50.5 -16t-61.5 31t-75.5 79
q-7 7 -15 17q-13 14 -13 32t14 31.5t32 13.5q11 0 20 -6t22 -19q8 -8 16 -17.5t18 -19.5q40 -46 47 -46q4 0 17.5 15.5t29.5 37.5q10 15 32 42q15 18 40 18q17 0 29.5 -13z" />
    <glyph glyph-name="uni01CF" unicode="&#x1cf;" horiz-adv-x="486" 
d="M449 59q0 -56 -55 -56l-301 4q-27 1 -39 17t-12 38q0 28 15 42t36 14l93 -1q14 227 16 482l-83 -6q-24 -3 -35 -3q-22 0 -34.5 15t-12.5 41q0 27 13 39.5t36 15.5q19 3 79 6t119 3q54 0 116 -6q24 -2 36.5 -16t12.5 -38q0 -25 -13 -40t-41 -14q-26 2 -71 3
q-2 -291 -15 -484l86 -1q54 -1 54 -55zM401.5 951q12.5 -13 12.5 -31q0 -14 -13 -32q-40 -54 -59 -77.5t-42.5 -39.5t-50.5 -16t-61.5 31t-75.5 79q-7 7 -15 17q-13 14 -13 32t14 31.5t32 13.5q11 0 20 -6t22 -19q8 -8 16 -17.5t18 -19.5q40 -46 47 -46q4 0 17.5 15.5
t29.5 37.5q10 15 32 42q15 18 40 18q17 0 29.5 -13z" />
    <glyph glyph-name="uni01D0" unicode="&#x1d0;" horiz-adv-x="338" 
d="M120.5 17.5q-17.5 14.5 -17.5 38.5l9 399q0 24 17 38t44 14q28 0 45.5 -14.5t17.5 -39.5l-13 -399q0 -22 -16 -36.5t-42 -14.5q-27 0 -44.5 14.5zM318.5 751q12.5 -13 12.5 -31q0 -14 -13 -32q-40 -54 -59 -77.5t-42.5 -39.5t-50.5 -16t-61.5 31t-75.5 79q-7 7 -15 17
q-13 14 -13 32t14 31.5t32 13.5q11 0 20 -6t22 -19q8 -8 16 -17.5t18 -19.5q40 -46 47 -46q4 0 17.5 15.5t29.5 37.5q10 15 32 42q15 18 40 18q17 0 29.5 -13z" />
    <glyph glyph-name="uni01D1" unicode="&#x1d1;" horiz-adv-x="805" 
d="M217 46.5q-78 39.5 -122 116t-44 182.5q0 105 43 187.5t120.5 129t177.5 46.5q102 0 184.5 -48t130 -132t47.5 -187t-47 -178.5t-128 -115.5t-183 -40q-101 0 -179 39.5zM516.5 142.5q52.5 25.5 84 77t31.5 126.5q0 73 -29.5 130.5t-83 89.5t-122.5 32
q-68 0 -118.5 -31.5t-78 -88t-27.5 -128.5q0 -78 31 -130.5t83 -77.5t114 -25q63 0 115.5 25.5zM548.5 951q12.5 -13 12.5 -31q0 -14 -13 -32q-40 -54 -59 -77.5t-42.5 -39.5t-50.5 -16t-61.5 31t-75.5 79q-7 7 -15 17q-13 14 -13 32t14 31.5t32 13.5q11 0 20 -6t22 -19
q8 -8 16 -17.5t18 -19.5q40 -46 47 -46q4 0 17.5 15.5t29.5 37.5q10 15 32 42q15 18 40 18q17 0 29.5 -13z" />
    <glyph glyph-name="uni01D2" unicode="&#x1d2;" horiz-adv-x="602" 
d="M106.5 62q-74.5 64 -74.5 187q0 79 32 139.5t92 94.5t141 34q80 0 142.5 -34t97 -95.5t34.5 -142.5q0 -119 -73 -183t-195 -64t-196.5 64zM408.5 131.5q39.5 38.5 39.5 114.5t-39 126t-108 50q-67 0 -107 -47t-40 -126t40.5 -117.5t106.5 -38.5q68 0 107.5 38.5z
M451.5 751q12.5 -13 12.5 -31q0 -14 -13 -32q-40 -54 -59 -77.5t-42.5 -39.5t-50.5 -16t-61.5 31t-75.5 79q-7 7 -15 17q-13 14 -13 32t14 31.5t32 13.5q11 0 20 -6t22 -19q8 -8 16 -17.5t18 -19.5q40 -46 47 -46q4 0 17.5 15.5t29.5 37.5q10 15 32 42q15 18 40 18
q17 0 29.5 -13z" />
    <glyph glyph-name="uni01D3" unicode="&#x1d3;" horiz-adv-x="692" 
d="M618 366q2 -158 2 -306q0 -33 -15.5 -48t-46.5 -15t-46 14t-15 46v39q-28 -42 -78 -68.5t-115 -26.5q-75 0 -127.5 34t-79 93t-26.5 134q0 133 3 263l3 125q1 24 16.5 38.5t45.5 14.5q60 0 60 -53q0 -76 -2 -192t-2 -196q0 -71 35 -110.5t92 -39.5q43 0 83.5 29t65 76.5
t24.5 101.5l-1 336q0 54 57 54q30 0 46.5 -14t16.5 -41q0 -104 3 -227q0 -39 1 -61zM492.5 951q12.5 -13 12.5 -31q0 -14 -13 -32q-40 -54 -59 -77.5t-42.5 -39.5t-50.5 -16t-61.5 31t-75.5 79q-7 7 -15 17q-13 14 -13 32t14 31.5t32 13.5q11 0 20 -6t22 -19q8 -8 16 -17.5
t18 -19.5q40 -46 47 -46q4 0 17.5 15.5t29.5 37.5q10 15 32 42q15 18 40 18q17 0 29.5 -13z" />
    <glyph glyph-name="uni01D4" unicode="&#x1d4;" horiz-adv-x="564" 
d="M484.5 95q5.5 -18 12.5 -29.5t7 -14.5q0 -20 -16 -34.5t-40 -14.5q-20 0 -41 23t-25 48q-39 -74 -140 -74q-87 0 -133.5 60.5t-46.5 161.5v240q0 19 17 31.5t43 12.5q25 0 43 -12.5t18 -31.5v-239q0 -57 18 -92.5t57 -35.5q49 0 72 45.5t23 141.5v179q0 24 16.5 37
t43.5 13q28 0 45.5 -13.5t17.5 -36.5l3 -318q0 -29 5.5 -47zM417.5 751q12.5 -13 12.5 -31q0 -14 -13 -32q-40 -54 -59 -77.5t-42.5 -39.5t-50.5 -16t-61.5 31t-75.5 79q-7 7 -15 17q-13 14 -13 32t14 31.5t32 13.5q11 0 20 -6t22 -19q8 -8 16 -17.5t18 -19.5q40 -46 47 -46
q4 0 17.5 15.5t29.5 37.5q10 15 32 42q15 18 40 18q17 0 29.5 -13z" />
    <glyph glyph-name="uni01D5" unicode="&#x1d5;" horiz-adv-x="692" 
d="M618 366q2 -158 2 -306q0 -33 -15.5 -48t-46.5 -15t-46 14t-15 46v39q-28 -42 -78 -68.5t-115 -26.5q-75 0 -127.5 34t-79 93t-26.5 134q0 133 3 263l3 125q1 24 16.5 38.5t45.5 14.5q60 0 60 -53q0 -76 -2 -192t-2 -196q0 -71 35 -110.5t92 -39.5q43 0 83.5 29t65 76.5
t24.5 101.5l-1 336q0 54 57 54q30 0 46.5 -14t16.5 -41q0 -104 3 -227q0 -39 1 -61zM162.5 786q-20.5 21 -20.5 50q0 28 20.5 48t49.5 20t50 -20t21 -48t-21.5 -49.5t-49.5 -21.5q-29 0 -49.5 21zM426.5 786q-20.5 21 -20.5 50q0 28 20.5 48t49.5 20t49.5 -20t20.5 -48
q0 -29 -21 -50t-49 -21q-29 0 -49.5 21zM259.5 953q-11.5 -1 -21.5 -1q-26 0 -53 10q-33 12 -33 47q0 20 13 32t32 12q8 0 30 -3.5t47 -3.5q22 0 66 4q50 4 78 4q23 0 65 -4q17 -2 30.5 -15.5t13.5 -31.5q0 -21 -14.5 -34t-30.5 -12q-8 1 -25.5 3t-32.5 2q-28 0 -72 -4
q-42 -4 -67 -4q-14 0 -25.5 -1z" />
    <glyph glyph-name="uni01D6" unicode="&#x1d6;" horiz-adv-x="564" 
d="M484.5 95q5.5 -18 12.5 -29.5t7 -14.5q0 -20 -16 -34.5t-40 -14.5q-20 0 -41 23t-25 48q-39 -74 -140 -74q-87 0 -133.5 60.5t-46.5 161.5v240q0 19 17 31.5t43 12.5q25 0 43 -12.5t18 -31.5v-239q0 -57 18 -92.5t57 -35.5q49 0 72 45.5t23 141.5v179q0 24 16.5 37
t43.5 13q28 0 45.5 -13.5t17.5 -36.5l3 -318q0 -29 5.5 -47zM86.5 586q-20.5 21 -20.5 50q0 28 20.5 48t49.5 20t50 -20t21 -48t-21.5 -49.5t-49.5 -21.5q-29 0 -49.5 21zM350.5 586q-20.5 21 -20.5 50q0 28 20.5 48t49.5 20t49.5 -20t20.5 -48q0 -29 -21 -50t-49 -21
q-29 0 -49.5 21zM183.5 753q-11.5 -1 -21.5 -1q-26 0 -53 10q-33 12 -33 47q0 20 13 32t32 12q8 0 30 -3.5t47 -3.5q22 0 66 4q50 4 78 4q23 0 65 -4q17 -2 30.5 -15.5t13.5 -31.5q0 -21 -14.5 -34t-30.5 -12q-8 1 -25.5 3t-32.5 2q-28 0 -72 -4q-42 -4 -67 -4
q-14 0 -25.5 -1z" />
    <glyph glyph-name="uni01D7" unicode="&#x1d7;" horiz-adv-x="692" 
d="M618 366q2 -158 2 -306q0 -33 -15.5 -48t-46.5 -15t-46 14t-15 46v39q-28 -42 -78 -68.5t-115 -26.5q-75 0 -127.5 34t-79 93t-26.5 134q0 133 3 263l3 125q1 24 16.5 38.5t45.5 14.5q60 0 60 -53q0 -76 -2 -192t-2 -196q0 -71 35 -110.5t92 -39.5q43 0 83.5 29t65 76.5
t24.5 101.5l-1 336q0 54 57 54q30 0 46.5 -14t16.5 -41q0 -104 3 -227q0 -39 1 -61zM162.5 786q-20.5 21 -20.5 50q0 28 20.5 48t49.5 20t50 -20t21 -48t-21.5 -49.5t-49.5 -21.5q-29 0 -49.5 21zM426.5 786q-20.5 21 -20.5 50q0 28 20.5 48t49.5 20t49.5 -20t20.5 -48
q0 -29 -21 -50t-49 -21q-29 0 -49.5 21zM308 925.5q-12 12.5 -12 30.5q0 10 4.5 21.5t13.5 18.5l89 85q15 15 26 22t23 7q20 0 32.5 -12.5t12.5 -32.5q0 -25 -21 -44l-96 -86q-23 -22 -42 -22q-18 0 -30 12.5z" />
    <glyph glyph-name="uni01D8" unicode="&#x1d8;" horiz-adv-x="564" 
d="M484.5 95q5.5 -18 12.5 -29.5t7 -14.5q0 -20 -16 -34.5t-40 -14.5q-20 0 -41 23t-25 48q-39 -74 -140 -74q-87 0 -133.5 60.5t-46.5 161.5v240q0 19 17 31.5t43 12.5q25 0 43 -12.5t18 -31.5v-239q0 -57 18 -92.5t57 -35.5q49 0 72 45.5t23 141.5v179q0 24 16.5 37
t43.5 13q28 0 45.5 -13.5t17.5 -36.5l3 -318q0 -29 5.5 -47zM86.5 586q-20.5 21 -20.5 50q0 28 20.5 48t49.5 20t50 -20t21 -48t-21.5 -49.5t-49.5 -21.5q-29 0 -49.5 21zM350.5 586q-20.5 21 -20.5 50q0 28 20.5 48t49.5 20t49.5 -20t20.5 -48q0 -29 -21 -50t-49 -21
q-29 0 -49.5 21zM232 725.5q-12 12.5 -12 30.5q0 10 4.5 21.5t13.5 18.5l89 85q15 15 26 22t23 7q20 0 32.5 -12.5t12.5 -32.5q0 -25 -21 -44l-96 -86q-23 -22 -42 -22q-18 0 -30 12.5z" />
    <glyph glyph-name="uni01D9" unicode="&#x1d9;" horiz-adv-x="692" 
d="M618 366q2 -158 2 -306q0 -33 -15.5 -48t-46.5 -15t-46 14t-15 46v39q-28 -42 -78 -68.5t-115 -26.5q-75 0 -127.5 34t-79 93t-26.5 134q0 133 3 263l3 125q1 24 16.5 38.5t45.5 14.5q60 0 60 -53q0 -76 -2 -192t-2 -196q0 -71 35 -110.5t92 -39.5q43 0 83.5 29t65 76.5
t24.5 101.5l-1 336q0 54 57 54q30 0 46.5 -14t16.5 -41q0 -104 3 -227q0 -39 1 -61zM162.5 786q-20.5 21 -20.5 50q0 28 20.5 48t49.5 20t50 -20t21 -48t-21.5 -49.5t-49.5 -21.5q-29 0 -49.5 21zM426.5 786q-20.5 21 -20.5 50q0 28 20.5 48t49.5 20t49.5 -20t20.5 -48
q0 -29 -21 -50t-49 -21q-29 0 -49.5 21zM495.5 1111q12.5 -13 12.5 -31q0 -14 -13 -32q-40 -54 -59 -77.5t-42.5 -39.5t-50.5 -16t-61.5 31t-75.5 79q-7 7 -15 17q-13 14 -13 32t14 31.5t32 13.5q11 0 20 -6t22 -19q8 -8 16 -17.5t18 -19.5q40 -46 47 -46q4 0 17.5 15.5
t29.5 37.5q10 15 32 42q15 18 40 18q17 0 29.5 -13z" />
    <glyph glyph-name="uni01DA" unicode="&#x1da;" horiz-adv-x="564" 
d="M484.5 95q5.5 -18 12.5 -29.5t7 -14.5q0 -20 -16 -34.5t-40 -14.5q-20 0 -41 23t-25 48q-39 -74 -140 -74q-87 0 -133.5 60.5t-46.5 161.5v240q0 19 17 31.5t43 12.5q25 0 43 -12.5t18 -31.5v-239q0 -57 18 -92.5t57 -35.5q49 0 72 45.5t23 141.5v179q0 24 16.5 37
t43.5 13q28 0 45.5 -13.5t17.5 -36.5l3 -318q0 -29 5.5 -47zM86.5 586q-20.5 21 -20.5 50q0 28 20.5 48t49.5 20t50 -20t21 -48t-21.5 -49.5t-49.5 -21.5q-29 0 -49.5 21zM350.5 586q-20.5 21 -20.5 50q0 28 20.5 48t49.5 20t49.5 -20t20.5 -48q0 -29 -21 -50t-49 -21
q-29 0 -49.5 21zM419.5 911q12.5 -13 12.5 -31q0 -14 -13 -32q-40 -54 -59 -77.5t-42.5 -39.5t-50.5 -16t-61.5 31t-75.5 79q-7 7 -15 17q-13 14 -13 32t14 31.5t32 13.5q11 0 20 -6t22 -19q8 -8 16 -17.5t18 -19.5q40 -46 47 -46q4 0 17.5 15.5t29.5 37.5q10 15 32 42
q15 18 40 18q17 0 29.5 -13z" />
    <glyph glyph-name="uni01DB" unicode="&#x1db;" horiz-adv-x="692" 
d="M618 366q2 -158 2 -306q0 -33 -15.5 -48t-46.5 -15t-46 14t-15 46v39q-28 -42 -78 -68.5t-115 -26.5q-75 0 -127.5 34t-79 93t-26.5 134q0 133 3 263l3 125q1 24 16.5 38.5t45.5 14.5q60 0 60 -53q0 -76 -2 -192t-2 -196q0 -71 35 -110.5t92 -39.5q43 0 83.5 29t65 76.5
t24.5 101.5l-1 336q0 54 57 54q30 0 46.5 -14t16.5 -41q0 -104 3 -227q0 -39 1 -61zM162.5 786q-20.5 21 -20.5 50q0 28 20.5 48t49.5 20t50 -20t21 -48t-21.5 -49.5t-49.5 -21.5q-29 0 -49.5 21zM426.5 786q-20.5 21 -20.5 50q0 28 20.5 48t49.5 20t49.5 -20t20.5 -48
q0 -29 -21 -50t-49 -21q-29 0 -49.5 21zM318 921q-10 5 -20 17l-79 86q-21 23 -21 44q0 19 12.5 32t31.5 13q24 0 49 -29l73 -85q17 -19 17 -40q0 -18 -12 -30.5t-29 -12.5q-12 0 -22 5z" />
    <glyph glyph-name="uni01DC" unicode="&#x1dc;" horiz-adv-x="564" 
d="M484.5 95q5.5 -18 12.5 -29.5t7 -14.5q0 -20 -16 -34.5t-40 -14.5q-20 0 -41 23t-25 48q-39 -74 -140 -74q-87 0 -133.5 60.5t-46.5 161.5v240q0 19 17 31.5t43 12.5q25 0 43 -12.5t18 -31.5v-239q0 -57 18 -92.5t57 -35.5q49 0 72 45.5t23 141.5v179q0 24 16.5 37
t43.5 13q28 0 45.5 -13.5t17.5 -36.5l3 -318q0 -29 5.5 -47zM86.5 586q-20.5 21 -20.5 50q0 28 20.5 48t49.5 20t50 -20t21 -48t-21.5 -49.5t-49.5 -21.5q-29 0 -49.5 21zM350.5 586q-20.5 21 -20.5 50q0 28 20.5 48t49.5 20t49.5 -20t20.5 -48q0 -29 -21 -50t-49 -21
q-29 0 -49.5 21zM242 721q-10 5 -20 17l-79 86q-21 23 -21 44q0 19 12.5 32t31.5 13q24 0 49 -29l73 -85q17 -19 17 -40q0 -18 -12 -30.5t-29 -12.5q-12 0 -22 5z" />
    <glyph glyph-name="Gcaron" unicode="&#x1e6;" horiz-adv-x="760" 
d="M712.5 362q16.5 -14 16.5 -39t-16 -41t-44 -15h-6q-9 -128 -77 -197.5t-190 -69.5q-100 0 -179.5 46t-123.5 125.5t-44 176.5q0 96 43 174.5t118 123.5t166 45q73 0 123 -27.5t75 -63.5v23q0 18 15 31t41 13q27 0 41.5 -12t15.5 -31q2 -78 -13 -109q-8 -15 -23.5 -22
t-33.5 -7q-17 0 -30 6.5t-34 25.5q-33 29 -64.5 45.5t-84.5 16.5q-68 0 -121 -30t-82.5 -83t-29.5 -120t30 -121.5t80.5 -85t111.5 -30.5q137 0 152 158l-115 2q-30 1 -43.5 15.5t-13.5 38.5q0 27 16 42.5t44 14.5l231 -5q32 0 48.5 -14zM541.5 951q12.5 -13 12.5 -31
q0 -14 -13 -32q-40 -54 -59 -77.5t-42.5 -39.5t-50.5 -16t-61.5 31t-75.5 79q-7 7 -15 17q-13 14 -13 32t14 31.5t32 13.5q11 0 20 -6t22 -19q8 -8 16 -17.5t18 -19.5q40 -46 47 -46q4 0 17.5 15.5t29.5 37.5q10 15 32 42q15 18 40 18q17 0 29.5 -13z" />
    <glyph glyph-name="gcaron" unicode="&#x1e7;" horiz-adv-x="591" 
d="M545 75.5q5 -44.5 5 -74.5q0 -71 -31 -128.5t-87.5 -90t-130.5 -32.5q-58 0 -106.5 22t-77 59.5t-28.5 81.5q0 24 14 35t43 11q39 0 45 -33q15 -77 107 -77q63 0 97 38.5t34 116.5q0 21 -3 45q-23 -22 -60 -36t-83 -14q-71 0 -126 33.5t-85 91t-30 126.5q0 71 30.5 129.5
t85.5 92t126 33.5q72 0 113 -35q7 20 17 37q11 22 40 22q23 0 44 -12.5t22 -32.5q0 -2 -2 -12q-6 -16 -19 -60q19 -126 34 -240q7 -52 12 -96.5zM369 115q35 20 43 45q-12 101 -29 203q-9 17 -33.5 31t-55.5 14q-57 0 -94 -46t-37 -114q0 -64 34 -108.5t98 -44.5q39 0 74 20
zM446.5 751q12.5 -13 12.5 -31q0 -14 -13 -32q-40 -54 -59 -77.5t-42.5 -39.5t-50.5 -16t-61.5 31t-75.5 79q-7 7 -15 17q-13 14 -13 32t14 31.5t32 13.5q11 0 20 -6t22 -19q8 -8 16 -17.5t18 -19.5q40 -46 47 -46q4 0 17.5 15.5t29.5 37.5q10 15 32 42q15 18 40 18
q17 0 29.5 -13z" />
    <glyph glyph-name="Aringacute" unicode="&#x1fa;" horiz-adv-x="695" 
d="M324 1031q-12 12 -12 30q0 20 17 40l39 47q26 29 50 29q19 0 31.5 -12.5t12.5 -32.5q0 -23 -21 -44l-45 -48q-12 -11 -22 -16t-21 -5q-17 0 -29 12zM260.5 773.5q-36.5 36.5 -36.5 88.5q0 51 37 86.5t91 35.5q34 0 61.5 -17.5t43.5 -45.5t16 -59q0 -54 -35 -89.5
t-89 -35.5q-52 0 -88.5 36.5zM313.5 896q-14.5 -14 -14.5 -33q0 -22 14.5 -36.5t35.5 -14.5q22 0 36 14t14 37q0 18 -14 32.5t-36 14.5q-21 0 -35.5 -14zM626 57q3 -9 3 -16q0 -25 -20.5 -38.5t-48.5 -13.5q-22 0 -38 9t-21 27l-38 138l-231 1q-7 -24 -13.5 -45.5
t-11.5 -39.5l-15 -51q-6 -19 -21.5 -28.5t-36.5 -9.5q-28 0 -48.5 14t-20.5 37q0 5 2 17l142 426l35 107q21 65 46 93t65 28q39 0 62 -25t43 -87q43 -130 101 -327h28q21 0 33 -14t12 -41q0 -56 -35 -56h-5zM432 275q-30 112 -52 186q-2 7 -4 12t-3 10q-8 28 -13 41t-10 13
t-10 -13t-10 -32q-5 -20 -7 -26l-57 -190z" />
    <glyph glyph-name="aringacute" unicode="&#x1fb;" horiz-adv-x="617" 
d="M561.5 83.5q9.5 -9.5 9.5 -33.5q0 -21 -11 -35t-29 -14q-43 0 -65 11t-39 41q-42 -63 -152 -63q-115 0 -172 67.5t-57 177.5q0 73 29.5 132t84.5 93t127 34q41 0 74 -16.5t50 -43.5l3 21q1 14 13 24t38 10q30 0 43.5 -14t10.5 -35q-6 -32 -13 -113q-3 -40 -3 -103v-47
q0 -42 5 -60.5t27 -20.5q17 -3 26.5 -12.5zM386 303q0 46 -29.5 71t-67.5 25q-55 0 -88 -48t-33 -115q0 -65 29 -108t85 -43q46 0 74 24t29 69q1 43 1 125zM205 573.5q-36 36.5 -36 88.5q0 51 36.5 86.5t90.5 35.5q34 0 62 -17.5t44 -45.5t16 -59q0 -54 -35 -89.5t-89 -35.5
q-53 0 -89 36.5zM330 626.5q14 14.5 14 36.5q0 18 -14 32.5t-36 14.5q-21 0 -35.5 -14t-14.5 -33q0 -22 14.5 -36.5t35.5 -14.5q22 0 36 14.5zM223 848.5q-12 12.5 -12 30.5q0 10 4.5 21.5t13.5 18.5l89 85q15 15 26 22t23 7q20 0 32.5 -12.5t12.5 -32.5q0 -25 -21 -44
l-96 -86q-23 -22 -42 -22q-18 0 -30 12.5z" />
    <glyph glyph-name="AEacute" unicode="&#x1fc;" horiz-adv-x="891" 
d="M830 98.5q16 -12.5 16 -40.5q0 -26 -12.5 -39.5t-27.5 -18.5q-14 -4 -36.5 -5t-50.5 -1q-66 0 -104 1l-158 1q-33 0 -47.5 12.5t-14.5 37.5q0 53 46 53q5 49 8 90l-177 1l-80 -164q-7 -12 -15 -19t-26 -7q-19 0 -41.5 9t-35.5 22.5t-8 25.5q110 240 212 428t166 204
q6 2 8 2q34 0 66 1t55 2l74 2q46 0 172 -9q17 -2 25 -12.5t8 -31.5q0 -35 -12 -45.5t-32 -9.5q-46 4 -117 4t-111 -3q4 -68 4 -185q44 -2 66 -2q91 -2 107 -3q22 -3 22 -39q0 -22 -10.5 -32.5t-36.5 -10.5l-46 1l-49 2h-54q-1 -55 -3.5 -94.5t-10.5 -118.5q52 -6 125 -6
q35 0 49.5 1t55.5 7q15 2 31 -10.5zM453 275q4 108 4 237v13q-52 -75 -141 -248zM540 761.5q-12 12.5 -12 30.5q0 10 4.5 21.5t13.5 18.5l89 85q15 15 26 22t23 7q20 0 32.5 -12.5t12.5 -32.5q0 -25 -21 -44l-96 -86q-23 -22 -42 -22q-18 0 -30 12.5z" />
    <glyph glyph-name="aeacute" unicode="&#x1fd;" horiz-adv-x="954" 
d="M878 169.5q17 -13.5 17 -30.5q0 -13 -12 -34q-33 -53 -93.5 -84t-136.5 -31q-72 0 -124.5 24.5t-74.5 68.5q-20 -44 -69.5 -68.5t-119.5 -24.5q-112 0 -165 35.5t-53 111.5q0 168 218 174l129 3v14q0 39 -33.5 64.5t-85.5 25.5q-82 0 -144 -49q-24 -20 -44 -20
q-15 0 -28 13t-13 28q0 16 21 37q86 86 208 86q68 0 114.5 -30.5t64.5 -78.5q26 49 83 81t126 32q66 0 121.5 -27.5t88 -74.5t32.5 -103q0 -42 -17 -60t-51 -19l-324 -7v-9q0 -73 35 -102.5t107 -29.5q57 0 90 19t59 56q16 23 40 23q17 0 34 -13.5zM572 391.5
q-40 -30.5 -53 -74.5l273 6v8q0 38 -38.5 64.5t-89.5 26.5q-52 0 -92 -30.5zM360.5 110.5q33.5 27.5 33.5 77.5v35l-129 -4q-50 -2 -74.5 -23t-24.5 -57q0 -29 24 -42.5t76 -13.5q61 0 94.5 27.5zM382 571q-12 10 -14 24q-1 3 -1 11q0 16 13 35l87 106q14 16 25.5 22.5
t26.5 6.5q20 0 33.5 -14t13.5 -34q0 -23 -24 -50l-89 -94q-12 -13 -21.5 -18t-22.5 -5q-15 0 -27 10z" />
    <glyph glyph-name="Oslashacute" unicode="&#x1fe;" horiz-adv-x="824" 
d="M670 581q40 -48 62 -109.5t22 -130.5q0 -103 -47 -178.5t-128 -115.5t-183 -40q-100 0 -177 39l-51 -61q-19 -24 -44 -24q-19 0 -33.5 13t-14.5 31q0 13 9 26l58 69q-44 44 -68 106t-24 139q0 105 43 187.5t120.5 129t177.5 46.5q118 0 209 -64l75 89q19 25 44 25
q19 0 32.5 -13.5t13.5 -32.5q0 -17 -15 -35zM222 194l308 365q-58 39 -133 39q-68 0 -118.5 -31.5t-78 -88t-27.5 -128.5q0 -96 49 -156zM594 491l-297 -353q48 -21 104 -21q63 0 115.5 25.5t84 77t31.5 126.5q0 84 -38 145zM328 764.5q-12 12.5 -12 30.5q0 10 4.5 21.5
t13.5 18.5l89 85q15 15 26 22t23 7q20 0 32.5 -12.5t12.5 -32.5q0 -25 -21 -44l-96 -86q-23 -22 -42 -22q-18 0 -30 12.5z" />
    <glyph glyph-name="oslashacute" unicode="&#x1ff;" horiz-adv-x="605" 
d="M554.5 352q18.5 -49 18.5 -107q0 -119 -72.5 -183t-194.5 -64q-89 0 -153 34l-43 -51q-14 -18 -34 -18q-16 0 -29.5 12t-13.5 27q0 17 11 30l44 51q-54 65 -54 166q0 79 32 139.5t92 94.5t141 34q77 0 135 -30l38 45q17 18 38 18q17 0 29 -12.5t12 -29.5q0 -16 -11 -27
l-38 -44q34 -36 52.5 -85zM168 177l198 231q-28 14 -63 14q-67 0 -106.5 -47t-39.5 -126q0 -41 11 -72zM411 132q40 39 40 114q0 60 -24 103l-204 -237q34 -19 81 -19q67 0 107 39zM233 564.5q-12 12.5 -12 30.5q0 10 4.5 21.5t13.5 18.5l89 85q15 15 26 22t23 7
q20 0 32.5 -12.5t12.5 -32.5q0 -25 -21 -44l-96 -86q-23 -22 -42 -22q-18 0 -30 12.5z" />
    <glyph glyph-name="uni0218" unicode="&#x218;" horiz-adv-x="605" 
d="M181.5 31q-57.5 31 -88.5 81.5t-31 109.5q0 31 16 45.5t43 14.5q62 0 64 -51q2 -58 39.5 -89.5t88.5 -31.5q45 0 78 20.5t33 60.5q0 30 -20 50t-49 32t-75 25q-60 17 -102.5 35t-80 59.5t-37.5 107.5q0 60 32 107.5t87 74t120 26.5q68 0 123.5 -28.5t87 -75.5t31.5 -100
q0 -31 -15.5 -44t-45.5 -13q-28 0 -41 13t-19 41q-6 40 -37.5 69t-83.5 29q-50 0 -83.5 -28t-33.5 -73q0 -27 17 -43t42 -25.5t91 -29.5q53 -16 98 -37.5t80.5 -63.5t35.5 -106q0 -57 -31 -101t-84.5 -68t-117.5 -24q-74 0 -131.5 31zM368 -85.5q22 -21.5 22 -52.5
q0 -37 -24.5 -77t-67.5 -77q-12 -9 -28 -9t-27.5 10t-11.5 25q0 12 7 21q3 4 16 17q26 29 29 33q-18 5 -30 21t-12 36q0 31 22 52.5t53 21.5q30 0 52 -21.5z" />
    </font>
</defs>
</svg>
